<svg xmlns="http://www.w3.org/2000/svg" width="1260" height="760" viewBox="0 0 1260 760">
<rect width="100%" height="100%" fill="#f4f1e9"/>
<style>text{font:12px Arial, sans-serif;fill:#606060}</style>
<polygon points="55.00,104.30 60.00,106.80 55.00,109.30 50.00,106.80" fill="#f7c963"/>
<polygon points="45.00,119.30 50.00,121.80 50.00,116.80 45.00,114.30" fill="#9f8140"/>
<polygon points="65.00,119.30 60.00,121.80 60.00,116.80 65.00,114.30" fill="#be9a4c"/>
<polygon points="50.00,106.80 55.00,109.30 50.00,111.80 45.00,109.30" fill="#f7c963"/>
<polygon points="45.00,114.30 50.00,116.80 50.00,111.80 45.00,109.30" fill="#9f8140"/>
<polygon points="60.00,101.80 65.00,104.30 60.00,106.80 55.00,104.30" fill="#f7c963"/>
<polygon points="85.00,144.30 90.00,146.80 85.00,149.30 80.00,146.80" fill="#653f28"/>
<polygon points="60.00,121.80 55.00,124.30 55.00,119.30 60.00,116.80" fill="#be9a4c"/>
<polygon points="50.00,121.80 55.00,124.30 55.00,119.30 50.00,116.80" fill="#9f8140"/>
<polygon points="50.00,116.80 55.00,119.30 55.00,114.30 50.00,111.80" fill="#9f8140"/>
<polygon points="85.00,104.30 90.00,106.80 85.00,109.30 80.00,106.80" fill="#f7c963"/>
<polygon points="55.00,104.30 60.00,106.80 55.00,109.30 50.00,106.80" fill="#f7c963"/>
<polygon points="50.00,111.80 55.00,114.30 55.00,109.30 50.00,106.80" fill="#9f8140"/>
<polygon points="65.00,104.30 70.00,106.80 65.00,109.30 60.00,106.80" fill="#f7c963"/>
<polygon points="80.00,146.80 85.00,149.30 80.00,151.80 75.00,149.30" fill="#653f28"/>
<polygon points="55.00,119.30 60.00,121.80 60.00,116.80 55.00,114.30" fill="#9f8140"/>
<polygon points="80.00,106.80 85.00,109.30 80.00,111.80 75.00,109.30" fill="#f7c963"/>
<polygon points="90.00,106.80 95.00,109.30 90.00,111.80 85.00,109.30" fill="#f7c963"/>
<polygon points="60.00,106.80 65.00,109.30 60.00,111.80 55.00,109.30" fill="#f7c963"/>
<polygon points="55.00,114.30 60.00,116.80 60.00,111.80 55.00,109.30" fill="#9f8140"/>
<polygon points="70.00,106.80 75.00,109.30 70.00,111.80 65.00,109.30" fill="#f7c963"/>
<polygon points="100.00,156.80 95.00,159.30 95.00,154.30 100.00,151.80" fill="#4e311e"/>
<polygon points="75.00,149.30 80.00,151.80 75.00,154.30 70.00,151.80" fill="#653f28"/>
<polygon points="70.00,156.80 75.00,159.30 75.00,154.30 70.00,151.80" fill="#412919"/>
<polygon points="80.00,151.80 85.00,154.30 85.00,149.30 80.00,146.80" fill="#9f8140"/>
<polygon points="100.00,151.80 95.00,154.30 95.00,149.30 100.00,146.80" fill="#be9a4c"/>
<polygon points="80.00,146.80 85.00,149.30 85.00,144.30 80.00,141.80" fill="#9f8140"/>
<polygon points="100.00,146.80 95.00,149.30 95.00,144.30 100.00,141.80" fill="#be9a4c"/>
<polygon points="100.00,141.80 95.00,144.30 95.00,139.30 100.00,136.80" fill="#be9a4c"/>
<polygon points="60.00,121.80 65.00,124.30 65.00,119.30 60.00,116.80" fill="#9f8140"/>
<polygon points="75.00,109.30 80.00,111.80 75.00,114.30 70.00,111.80" fill="#f7c963"/>
<polygon points="85.00,109.30 90.00,111.80 85.00,114.30 80.00,111.80" fill="#f7c963"/>
<polygon points="95.00,109.30 100.00,111.80 95.00,114.30 90.00,111.80" fill="#f7c963"/>
<polygon points="65.00,109.30 70.00,111.80 65.00,114.30 60.00,111.80" fill="#f7c963"/>
<polygon points="60.00,116.80 65.00,119.30 65.00,114.30 60.00,111.80" fill="#9f8140"/>
<polygon points="95.00,159.30 90.00,161.80 90.00,156.80 95.00,154.30" fill="#4e311e"/>
<polygon points="80.00,151.80 85.00,154.30 80.00,156.80 75.00,154.30" fill="#653f28"/>
<polygon points="75.00,159.30 80.00,161.80 80.00,156.80 75.00,154.30" fill="#412919"/>
<polygon points="95.00,154.30 90.00,156.80 90.00,151.80 95.00,149.30" fill="#be9a4c"/>
<polygon points="85.00,154.30 90.00,156.80 90.00,151.80 85.00,149.30" fill="#9f8140"/>
<polygon points="95.00,149.30 90.00,151.80 90.00,146.80 95.00,144.30" fill="#be9a4c"/>
<polygon points="85.00,149.30 90.00,151.80 90.00,146.80 85.00,144.30" fill="#9f8140"/>
<polygon points="70.00,111.80 75.00,114.30 70.00,116.80 65.00,114.30" fill="#f7c963"/>
<polygon points="80.00,111.80 85.00,114.30 80.00,116.80 75.00,114.30" fill="#f7c963"/>
<polygon points="90.00,111.80 95.00,114.30 90.00,116.80 85.00,114.30" fill="#f7c963"/>
<polygon points="100.00,111.80 105.00,114.30 100.00,116.80 95.00,114.30" fill="#f7c963"/>
<polygon points="85.00,154.30 90.00,156.80 85.00,159.30 80.00,156.80" fill="#653f28"/>
<polygon points="90.00,161.80 85.00,164.30 85.00,159.30 90.00,156.80" fill="#4e311e"/>
<polygon points="80.00,161.80 85.00,164.30 85.00,159.30 80.00,156.80" fill="#412919"/>
<polygon points="65.00,114.30 70.00,116.80 65.00,119.30 60.00,116.80" fill="#f7c963"/>
<polygon points="75.00,114.30 80.00,116.80 75.00,119.30 70.00,116.80" fill="#f7c963"/>
<polygon points="85.00,114.30 90.00,116.80 85.00,119.30 80.00,116.80" fill="#f7c963"/>
<polygon points="95.00,114.30 100.00,116.80 95.00,119.30 90.00,116.80" fill="#f7c963"/>
<polygon points="105.00,114.30 110.00,116.80 105.00,119.30 100.00,116.80" fill="#f7c963"/>
<polygon points="60.00,156.80 65.00,159.30 60.00,161.80 55.00,159.30" fill="#653f28"/>
<polygon points="60.00,116.80 65.00,119.30 60.00,121.80 55.00,119.30" fill="#f7c963"/>
<polygon points="70.00,116.80 75.00,119.30 70.00,121.80 65.00,119.30" fill="#f7c963"/>
<polygon points="80.00,116.80 85.00,119.30 80.00,121.80 75.00,119.30" fill="#f7c963"/>
<polygon points="90.00,116.80 95.00,119.30 90.00,121.80 85.00,119.30" fill="#f7c963"/>
<polygon points="100.00,116.80 105.00,119.30 100.00,121.80 95.00,119.30" fill="#f7c963"/>
<polygon points="110.00,116.80 115.00,119.30 110.00,121.80 105.00,119.30" fill="#f7c963"/>
<polygon points="115.00,159.30 120.00,161.80 115.00,164.30 110.00,161.80" fill="#653f28"/>
<polygon points="55.00,159.30 60.00,161.80 55.00,164.30 50.00,161.80" fill="#653f28"/>
<polygon points="50.00,146.80 55.00,149.30 55.00,144.30 50.00,141.80" fill="#9f8140"/>
<polygon points="50.00,141.80 55.00,144.30 55.00,139.30 50.00,136.80" fill="#9f8140"/>
<polygon points="50.00,136.80 55.00,139.30 55.00,134.30 50.00,131.80" fill="#9f8140"/>
<polygon points="50.00,131.80 55.00,134.30 55.00,129.30 50.00,126.80" fill="#9f8140"/>
<polygon points="55.00,119.30 60.00,121.80 55.00,124.30 50.00,121.80" fill="#f7c963"/>
<polygon points="50.00,126.80 55.00,129.30 55.00,124.30 50.00,121.80" fill="#9f8140"/>
<polygon points="65.00,119.30 70.00,121.80 65.00,124.30 60.00,121.80" fill="#f7c963"/>
<polygon points="75.00,119.30 80.00,121.80 75.00,124.30 70.00,121.80" fill="#f7c963"/>
<polygon points="85.00,119.30 90.00,121.80 85.00,124.30 80.00,121.80" fill="#f7c963"/>
<polygon points="95.00,119.30 100.00,121.80 95.00,124.30 90.00,121.80" fill="#f7c963"/>
<polygon points="105.00,119.30 110.00,121.80 105.00,124.30 100.00,121.80" fill="#f7c963"/>
<polygon points="115.00,119.30 120.00,121.80 115.00,124.30 110.00,121.80" fill="#f7c963"/>
<polygon points="110.00,161.80 115.00,164.30 110.00,166.80 105.00,164.30" fill="#653f28"/>
<polygon points="75.00,169.30 70.00,171.80 70.00,166.80 75.00,164.30" fill="#4e311e"/>
<polygon points="50.00,161.80 55.00,164.30 50.00,166.80 45.00,164.30" fill="#653f28"/>
<polygon points="45.00,169.30 50.00,171.80 50.00,166.80 45.00,164.30" fill="#412919"/>
<polygon points="55.00,164.30 60.00,166.80 60.00,161.80 55.00,159.30" fill="#9f8140"/>
<polygon points="75.00,164.30 70.00,166.80 70.00,161.80 75.00,159.30" fill="#be9a4c"/>
<polygon points="55.00,159.30 60.00,161.80 60.00,156.80 55.00,154.30" fill="#9f8140"/>
<polygon points="75.00,159.30 70.00,161.80 70.00,156.80 75.00,154.30" fill="#be9a4c"/>
<polygon points="55.00,154.30 60.00,156.80 60.00,151.80 55.00,149.30" fill="#9f8140"/>
<polygon points="55.00,149.30 60.00,151.80 60.00,146.80 55.00,144.30" fill="#9f8140"/>
<polygon points="55.00,144.30 60.00,146.80 60.00,141.80 55.00,139.30" fill="#9f8140"/>
<polygon points="55.00,139.30 60.00,141.80 60.00,136.80 55.00,134.30" fill="#9f8140"/>
<polygon points="55.00,134.30 60.00,136.80 60.00,131.80 55.00,129.30" fill="#9f8140"/>
<polygon points="60.00,121.80 65.00,124.30 60.00,126.80 55.00,124.30" fill="#f7c963"/>
<polygon points="55.00,129.30 60.00,131.80 60.00,126.80 55.00,124.30" fill="#9f8140"/>
<polygon points="70.00,121.80 75.00,124.30 70.00,126.80 65.00,124.30" fill="#f7c963"/>
<polygon points="80.00,121.80 85.00,124.30 80.00,126.80 75.00,124.30" fill="#f7c963"/>
<polygon points="90.00,121.80 95.00,124.30 90.00,126.80 85.00,124.30" fill="#f7c963"/>
<polygon points="100.00,121.80 105.00,124.30 100.00,126.80 95.00,124.30" fill="#f7c963"/>
<polygon points="110.00,121.80 115.00,124.30 110.00,126.80 105.00,124.30" fill="#f7c963"/>
<polygon points="120.00,121.80 125.00,124.30 120.00,126.80 115.00,124.30" fill="#f7c963"/>
<polygon points="130.00,171.80 125.00,174.30 125.00,169.30 130.00,166.80" fill="#4e311e"/>
<polygon points="105.00,164.30 110.00,166.80 105.00,169.30 100.00,166.80" fill="#653f28"/>
<polygon points="100.00,171.80 105.00,174.30 105.00,169.30 100.00,166.80" fill="#412919"/>
<polygon points="70.00,171.80 65.00,174.30 65.00,169.30 70.00,166.80" fill="#4e311e"/>
<polygon points="55.00,164.30 60.00,166.80 55.00,169.30 50.00,166.80" fill="#653f28"/>
<polygon points="50.00,171.80 55.00,174.30 55.00,169.30 50.00,166.80" fill="#412919"/>
<polygon points="110.00,166.80 115.00,169.30 115.00,164.30 110.00,161.80" fill="#9f8140"/>
<polygon points="130.00,166.80 125.00,169.30 125.00,164.30 130.00,161.80" fill="#be9a4c"/>
<polygon points="70.00,166.80 65.00,169.30 65.00,164.30 70.00,161.80" fill="#be9a4c"/>
<polygon points="60.00,166.80 65.00,169.30 65.00,164.30 60.00,161.80" fill="#9f8140"/>
<polygon points="110.00,161.80 115.00,164.30 115.00,159.30 110.00,156.80" fill="#9f8140"/>
<polygon points="130.00,161.80 125.00,164.30 125.00,159.30 130.00,156.80" fill="#be9a4c"/>
<polygon points="70.00,161.80 65.00,164.30 65.00,159.30 70.00,156.80" fill="#be9a4c"/>
<polygon points="60.00,161.80 65.00,164.30 65.00,159.30 60.00,156.80" fill="#9f8140"/>
<polygon points="70.00,156.80 75.00,159.30 75.00,154.30 70.00,151.80" fill="#b19b60"/>
<polygon points="130.00,156.80 125.00,159.30 125.00,154.30 130.00,151.80" fill="#be9a4c"/>
<polygon points="70.00,156.80 65.00,159.30 65.00,154.30 70.00,151.80" fill="#be9a4c"/>
<polygon points="60.00,156.80 65.00,159.30 65.00,154.30 60.00,151.80" fill="#9f8140"/>
<polygon points="60.00,151.80 65.00,154.30 65.00,149.30 60.00,146.80" fill="#9f8140"/>
<polygon points="60.00,146.80 65.00,149.30 65.00,144.30 60.00,141.80" fill="#9f8140"/>
<polygon points="60.00,141.80 65.00,144.30 65.00,139.30 60.00,136.80" fill="#9f8140"/>
<polygon points="60.00,136.80 65.00,139.30 65.00,134.30 60.00,131.80" fill="#9f8140"/>
<polygon points="65.00,124.30 70.00,126.80 65.00,129.30 60.00,126.80" fill="#f7c963"/>
<polygon points="60.00,131.80 65.00,134.30 65.00,129.30 60.00,126.80" fill="#9f8140"/>
<polygon points="75.00,124.30 80.00,126.80 75.00,129.30 70.00,126.80" fill="#f7c963"/>
<polygon points="85.00,124.30 90.00,126.80 85.00,129.30 80.00,126.80" fill="#f7c963"/>
<polygon points="95.00,124.30 100.00,126.80 95.00,129.30 90.00,126.80" fill="#f7c963"/>
<polygon points="105.00,124.30 110.00,126.80 105.00,129.30 100.00,126.80" fill="#f7c963"/>
<polygon points="115.00,124.30 120.00,126.80 115.00,129.30 110.00,126.80" fill="#f7c963"/>
<polygon points="125.00,124.30 130.00,126.80 125.00,129.30 120.00,126.80" fill="#f7c963"/>
<polygon points="145.00,109.30 150.00,111.80 145.00,114.30 140.00,111.80" fill="#653f28"/>
<polygon points="125.00,174.30 120.00,176.80 120.00,171.80 125.00,169.30" fill="#4e311e"/>
<polygon points="110.00,166.80 115.00,169.30 110.00,171.80 105.00,169.30" fill="#653f28"/>
<polygon points="105.00,174.30 110.00,176.80 110.00,171.80 105.00,169.30" fill="#412919"/>
<polygon points="60.00,166.80 65.00,169.30 60.00,171.80 55.00,169.30" fill="#653f28"/>
<polygon points="65.00,174.30 60.00,176.80 60.00,171.80 65.00,169.30" fill="#4e311e"/>
<polygon points="55.00,174.30 60.00,176.80 60.00,171.80 55.00,169.30" fill="#412919"/>
<polygon points="125.00,169.30 120.00,171.80 120.00,166.80 125.00,164.30" fill="#be9a4c"/>
<polygon points="115.00,169.30 120.00,171.80 120.00,166.80 115.00,164.30" fill="#9f8140"/>
<polygon points="125.00,164.30 120.00,166.80 120.00,161.80 125.00,159.30" fill="#be9a4c"/>
<polygon points="115.00,164.30 120.00,166.80 120.00,161.80 115.00,159.30" fill="#9f8140"/>
<polygon points="75.00,159.30 80.00,161.80 80.00,156.80 75.00,154.30" fill="#b19b60"/>
<polygon points="65.00,154.30 70.00,156.80 70.00,151.80 65.00,149.30" fill="#9f8140"/>
<polygon points="65.00,149.30 70.00,151.80 70.00,146.80 65.00,144.30" fill="#9f8140"/>
<polygon points="65.00,144.30 70.00,146.80 70.00,141.80 65.00,139.30" fill="#9f8140"/>
<polygon points="155.00,144.30 150.00,146.80 150.00,141.80 155.00,139.30" fill="#4e311e"/>
<polygon points="65.00,139.30 70.00,141.80 70.00,136.80 65.00,134.30" fill="#9f8140"/>
<polygon points="155.00,139.30 150.00,141.80 150.00,136.80 155.00,134.30" fill="#4e311e"/>
<polygon points="70.00,126.80 75.00,129.30 70.00,131.80 65.00,129.30" fill="#f7c963"/>
<polygon points="65.00,134.30 70.00,136.80 70.00,131.80 65.00,129.30" fill="#9f8140"/>
<polygon points="80.00,126.80 85.00,129.30 80.00,131.80 75.00,129.30" fill="#f7c963"/>
<polygon points="90.00,126.80 95.00,129.30 90.00,131.80 85.00,129.30" fill="#f7c963"/>
<polygon points="100.00,126.80 105.00,129.30 100.00,131.80 95.00,129.30" fill="#f7c963"/>
<polygon points="110.00,126.80 115.00,129.30 110.00,131.80 105.00,129.30" fill="#f7c963"/>
<polygon points="120.00,126.80 125.00,129.30 120.00,131.80 115.00,129.30" fill="#f7c963"/>
<polygon points="155.00,134.30 150.00,136.80 150.00,131.80 155.00,129.30" fill="#4e311e"/>
<polygon points="155.00,129.30 150.00,131.80 150.00,126.80 155.00,124.30" fill="#4e311e"/>
<polygon points="130.00,121.80 135.00,124.30 130.00,126.80 125.00,124.30" fill="#429fef"/>
<polygon points="155.00,124.30 150.00,126.80 150.00,121.80 155.00,119.30" fill="#4e311e"/>
<polygon points="140.00,111.80 145.00,114.30 140.00,116.80 135.00,114.30" fill="#653f28"/>
<polygon points="150.00,111.80 155.00,114.30 150.00,116.80 145.00,114.30" fill="#653f28"/>
<polygon points="155.00,119.30 150.00,121.80 150.00,116.80 155.00,114.30" fill="#4e311e"/>
<polygon points="115.00,169.30 120.00,171.80 115.00,174.30 110.00,171.80" fill="#653f28"/>
<polygon points="120.00,176.80 115.00,179.30 115.00,174.30 120.00,171.80" fill="#4e311e"/>
<polygon points="110.00,176.80 115.00,179.30 115.00,174.30 110.00,171.80" fill="#412919"/>
<polygon points="80.00,161.80 85.00,164.30 85.00,159.30 80.00,156.80" fill="#b19b60"/>
<polygon points="130.00,161.80 125.00,164.30 125.00,159.30 130.00,156.80" fill="#d3b973"/>
<polygon points="70.00,156.80 75.00,159.30 75.00,154.30 70.00,151.80" fill="#9f8140"/>
<polygon points="140.00,156.80 135.00,159.30 135.00,154.30 140.00,151.80" fill="#be9a4c"/>
<polygon points="70.00,151.80 75.00,154.30 75.00,149.30 70.00,146.80" fill="#9f8140"/>
<polygon points="140.00,151.80 135.00,154.30 135.00,149.30 140.00,146.80" fill="#be9a4c"/>
<polygon points="70.00,146.80 75.00,149.30 75.00,144.30 70.00,141.80" fill="#9f8140"/>
<polygon points="140.00,146.80 135.00,149.30 135.00,144.30 140.00,141.80" fill="#be9a4c"/>
<polygon points="150.00,146.80 145.00,149.30 145.00,144.30 150.00,141.80" fill="#4e311e"/>
<polygon points="140.00,146.80 145.00,149.30 145.00,144.30 140.00,141.80" fill="#412919"/>
<polygon points="70.00,141.80 75.00,144.30 75.00,139.30 70.00,136.80" fill="#9f8140"/>
<polygon points="140.00,141.80 135.00,144.30 135.00,139.30 140.00,136.80" fill="#be9a4c"/>
<polygon points="150.00,141.80 145.00,144.30 145.00,139.30 150.00,136.80" fill="#4e311e"/>
<polygon points="140.00,141.80 145.00,144.30 145.00,139.30 140.00,136.80" fill="#412919"/>
<polygon points="75.00,129.30 80.00,131.80 75.00,134.30 70.00,131.80" fill="#f7c963"/>
<polygon points="70.00,136.80 75.00,139.30 75.00,134.30 70.00,131.80" fill="#9f8140"/>
<polygon points="85.00,129.30 90.00,131.80 85.00,134.30 80.00,131.80" fill="#f7c963"/>
<polygon points="95.00,129.30 100.00,131.80 95.00,134.30 90.00,131.80" fill="#f7c963"/>
<polygon points="105.00,129.30 110.00,131.80 105.00,134.30 100.00,131.80" fill="#f7c963"/>
<polygon points="115.00,129.30 120.00,131.80 115.00,134.30 110.00,131.80" fill="#f7c963"/>
<polygon points="150.00,136.80 145.00,139.30 145.00,134.30 150.00,131.80" fill="#4e311e"/>
<polygon points="150.00,131.80 145.00,134.30 145.00,129.30 150.00,126.80" fill="#4e311e"/>
<polygon points="125.00,124.30 130.00,126.80 125.00,129.30 120.00,126.80" fill="#429fef"/>
<polygon points="150.00,126.80 145.00,129.30 145.00,124.30 150.00,121.80" fill="#4e311e"/>
<polygon points="145.00,114.30 150.00,116.80 145.00,119.30 140.00,116.80" fill="#653f28"/>
<polygon points="150.00,121.80 145.00,124.30 145.00,119.30 150.00,116.80" fill="#4e311e"/>
<polygon points="135.00,109.30 140.00,111.80 135.00,114.30 130.00,111.80" fill="#f7c963"/>
<polygon points="90.00,171.80 95.00,174.30 90.00,176.80 85.00,174.30" fill="#653f28"/>
<polygon points="85.00,164.30 90.00,166.80 90.00,161.80 85.00,159.30" fill="#b19b60"/>
<polygon points="125.00,164.30 120.00,166.80 120.00,161.80 125.00,159.30" fill="#d3b973"/>
<polygon points="75.00,159.30 80.00,161.80 80.00,156.80 75.00,154.30" fill="#9f8140"/>
<polygon points="135.00,159.30 130.00,161.80 130.00,156.80 135.00,154.30" fill="#be9a4c"/>
<polygon points="75.00,154.30 80.00,156.80 80.00,151.80 75.00,149.30" fill="#9f8140"/>
<polygon points="135.00,154.30 130.00,156.80 130.00,151.80 135.00,149.30" fill="#be9a4c"/>
<polygon points="75.00,149.30 80.00,151.80 80.00,146.80 75.00,144.30" fill="#9f8140"/>
<polygon points="135.00,149.30 130.00,151.80 130.00,146.80 135.00,144.30" fill="#be9a4c"/>
<polygon points="75.00,144.30 80.00,146.80 80.00,141.80 75.00,139.30" fill="#9f8140"/>
<polygon points="135.00,144.30 130.00,146.80 130.00,141.80 135.00,139.30" fill="#be9a4c"/>
<polygon points="80.00,131.80 85.00,134.30 80.00,136.80 75.00,134.30" fill="#f7c963"/>
<polygon points="75.00,139.30 80.00,141.80 80.00,136.80 75.00,134.30" fill="#9f8140"/>
<polygon points="90.00,131.80 95.00,134.30 90.00,136.80 85.00,134.30" fill="#f7c963"/>
<polygon points="100.00,131.80 105.00,134.30 100.00,136.80 95.00,134.30" fill="#f7c963"/>
<polygon points="110.00,131.80 115.00,134.30 110.00,136.80 105.00,134.30" fill="#f7c963"/>
<polygon points="120.00,126.80 125.00,129.30 120.00,131.80 115.00,129.30" fill="#429fef"/>
<polygon points="130.00,111.80 135.00,114.30 130.00,116.80 125.00,114.30" fill="#f7c963"/>
<polygon points="140.00,111.80 145.00,114.30 140.00,116.80 135.00,114.30" fill="#f7c963"/>
<polygon points="85.00,174.30 90.00,176.80 85.00,179.30 80.00,176.80" fill="#653f28"/>
<polygon points="120.00,166.80 115.00,169.30 115.00,164.30 120.00,161.80" fill="#d3b973"/>
<polygon points="80.00,161.80 85.00,164.30 85.00,159.30 80.00,156.80" fill="#9f8140"/>
<polygon points="130.00,161.80 125.00,164.30 125.00,159.30 130.00,156.80" fill="#be9a4c"/>
<polygon points="80.00,156.80 85.00,159.30 85.00,154.30 80.00,151.80" fill="#9f8140"/>
<polygon points="130.00,156.80 125.00,159.30 125.00,154.30 130.00,151.80" fill="#be9a4c"/>
<polygon points="80.00,151.80 85.00,154.30 85.00,149.30 80.00,146.80" fill="#9f8140"/>
<polygon points="130.00,151.80 125.00,154.30 125.00,149.30 130.00,146.80" fill="#be9a4c"/>
<polygon points="80.00,146.80 85.00,149.30 85.00,144.30 80.00,141.80" fill="#9f8140"/>
<polygon points="130.00,146.80 125.00,149.30 125.00,144.30 130.00,141.80" fill="#be9a4c"/>
<polygon points="85.00,134.30 90.00,136.80 85.00,139.30 80.00,136.80" fill="#f7c963"/>
<polygon points="80.00,141.80 85.00,144.30 85.00,139.30 80.00,136.80" fill="#9f8140"/>
<polygon points="95.00,134.30 100.00,136.80 95.00,139.30 90.00,136.80" fill="#f7c963"/>
<polygon points="105.00,134.30 110.00,136.80 105.00,139.30 100.00,136.80" fill="#f7c963"/>
<polygon points="115.00,129.30 120.00,131.80 115.00,134.30 110.00,131.80" fill="#429fef"/>
<polygon points="125.00,114.30 130.00,116.80 125.00,119.30 120.00,116.80" fill="#f7c963"/>
<polygon points="135.00,114.30 140.00,116.80 135.00,119.30 130.00,116.80" fill="#f7c963"/>
<polygon points="145.00,114.30 150.00,116.80 145.00,119.30 140.00,116.80" fill="#f7c963"/>
<polygon points="105.00,184.30 100.00,186.80 100.00,181.80 105.00,179.30" fill="#4e311e"/>
<polygon points="80.00,176.80 85.00,179.30 80.00,181.80 75.00,179.30" fill="#653f28"/>
<polygon points="75.00,184.30 80.00,186.80 80.00,181.80 75.00,179.30" fill="#412919"/>
<polygon points="85.00,179.30 90.00,181.80 90.00,176.80 85.00,174.30" fill="#9f8140"/>
<polygon points="105.00,179.30 100.00,181.80 100.00,176.80 105.00,174.30" fill="#be9a4c"/>
<polygon points="85.00,174.30 90.00,176.80 90.00,171.80 85.00,169.30" fill="#9f8140"/>
<polygon points="105.00,174.30 100.00,176.80 100.00,171.80 105.00,169.30" fill="#be9a4c"/>
<polygon points="115.00,169.30 110.00,171.80 110.00,166.80 115.00,164.30" fill="#d3b973"/>
<polygon points="85.00,169.30 90.00,171.80 90.00,166.80 85.00,164.30" fill="#9f8140"/>
<polygon points="85.00,164.30 90.00,166.80 90.00,161.80 85.00,159.30" fill="#9f8140"/>
<polygon points="125.00,164.30 120.00,166.80 120.00,161.80 125.00,159.30" fill="#be9a4c"/>
<polygon points="85.00,159.30 90.00,161.80 90.00,156.80 85.00,154.30" fill="#9f8140"/>
<polygon points="125.00,159.30 120.00,161.80 120.00,156.80 125.00,154.30" fill="#be9a4c"/>
<polygon points="85.00,154.30 90.00,156.80 90.00,151.80 85.00,149.30" fill="#9f8140"/>
<polygon points="125.00,154.30 120.00,156.80 120.00,151.80 125.00,149.30" fill="#be9a4c"/>
<polygon points="85.00,149.30 90.00,151.80 90.00,146.80 85.00,144.30" fill="#9f8140"/>
<polygon points="125.00,149.30 120.00,151.80 120.00,146.80 125.00,144.30" fill="#be9a4c"/>
<polygon points="90.00,136.80 95.00,139.30 90.00,141.80 85.00,139.30" fill="#f7c963"/>
<polygon points="85.00,144.30 90.00,146.80 90.00,141.80 85.00,139.30" fill="#9f8140"/>
<polygon points="100.00,136.80 105.00,139.30 100.00,141.80 95.00,139.30" fill="#f7c963"/>
<polygon points="110.00,131.80 115.00,134.30 110.00,136.80 105.00,134.30" fill="#429fef"/>
<polygon points="120.00,116.80 125.00,119.30 120.00,121.80 115.00,119.30" fill="#f7c963"/>
<polygon points="130.00,116.80 135.00,119.30 130.00,121.80 125.00,119.30" fill="#f7c963"/>
<polygon points="140.00,116.80 145.00,119.30 140.00,121.80 135.00,119.30" fill="#f7c963"/>
<polygon points="150.00,116.80 155.00,119.30 150.00,121.80 145.00,119.30" fill="#f7c963"/>
<polygon points="100.00,186.80 95.00,189.30 95.00,184.30 100.00,181.80" fill="#4e311e"/>
<polygon points="85.00,179.30 90.00,181.80 85.00,184.30 80.00,181.80" fill="#653f28"/>
<polygon points="80.00,186.80 85.00,189.30 85.00,184.30 80.00,181.80" fill="#412919"/>
<polygon points="100.00,181.80 95.00,184.30 95.00,179.30 100.00,176.80" fill="#be9a4c"/>
<polygon points="90.00,181.80 95.00,184.30 95.00,179.30 90.00,176.80" fill="#9f8140"/>
<polygon points="100.00,176.80 95.00,179.30 95.00,174.30 100.00,171.80" fill="#be9a4c"/>
<polygon points="90.00,176.80 95.00,179.30 95.00,174.30 90.00,171.80" fill="#9f8140"/>
<polygon points="110.00,171.80 105.00,174.30 105.00,169.30 110.00,166.80" fill="#d3b973"/>
<polygon points="100.00,171.80 105.00,174.30 105.00,169.30 100.00,166.80" fill="#b19b60"/>
<polygon points="100.00,171.80 95.00,174.30 95.00,169.30 100.00,166.80" fill="#be9a4c"/>
<polygon points="90.00,171.80 95.00,174.30 95.00,169.30 90.00,166.80" fill="#9f8140"/>
<polygon points="90.00,166.80 95.00,169.30 95.00,164.30 90.00,161.80" fill="#9f8140"/>
<polygon points="120.00,166.80 115.00,169.30 115.00,164.30 120.00,161.80" fill="#be9a4c"/>
<polygon points="90.00,161.80 95.00,164.30 95.00,159.30 90.00,156.80" fill="#9f8140"/>
<polygon points="120.00,161.80 115.00,164.30 115.00,159.30 120.00,156.80" fill="#be9a4c"/>
<polygon points="90.00,156.80 95.00,159.30 95.00,154.30 90.00,151.80" fill="#9f8140"/>
<polygon points="120.00,156.80 115.00,159.30 115.00,154.30 120.00,151.80" fill="#be9a4c"/>
<polygon points="90.00,151.80 95.00,154.30 95.00,149.30 90.00,146.80" fill="#9f8140"/>
<polygon points="120.00,151.80 115.00,154.30 115.00,149.30 120.00,146.80" fill="#be9a4c"/>
<polygon points="95.00,139.30 100.00,141.80 95.00,144.30 90.00,141.80" fill="#f7c963"/>
<polygon points="90.00,146.80 95.00,149.30 95.00,144.30 90.00,141.80" fill="#9f8140"/>
<polygon points="160.00,146.80 155.00,149.30 155.00,144.30 160.00,141.80" fill="#be9a4c"/>
<polygon points="160.00,141.80 155.00,144.30 155.00,139.30 160.00,136.80" fill="#be9a4c"/>
<polygon points="105.00,134.30 110.00,136.80 105.00,139.30 100.00,136.80" fill="#429fef"/>
<polygon points="100.00,141.80 105.00,144.30 105.00,139.30 100.00,136.80" fill="#2a669a"/>
<polygon points="160.00,136.80 155.00,139.30 155.00,134.30 160.00,131.80" fill="#be9a4c"/>
<polygon points="160.00,131.80 155.00,134.30 155.00,129.30 160.00,126.80" fill="#be9a4c"/>
<polygon points="115.00,119.30 120.00,121.80 115.00,124.30 110.00,121.80" fill="#f7c963"/>
<polygon points="125.00,119.30 130.00,121.80 125.00,124.30 120.00,121.80" fill="#f7c963"/>
<polygon points="135.00,119.30 140.00,121.80 135.00,124.30 130.00,121.80" fill="#f7c963"/>
<polygon points="145.00,119.30 150.00,121.80 145.00,124.30 140.00,121.80" fill="#f7c963"/>
<polygon points="155.00,119.30 160.00,121.80 155.00,124.30 150.00,121.80" fill="#f7c963"/>
<polygon points="160.00,126.80 155.00,129.30 155.00,124.30 160.00,121.80" fill="#be9a4c"/>
<polygon points="90.00,181.80 95.00,184.30 90.00,186.80 85.00,184.30" fill="#653f28"/>
<polygon points="95.00,189.30 90.00,191.80 90.00,186.80 95.00,184.30" fill="#4e311e"/>
<polygon points="85.00,189.30 90.00,191.80 90.00,186.80 85.00,184.30" fill="#412919"/>
<polygon points="95.00,169.30 100.00,171.80 100.00,166.80 95.00,164.30" fill="#9f8140"/>
<polygon points="115.00,169.30 110.00,171.80 110.00,166.80 115.00,164.30" fill="#be9a4c"/>
<polygon points="95.00,164.30 100.00,166.80 100.00,161.80 95.00,159.30" fill="#9f8140"/>
<polygon points="115.00,164.30 110.00,166.80 110.00,161.80 115.00,159.30" fill="#be9a4c"/>
<polygon points="95.00,159.30 100.00,161.80 100.00,156.80 95.00,154.30" fill="#9f8140"/>
<polygon points="115.00,159.30 110.00,161.80 110.00,156.80 115.00,154.30" fill="#be9a4c"/>
<polygon points="95.00,154.30 100.00,156.80 100.00,151.80 95.00,149.30" fill="#9f8140"/>
<polygon points="115.00,154.30 110.00,156.80 110.00,151.80 115.00,149.30" fill="#be9a4c"/>
<polygon points="100.00,141.80 105.00,144.30 100.00,146.80 95.00,144.30" fill="#f7c963"/>
<polygon points="95.00,149.30 100.00,151.80 100.00,146.80 95.00,144.30" fill="#9f8140"/>
<polygon points="155.00,134.30 150.00,136.80 150.00,131.80 155.00,129.30" fill="#be9a4c"/>
<polygon points="110.00,121.80 115.00,124.30 110.00,126.80 105.00,124.30" fill="#f7c963"/>
<polygon points="105.00,129.30 110.00,131.80 110.00,126.80 105.00,124.30" fill="#9f8140"/>
<polygon points="120.00,121.80 125.00,124.30 120.00,126.80 115.00,124.30" fill="#f7c963"/>
<polygon points="130.00,121.80 135.00,124.30 130.00,126.80 125.00,124.30" fill="#f7c963"/>
<polygon points="140.00,121.80 145.00,124.30 140.00,126.80 135.00,124.30" fill="#f7c963"/>
<polygon points="150.00,121.80 155.00,124.30 150.00,126.80 145.00,124.30" fill="#f7c963"/>
<polygon points="155.00,129.30 150.00,131.80 150.00,126.80 155.00,124.30" fill="#be9a4c"/>
<polygon points="110.00,171.80 105.00,174.30 105.00,169.30 110.00,166.80" fill="#be9a4c"/>
<polygon points="100.00,171.80 105.00,174.30 105.00,169.30 100.00,166.80" fill="#9f8140"/>
<polygon points="110.00,166.80 105.00,169.30 105.00,164.30 110.00,161.80" fill="#be9a4c"/>
<polygon points="100.00,166.80 105.00,169.30 105.00,164.30 100.00,161.80" fill="#9f8140"/>
<polygon points="150.00,141.80 145.00,144.30 145.00,139.30 150.00,136.80" fill="#be9a4c"/>
<polygon points="155.00,134.30 160.00,136.80 155.00,139.30 150.00,136.80" fill="#22262a"/>
<polygon points="160.00,141.80 155.00,144.30 155.00,139.30 160.00,136.80" fill="#1a1d20"/>
<polygon points="150.00,141.80 155.00,144.30 155.00,139.30 150.00,136.80" fill="#16181b"/>
<polygon points="150.00,136.80 145.00,139.30 145.00,134.30 150.00,131.80" fill="#be9a4c"/>
<polygon points="105.00,129.30 110.00,131.80 105.00,134.30 100.00,131.80" fill="#653f28"/>
<polygon points="115.00,124.30 120.00,126.80 115.00,129.30 110.00,126.80" fill="#f7c963"/>
<polygon points="110.00,131.80 115.00,134.30 115.00,129.30 110.00,126.80" fill="#9f8140"/>
<polygon points="125.00,124.30 130.00,126.80 125.00,129.30 120.00,126.80" fill="#f7c963"/>
<polygon points="135.00,124.30 140.00,126.80 135.00,129.30 130.00,126.80" fill="#f7c963"/>
<polygon points="145.00,124.30 150.00,126.80 145.00,129.30 140.00,126.80" fill="#f7c963"/>
<polygon points="150.00,131.80 145.00,134.30 145.00,129.30 150.00,126.80" fill="#be9a4c"/>
<polygon points="95.00,164.30 100.00,166.80 100.00,161.80 95.00,159.30" fill="#412919"/>
<polygon points="115.00,164.30 110.00,166.80 110.00,161.80 115.00,159.30" fill="#4e311e"/>
<polygon points="95.00,159.30 100.00,161.80 100.00,156.80 95.00,154.30" fill="#412919"/>
<polygon points="115.00,159.30 110.00,161.80 110.00,156.80 115.00,154.30" fill="#4e311e"/>
<polygon points="115.00,154.30 120.00,156.80 120.00,151.80 115.00,149.30" fill="#9f8140"/>
<polygon points="95.00,154.30 100.00,156.80 100.00,151.80 95.00,149.30" fill="#412919"/>
<polygon points="115.00,154.30 110.00,156.80 110.00,151.80 115.00,149.30" fill="#4e311e"/>
<polygon points="115.00,149.30 120.00,151.80 120.00,146.80 115.00,144.30" fill="#9f8140"/>
<polygon points="150.00,141.80 155.00,144.30 150.00,146.80 145.00,144.30" fill="#fffcc7"/>
<polygon points="160.00,141.80 165.00,144.30 160.00,146.80 155.00,144.30" fill="#fffcc7"/>
<polygon points="95.00,149.30 100.00,151.80 100.00,146.80 95.00,144.30" fill="#412919"/>
<polygon points="115.00,149.30 110.00,151.80 110.00,146.80 115.00,144.30" fill="#4e311e"/>
<polygon points="115.00,144.30 120.00,146.80 120.00,141.80 115.00,139.30" fill="#9f8140"/>
<polygon points="145.00,144.30 140.00,146.80 140.00,141.80 145.00,139.30" fill="#be9a4c"/>
<polygon points="95.00,144.30 100.00,146.80 100.00,141.80 95.00,139.30" fill="#412919"/>
<polygon points="115.00,144.30 110.00,146.80 110.00,141.80 115.00,139.30" fill="#4e311e"/>
<polygon points="115.00,139.30 120.00,141.80 120.00,136.80 115.00,134.30" fill="#9f8140"/>
<polygon points="145.00,139.30 140.00,141.80 140.00,136.80 145.00,134.30" fill="#be9a4c"/>
<polygon points="100.00,131.80 105.00,134.30 100.00,136.80 95.00,134.30" fill="#653f28"/>
<polygon points="95.00,139.30 100.00,141.80 100.00,136.80 95.00,134.30" fill="#412919"/>
<polygon points="110.00,131.80 115.00,134.30 110.00,136.80 105.00,134.30" fill="#653f28"/>
<polygon points="115.00,139.30 110.00,141.80 110.00,136.80 115.00,134.30" fill="#4e311e"/>
<polygon points="120.00,126.80 125.00,129.30 120.00,131.80 115.00,129.30" fill="#f7c963"/>
<polygon points="115.00,134.30 120.00,136.80 120.00,131.80 115.00,129.30" fill="#9f8140"/>
<polygon points="130.00,126.80 135.00,129.30 130.00,131.80 125.00,129.30" fill="#f7c963"/>
<polygon points="140.00,126.80 145.00,129.30 140.00,131.80 135.00,129.30" fill="#f7c963"/>
<polygon points="145.00,134.30 140.00,136.80 140.00,131.80 145.00,129.30" fill="#be9a4c"/>
<polygon points="110.00,166.80 105.00,169.30 105.00,164.30 110.00,161.80" fill="#4e311e"/>
<polygon points="100.00,166.80 105.00,169.30 105.00,164.30 100.00,161.80" fill="#412919"/>
<polygon points="130.00,161.80 135.00,164.30 135.00,159.30 130.00,156.80" fill="#b0a280"/>
<polygon points="170.00,161.80 165.00,164.30 165.00,159.30 170.00,156.80" fill="#d2c199"/>
<polygon points="110.00,161.80 105.00,164.30 105.00,159.30 110.00,156.80" fill="#4e311e"/>
<polygon points="100.00,161.80 105.00,164.30 105.00,159.30 100.00,156.80" fill="#412919"/>
<polygon points="120.00,156.80 125.00,159.30 125.00,154.30 120.00,151.80" fill="#9f8140"/>
<polygon points="170.00,156.80 165.00,159.30 165.00,154.30 170.00,151.80" fill="#d2c199"/>
<polygon points="110.00,156.80 105.00,159.30 105.00,154.30 110.00,151.80" fill="#4e311e"/>
<polygon points="100.00,156.80 105.00,159.30 105.00,154.30 100.00,151.80" fill="#412919"/>
<polygon points="120.00,151.80 125.00,154.30 125.00,149.30 120.00,146.80" fill="#9f8140"/>
<polygon points="145.00,144.30 150.00,146.80 145.00,149.30 140.00,146.80" fill="#fffcc7"/>
<polygon points="155.00,144.30 160.00,146.80 155.00,149.30 150.00,146.80" fill="#22262a"/>
<polygon points="165.00,144.30 170.00,146.80 165.00,149.30 160.00,146.80" fill="#fffcc7"/>
<polygon points="170.00,151.80 165.00,154.30 165.00,149.30 170.00,146.80" fill="#d2c199"/>
<polygon points="110.00,151.80 105.00,154.30 105.00,149.30 110.00,146.80" fill="#4e311e"/>
<polygon points="100.00,151.80 105.00,154.30 105.00,149.30 100.00,146.80" fill="#412919"/>
<polygon points="120.00,146.80 125.00,149.30 125.00,144.30 120.00,141.80" fill="#9f8140"/>
<polygon points="110.00,146.80 105.00,149.30 105.00,144.30 110.00,141.80" fill="#4e311e"/>
<polygon points="100.00,146.80 105.00,149.30 105.00,144.30 100.00,141.80" fill="#412919"/>
<polygon points="120.00,141.80 125.00,144.30 125.00,139.30 120.00,136.80" fill="#9f8140"/>
<polygon points="140.00,141.80 135.00,144.30 135.00,139.30 140.00,136.80" fill="#be9a4c"/>
<polygon points="105.00,134.30 110.00,136.80 105.00,139.30 100.00,136.80" fill="#653f28"/>
<polygon points="110.00,141.80 105.00,144.30 105.00,139.30 110.00,136.80" fill="#4e311e"/>
<polygon points="100.00,141.80 105.00,144.30 105.00,139.30 100.00,136.80" fill="#412919"/>
<polygon points="125.00,129.30 130.00,131.80 125.00,134.30 120.00,131.80" fill="#f7c963"/>
<polygon points="120.00,136.80 125.00,139.30 125.00,134.30 120.00,131.80" fill="#9f8140"/>
<polygon points="135.00,129.30 140.00,131.80 135.00,134.30 130.00,131.80" fill="#f7c963"/>
<polygon points="140.00,136.80 135.00,139.30 135.00,134.30 140.00,131.80" fill="#be9a4c"/>
<polygon points="135.00,164.30 140.00,166.80 140.00,161.80 135.00,159.30" fill="#b0a280"/>
<polygon points="165.00,164.30 160.00,166.80 160.00,161.80 165.00,159.30" fill="#d2c199"/>
<polygon points="135.00,159.30 130.00,161.80 130.00,156.80 135.00,154.30" fill="#be9a4c"/>
<polygon points="125.00,159.30 130.00,161.80 130.00,156.80 125.00,154.30" fill="#9f8140"/>
<polygon points="135.00,159.30 140.00,161.80 140.00,156.80 135.00,154.30" fill="#b0a280"/>
<polygon points="165.00,159.30 160.00,161.80 160.00,156.80 165.00,154.30" fill="#1a1d20"/>
<polygon points="135.00,154.30 130.00,156.80 130.00,151.80 135.00,149.30" fill="#be9a4c"/>
<polygon points="125.00,154.30 130.00,156.80 130.00,151.80 125.00,149.30" fill="#9f8140"/>
<polygon points="135.00,154.30 140.00,156.80 140.00,151.80 135.00,149.30" fill="#b0a280"/>
<polygon points="150.00,146.80 155.00,149.30 150.00,151.80 145.00,149.30" fill="#22262a"/>
<polygon points="160.00,146.80 165.00,149.30 160.00,151.80 155.00,149.30" fill="#22262a"/>
<polygon points="165.00,154.30 160.00,156.80 160.00,151.80 165.00,149.30" fill="#1a1d20"/>
<polygon points="135.00,149.30 130.00,151.80 130.00,146.80 135.00,144.30" fill="#be9a4c"/>
<polygon points="125.00,149.30 130.00,151.80 130.00,146.80 125.00,144.30" fill="#9f8140"/>
<polygon points="140.00,141.80 145.00,144.30 140.00,146.80 135.00,144.30" fill="#22262a"/>
<polygon points="145.00,149.30 140.00,151.80 140.00,146.80 145.00,144.30" fill="#1a1d20"/>
<polygon points="135.00,149.30 140.00,151.80 140.00,146.80 135.00,144.30" fill="#16181b"/>
<polygon points="135.00,144.30 130.00,146.80 130.00,141.80 135.00,139.30" fill="#be9a4c"/>
<polygon points="125.00,144.30 130.00,146.80 130.00,141.80 125.00,139.30" fill="#9f8140"/>
<polygon points="130.00,131.80 135.00,134.30 130.00,136.80 125.00,134.30" fill="#f7c963"/>
<polygon points="135.00,139.30 130.00,141.80 130.00,136.80 135.00,134.30" fill="#be9a4c"/>
<polygon points="125.00,139.30 130.00,141.80 130.00,136.80 125.00,134.30" fill="#9f8140"/>
<polygon points="140.00,166.80 145.00,169.30 145.00,164.30 140.00,161.80" fill="#b0a280"/>
<polygon points="160.00,166.80 155.00,169.30 155.00,164.30 160.00,161.80" fill="#d2c199"/>
<polygon points="140.00,161.80 145.00,164.30 145.00,159.30 140.00,156.80" fill="#b0a280"/>
<polygon points="160.00,161.80 155.00,164.30 155.00,159.30 160.00,156.80" fill="#1a1d20"/>
<polygon points="145.00,149.30 150.00,151.80 145.00,154.30 140.00,151.80" fill="#fffcc7"/>
<polygon points="140.00,156.80 145.00,159.30 145.00,154.30 140.00,151.80" fill="#b0a280"/>
<polygon points="155.00,149.30 160.00,151.80 155.00,154.30 150.00,151.80" fill="#22262a"/>
<polygon points="160.00,156.80 155.00,159.30 155.00,154.30 160.00,151.80" fill="#1a1d20"/>
<polygon points="155.00,169.30 150.00,171.80 150.00,166.80 155.00,164.30" fill="#d2c199"/>
<polygon points="145.00,169.30 150.00,171.80 150.00,166.80 145.00,164.30" fill="#b0a280"/>
<polygon points="155.00,164.30 150.00,166.80 150.00,161.80 155.00,159.30" fill="#d2c199"/>
<polygon points="145.00,164.30 150.00,166.80 150.00,161.80 145.00,159.30" fill="#b0a280"/>
<polygon points="150.00,151.80 155.00,154.30 150.00,156.80 145.00,154.30" fill="#fffcc7"/>
<polygon points="155.00,159.30 150.00,161.80 150.00,156.80 155.00,154.30" fill="#d2c199"/>
<polygon points="145.00,159.30 150.00,161.80 150.00,156.80 145.00,154.30" fill="#b0a280"/>
<text x="12" y="174">dog_golden</text>
</svg>