<svg xmlns="http://www.w3.org/2000/svg" width="1260" height="760" viewBox="0 0 1260 760">
<rect width="100%" height="100%" fill="#f4f1e9"/>
<style>text{font:12px Arial, sans-serif;fill:#606060}</style>
<polygon points="55.00,101.80 60.00,104.30 55.00,106.80 50.00,104.30" fill="#f7c963"/>
<polygon points="45.00,116.80 50.00,119.30 50.00,114.30 45.00,111.80" fill="#9f8140"/>
<polygon points="65.00,116.80 60.00,119.30 60.00,114.30 65.00,111.80" fill="#be9a4c"/>
<polygon points="50.00,104.30 55.00,106.80 50.00,109.30 45.00,106.80" fill="#f7c963"/>
<polygon points="45.00,111.80 50.00,114.30 50.00,109.30 45.00,106.80" fill="#9f8140"/>
<polygon points="60.00,99.30 65.00,101.80 60.00,104.30 55.00,101.80" fill="#f7c963"/>
<polygon points="85.00,146.80 90.00,149.30 85.00,151.80 80.00,149.30" fill="#653f28"/>
<polygon points="60.00,119.30 55.00,121.80 55.00,116.80 60.00,114.30" fill="#be9a4c"/>
<polygon points="50.00,119.30 55.00,121.80 55.00,116.80 50.00,114.30" fill="#9f8140"/>
<polygon points="50.00,114.30 55.00,116.80 55.00,111.80 50.00,109.30" fill="#9f8140"/>
<polygon points="85.00,101.80 90.00,104.30 85.00,106.80 80.00,104.30" fill="#f7c963"/>
<polygon points="55.00,101.80 60.00,104.30 55.00,106.80 50.00,104.30" fill="#f7c963"/>
<polygon points="50.00,109.30 55.00,111.80 55.00,106.80 50.00,104.30" fill="#9f8140"/>
<polygon points="65.00,101.80 70.00,104.30 65.00,106.80 60.00,104.30" fill="#f7c963"/>
<polygon points="80.00,149.30 85.00,151.80 80.00,154.30 75.00,151.80" fill="#653f28"/>
<polygon points="55.00,116.80 60.00,119.30 60.00,114.30 55.00,111.80" fill="#9f8140"/>
<polygon points="80.00,104.30 85.00,106.80 80.00,109.30 75.00,106.80" fill="#f7c963"/>
<polygon points="90.00,104.30 95.00,106.80 90.00,109.30 85.00,106.80" fill="#f7c963"/>
<polygon points="60.00,104.30 65.00,106.80 60.00,109.30 55.00,106.80" fill="#f7c963"/>
<polygon points="55.00,111.80 60.00,114.30 60.00,109.30 55.00,106.80" fill="#9f8140"/>
<polygon points="70.00,104.30 75.00,106.80 70.00,109.30 65.00,106.80" fill="#f7c963"/>
<polygon points="100.00,99.30 105.00,101.80 100.00,104.30 95.00,101.80" fill="#fff196"/>
<polygon points="100.00,159.30 95.00,161.80 95.00,156.80 100.00,154.30" fill="#4e311e"/>
<polygon points="75.00,151.80 80.00,154.30 75.00,156.80 70.00,154.30" fill="#653f28"/>
<polygon points="70.00,159.30 75.00,161.80 75.00,156.80 70.00,154.30" fill="#412919"/>
<polygon points="80.00,154.30 85.00,156.80 85.00,151.80 80.00,149.30" fill="#9f8140"/>
<polygon points="100.00,154.30 95.00,156.80 95.00,151.80 100.00,149.30" fill="#be9a4c"/>
<polygon points="80.00,149.30 85.00,151.80 85.00,146.80 80.00,144.30" fill="#9f8140"/>
<polygon points="100.00,149.30 95.00,151.80 95.00,146.80 100.00,144.30" fill="#be9a4c"/>
<polygon points="80.00,144.30 85.00,146.80 85.00,141.80 80.00,139.30" fill="#9f8140"/>
<polygon points="100.00,144.30 95.00,146.80 95.00,141.80 100.00,139.30" fill="#be9a4c"/>
<polygon points="60.00,119.30 65.00,121.80 65.00,116.80 60.00,114.30" fill="#9f8140"/>
<polygon points="75.00,106.80 80.00,109.30 75.00,111.80 70.00,109.30" fill="#f7c963"/>
<polygon points="85.00,106.80 90.00,109.30 85.00,111.80 80.00,109.30" fill="#f7c963"/>
<polygon points="65.00,106.80 70.00,109.30 65.00,111.80 60.00,109.30" fill="#f7c963"/>
<polygon points="60.00,114.30 65.00,116.80 65.00,111.80 60.00,109.30" fill="#9f8140"/>
<polygon points="95.00,101.80 100.00,104.30 95.00,106.80 90.00,104.30" fill="#fff196"/>
<polygon points="105.00,101.80 110.00,104.30 105.00,106.80 100.00,104.30" fill="#fff196"/>
<polygon points="95.00,161.80 90.00,164.30 90.00,159.30 95.00,156.80" fill="#4e311e"/>
<polygon points="80.00,154.30 85.00,156.80 80.00,159.30 75.00,156.80" fill="#653f28"/>
<polygon points="75.00,161.80 80.00,164.30 80.00,159.30 75.00,156.80" fill="#412919"/>
<polygon points="95.00,156.80 90.00,159.30 90.00,154.30 95.00,151.80" fill="#be9a4c"/>
<polygon points="85.00,156.80 90.00,159.30 90.00,154.30 85.00,151.80" fill="#9f8140"/>
<polygon points="95.00,151.80 90.00,154.30 90.00,149.30 95.00,146.80" fill="#be9a4c"/>
<polygon points="85.00,151.80 90.00,154.30 90.00,149.30 85.00,146.80" fill="#9f8140"/>
<polygon points="95.00,146.80 90.00,149.30 90.00,144.30 95.00,141.80" fill="#be9a4c"/>
<polygon points="85.00,146.80 90.00,149.30 90.00,144.30 85.00,141.80" fill="#9f8140"/>
<polygon points="70.00,109.30 75.00,111.80 70.00,114.30 65.00,111.80" fill="#f7c963"/>
<polygon points="80.00,109.30 85.00,111.80 80.00,114.30 75.00,111.80" fill="#f7c963"/>
<polygon points="90.00,104.30 95.00,106.80 90.00,109.30 85.00,106.80" fill="#fff196"/>
<polygon points="85.00,111.80 90.00,114.30 90.00,109.30 85.00,106.80" fill="#b19b60"/>
<polygon points="100.00,104.30 105.00,106.80 100.00,109.30 95.00,106.80" fill="#fff196"/>
<polygon points="110.00,104.30 115.00,106.80 110.00,109.30 105.00,106.80" fill="#fff196"/>
<polygon points="85.00,156.80 90.00,159.30 85.00,161.80 80.00,159.30" fill="#653f28"/>
<polygon points="90.00,164.30 85.00,166.80 85.00,161.80 90.00,159.30" fill="#4e311e"/>
<polygon points="80.00,164.30 85.00,166.80 85.00,161.80 80.00,159.30" fill="#412919"/>
<polygon points="65.00,111.80 70.00,114.30 65.00,116.80 60.00,114.30" fill="#f7c963"/>
<polygon points="75.00,111.80 80.00,114.30 75.00,116.80 70.00,114.30" fill="#f7c963"/>
<polygon points="85.00,111.80 90.00,114.30 85.00,116.80 80.00,114.30" fill="#f7c963"/>
<polygon points="95.00,106.80 100.00,109.30 95.00,111.80 90.00,109.30" fill="#fff196"/>
<polygon points="90.00,114.30 95.00,116.80 95.00,111.80 90.00,109.30" fill="#b19b60"/>
<polygon points="105.00,106.80 110.00,109.30 105.00,111.80 100.00,109.30" fill="#fff196"/>
<polygon points="115.00,106.80 120.00,109.30 115.00,111.80 110.00,109.30" fill="#fff196"/>
<polygon points="60.00,159.30 65.00,161.80 60.00,164.30 55.00,161.80" fill="#653f28"/>
<polygon points="125.00,126.80 120.00,129.30 120.00,124.30 125.00,121.80" fill="#d3b973"/>
<polygon points="60.00,114.30 65.00,116.80 60.00,119.30 55.00,116.80" fill="#f7c963"/>
<polygon points="70.00,114.30 75.00,116.80 70.00,119.30 65.00,116.80" fill="#f7c963"/>
<polygon points="80.00,114.30 85.00,116.80 80.00,119.30 75.00,116.80" fill="#f7c963"/>
<polygon points="90.00,114.30 95.00,116.80 90.00,119.30 85.00,116.80" fill="#f7c963"/>
<polygon points="125.00,121.80 120.00,124.30 120.00,119.30 125.00,116.80" fill="#d3b973"/>
<polygon points="100.00,109.30 105.00,111.80 100.00,114.30 95.00,111.80" fill="#fff196"/>
<polygon points="95.00,116.80 100.00,119.30 100.00,114.30 95.00,111.80" fill="#b19b60"/>
<polygon points="110.00,109.30 115.00,111.80 110.00,114.30 105.00,111.80" fill="#fff196"/>
<polygon points="120.00,109.30 125.00,111.80 120.00,114.30 115.00,111.80" fill="#fff196"/>
<polygon points="125.00,116.80 120.00,119.30 120.00,114.30 125.00,111.80" fill="#d3b973"/>
<polygon points="115.00,161.80 120.00,164.30 115.00,166.80 110.00,164.30" fill="#653f28"/>
<polygon points="55.00,161.80 60.00,164.30 55.00,166.80 50.00,164.30" fill="#653f28"/>
<polygon points="50.00,149.30 55.00,151.80 55.00,146.80 50.00,144.30" fill="#9f8140"/>
<polygon points="50.00,144.30 55.00,146.80 55.00,141.80 50.00,139.30" fill="#9f8140"/>
<polygon points="50.00,139.30 55.00,141.80 55.00,136.80 50.00,134.30" fill="#9f8140"/>
<polygon points="50.00,134.30 55.00,136.80 55.00,131.80 50.00,129.30" fill="#9f8140"/>
<polygon points="50.00,129.30 55.00,131.80 55.00,126.80 50.00,124.30" fill="#9f8140"/>
<polygon points="55.00,116.80 60.00,119.30 55.00,121.80 50.00,119.30" fill="#f7c963"/>
<polygon points="50.00,124.30 55.00,126.80 55.00,121.80 50.00,119.30" fill="#9f8140"/>
<polygon points="65.00,116.80 70.00,119.30 65.00,121.80 60.00,119.30" fill="#f7c963"/>
<polygon points="75.00,116.80 80.00,119.30 75.00,121.80 70.00,119.30" fill="#f7c963"/>
<polygon points="85.00,116.80 90.00,119.30 85.00,121.80 80.00,119.30" fill="#f7c963"/>
<polygon points="95.00,116.80 100.00,119.30 95.00,121.80 90.00,119.30" fill="#f7c963"/>
<polygon points="105.00,111.80 110.00,114.30 105.00,116.80 100.00,114.30" fill="#fff196"/>
<polygon points="100.00,119.30 105.00,121.80 105.00,116.80 100.00,114.30" fill="#b19b60"/>
<polygon points="115.00,111.80 120.00,114.30 115.00,116.80 110.00,114.30" fill="#fff196"/>
<polygon points="120.00,119.30 115.00,121.80 115.00,116.80 120.00,114.30" fill="#d3b973"/>
<polygon points="110.00,164.30 115.00,166.80 110.00,169.30 105.00,166.80" fill="#653f28"/>
<polygon points="75.00,171.80 70.00,174.30 70.00,169.30 75.00,166.80" fill="#4e311e"/>
<polygon points="50.00,164.30 55.00,166.80 50.00,169.30 45.00,166.80" fill="#653f28"/>
<polygon points="45.00,171.80 50.00,174.30 50.00,169.30 45.00,166.80" fill="#412919"/>
<polygon points="55.00,166.80 60.00,169.30 60.00,164.30 55.00,161.80" fill="#9f8140"/>
<polygon points="75.00,166.80 70.00,169.30 70.00,164.30 75.00,161.80" fill="#be9a4c"/>
<polygon points="55.00,161.80 60.00,164.30 60.00,159.30 55.00,156.80" fill="#9f8140"/>
<polygon points="75.00,161.80 70.00,164.30 70.00,159.30 75.00,156.80" fill="#be9a4c"/>
<polygon points="55.00,156.80 60.00,159.30 60.00,154.30 55.00,151.80" fill="#9f8140"/>
<polygon points="75.00,156.80 70.00,159.30 70.00,154.30 75.00,151.80" fill="#be9a4c"/>
<polygon points="55.00,151.80 60.00,154.30 60.00,149.30 55.00,146.80" fill="#9f8140"/>
<polygon points="55.00,146.80 60.00,149.30 60.00,144.30 55.00,141.80" fill="#9f8140"/>
<polygon points="55.00,141.80 60.00,144.30 60.00,139.30 55.00,136.80" fill="#9f8140"/>
<polygon points="55.00,136.80 60.00,139.30 60.00,134.30 55.00,131.80" fill="#9f8140"/>
<polygon points="55.00,131.80 60.00,134.30 60.00,129.30 55.00,126.80" fill="#9f8140"/>
<polygon points="60.00,119.30 65.00,121.80 60.00,124.30 55.00,121.80" fill="#f7c963"/>
<polygon points="55.00,126.80 60.00,129.30 60.00,124.30 55.00,121.80" fill="#9f8140"/>
<polygon points="70.00,119.30 75.00,121.80 70.00,124.30 65.00,121.80" fill="#f7c963"/>
<polygon points="80.00,119.30 85.00,121.80 80.00,124.30 75.00,121.80" fill="#f7c963"/>
<polygon points="90.00,119.30 95.00,121.80 90.00,124.30 85.00,121.80" fill="#f7c963"/>
<polygon points="100.00,119.30 105.00,121.80 100.00,124.30 95.00,121.80" fill="#f7c963"/>
<polygon points="120.00,119.30 125.00,121.80 120.00,124.30 115.00,121.80" fill="#f7c963"/>
<polygon points="110.00,114.30 115.00,116.80 110.00,119.30 105.00,116.80" fill="#fff196"/>
<polygon points="115.00,121.80 110.00,124.30 110.00,119.30 115.00,116.80" fill="#d3b973"/>
<polygon points="105.00,121.80 110.00,124.30 110.00,119.30 105.00,116.80" fill="#b19b60"/>
<polygon points="130.00,174.30 125.00,176.80 125.00,171.80 130.00,169.30" fill="#4e311e"/>
<polygon points="105.00,166.80 110.00,169.30 105.00,171.80 100.00,169.30" fill="#653f28"/>
<polygon points="100.00,174.30 105.00,176.80 105.00,171.80 100.00,169.30" fill="#412919"/>
<polygon points="70.00,174.30 65.00,176.80 65.00,171.80 70.00,169.30" fill="#4e311e"/>
<polygon points="55.00,166.80 60.00,169.30 55.00,171.80 50.00,169.30" fill="#653f28"/>
<polygon points="50.00,174.30 55.00,176.80 55.00,171.80 50.00,169.30" fill="#412919"/>
<polygon points="110.00,169.30 115.00,171.80 115.00,166.80 110.00,164.30" fill="#9f8140"/>
<polygon points="130.00,169.30 125.00,171.80 125.00,166.80 130.00,164.30" fill="#be9a4c"/>
<polygon points="70.00,169.30 65.00,171.80 65.00,166.80 70.00,164.30" fill="#be9a4c"/>
<polygon points="60.00,169.30 65.00,171.80 65.00,166.80 60.00,164.30" fill="#9f8140"/>
<polygon points="110.00,164.30 115.00,166.80 115.00,161.80 110.00,159.30" fill="#9f8140"/>
<polygon points="130.00,164.30 125.00,166.80 125.00,161.80 130.00,159.30" fill="#be9a4c"/>
<polygon points="70.00,164.30 65.00,166.80 65.00,161.80 70.00,159.30" fill="#be9a4c"/>
<polygon points="60.00,164.30 65.00,166.80 65.00,161.80 60.00,159.30" fill="#9f8140"/>
<polygon points="110.00,159.30 115.00,161.80 115.00,156.80 110.00,154.30" fill="#9f8140"/>
<polygon points="130.00,159.30 125.00,161.80 125.00,156.80 130.00,154.30" fill="#be9a4c"/>
<polygon points="70.00,159.30 65.00,161.80 65.00,156.80 70.00,154.30" fill="#be9a4c"/>
<polygon points="60.00,159.30 65.00,161.80 65.00,156.80 60.00,154.30" fill="#9f8140"/>
<polygon points="60.00,154.30 65.00,156.80 65.00,151.80 60.00,149.30" fill="#9f8140"/>
<polygon points="60.00,149.30 65.00,151.80 65.00,146.80 60.00,144.30" fill="#9f8140"/>
<polygon points="60.00,144.30 65.00,146.80 65.00,141.80 60.00,139.30" fill="#9f8140"/>
<polygon points="60.00,139.30 65.00,141.80 65.00,136.80 60.00,134.30" fill="#9f8140"/>
<polygon points="60.00,134.30 65.00,136.80 65.00,131.80 60.00,129.30" fill="#9f8140"/>
<polygon points="65.00,121.80 70.00,124.30 65.00,126.80 60.00,124.30" fill="#f7c963"/>
<polygon points="60.00,129.30 65.00,131.80 65.00,126.80 60.00,124.30" fill="#9f8140"/>
<polygon points="75.00,121.80 80.00,124.30 75.00,126.80 70.00,124.30" fill="#f7c963"/>
<polygon points="85.00,121.80 90.00,124.30 85.00,126.80 80.00,124.30" fill="#f7c963"/>
<polygon points="95.00,121.80 100.00,124.30 95.00,126.80 90.00,124.30" fill="#f7c963"/>
<polygon points="105.00,121.80 110.00,124.30 105.00,126.80 100.00,124.30" fill="#f7c963"/>
<polygon points="115.00,121.80 120.00,124.30 115.00,126.80 110.00,124.30" fill="#f7c963"/>
<polygon points="125.00,121.80 130.00,124.30 125.00,126.80 120.00,124.30" fill="#f7c963"/>
<polygon points="145.00,111.80 150.00,114.30 145.00,116.80 140.00,114.30" fill="#653f28"/>
<polygon points="125.00,176.80 120.00,179.30 120.00,174.30 125.00,171.80" fill="#4e311e"/>
<polygon points="110.00,169.30 115.00,171.80 110.00,174.30 105.00,171.80" fill="#653f28"/>
<polygon points="105.00,176.80 110.00,179.30 110.00,174.30 105.00,171.80" fill="#412919"/>
<polygon points="60.00,169.30 65.00,171.80 60.00,174.30 55.00,171.80" fill="#653f28"/>
<polygon points="65.00,176.80 60.00,179.30 60.00,174.30 65.00,171.80" fill="#4e311e"/>
<polygon points="55.00,176.80 60.00,179.30 60.00,174.30 55.00,171.80" fill="#412919"/>
<polygon points="125.00,171.80 120.00,174.30 120.00,169.30 125.00,166.80" fill="#be9a4c"/>
<polygon points="115.00,171.80 120.00,174.30 120.00,169.30 115.00,166.80" fill="#9f8140"/>
<polygon points="125.00,166.80 120.00,169.30 120.00,164.30 125.00,161.80" fill="#be9a4c"/>
<polygon points="115.00,166.80 120.00,169.30 120.00,164.30 115.00,161.80" fill="#9f8140"/>
<polygon points="125.00,161.80 120.00,164.30 120.00,159.30 125.00,156.80" fill="#be9a4c"/>
<polygon points="115.00,161.80 120.00,164.30 120.00,159.30 115.00,156.80" fill="#9f8140"/>
<polygon points="65.00,156.80 70.00,159.30 70.00,154.30 65.00,151.80" fill="#9f8140"/>
<polygon points="65.00,151.80 70.00,154.30 70.00,149.30 65.00,146.80" fill="#9f8140"/>
<polygon points="65.00,146.80 70.00,149.30 70.00,144.30 65.00,141.80" fill="#9f8140"/>
<polygon points="155.00,146.80 150.00,149.30 150.00,144.30 155.00,141.80" fill="#4e311e"/>
<polygon points="65.00,141.80 70.00,144.30 70.00,139.30 65.00,136.80" fill="#9f8140"/>
<polygon points="155.00,141.80 150.00,144.30 150.00,139.30 155.00,136.80" fill="#4e311e"/>
<polygon points="65.00,136.80 70.00,139.30 70.00,134.30 65.00,131.80" fill="#9f8140"/>
<polygon points="155.00,136.80 150.00,139.30 150.00,134.30 155.00,131.80" fill="#4e311e"/>
<polygon points="70.00,124.30 75.00,126.80 70.00,129.30 65.00,126.80" fill="#f7c963"/>
<polygon points="65.00,131.80 70.00,134.30 70.00,129.30 65.00,126.80" fill="#9f8140"/>
<polygon points="80.00,124.30 85.00,126.80 80.00,129.30 75.00,126.80" fill="#f7c963"/>
<polygon points="90.00,124.30 95.00,126.80 90.00,129.30 85.00,126.80" fill="#f7c963"/>
<polygon points="100.00,124.30 105.00,126.80 100.00,129.30 95.00,126.80" fill="#f7c963"/>
<polygon points="110.00,124.30 115.00,126.80 110.00,129.30 105.00,126.80" fill="#f7c963"/>
<polygon points="120.00,124.30 125.00,126.80 120.00,129.30 115.00,126.80" fill="#f7c963"/>
<polygon points="155.00,131.80 150.00,134.30 150.00,129.30 155.00,126.80" fill="#4e311e"/>
<polygon points="155.00,126.80 150.00,129.30 150.00,124.30 155.00,121.80" fill="#4e311e"/>
<polygon points="130.00,119.30 135.00,121.80 130.00,124.30 125.00,121.80" fill="#429fef"/>
<polygon points="140.00,114.30 145.00,116.80 140.00,119.30 135.00,116.80" fill="#653f28"/>
<polygon points="150.00,114.30 155.00,116.80 150.00,119.30 145.00,116.80" fill="#653f28"/>
<polygon points="155.00,121.80 150.00,124.30 150.00,119.30 155.00,116.80" fill="#4e311e"/>
<polygon points="115.00,171.80 120.00,174.30 115.00,176.80 110.00,174.30" fill="#653f28"/>
<polygon points="120.00,179.30 115.00,181.80 115.00,176.80 120.00,174.30" fill="#4e311e"/>
<polygon points="110.00,179.30 115.00,181.80 115.00,176.80 110.00,174.30" fill="#412919"/>
<polygon points="70.00,159.30 75.00,161.80 75.00,156.80 70.00,154.30" fill="#9f8140"/>
<polygon points="140.00,159.30 135.00,161.80 135.00,156.80 140.00,154.30" fill="#be9a4c"/>
<polygon points="70.00,154.30 75.00,156.80 75.00,151.80 70.00,149.30" fill="#9f8140"/>
<polygon points="140.00,154.30 135.00,156.80 135.00,151.80 140.00,149.30" fill="#be9a4c"/>
<polygon points="70.00,149.30 75.00,151.80 75.00,146.80 70.00,144.30" fill="#9f8140"/>
<polygon points="140.00,149.30 135.00,151.80 135.00,146.80 140.00,144.30" fill="#be9a4c"/>
<polygon points="150.00,149.30 145.00,151.80 145.00,146.80 150.00,144.30" fill="#4e311e"/>
<polygon points="140.00,149.30 145.00,151.80 145.00,146.80 140.00,144.30" fill="#412919"/>
<polygon points="70.00,144.30 75.00,146.80 75.00,141.80 70.00,139.30" fill="#9f8140"/>
<polygon points="140.00,144.30 135.00,146.80 135.00,141.80 140.00,139.30" fill="#be9a4c"/>
<polygon points="150.00,144.30 145.00,146.80 145.00,141.80 150.00,139.30" fill="#4e311e"/>
<polygon points="140.00,144.30 145.00,146.80 145.00,141.80 140.00,139.30" fill="#412919"/>
<polygon points="70.00,139.30 75.00,141.80 75.00,136.80 70.00,134.30" fill="#9f8140"/>
<polygon points="150.00,139.30 145.00,141.80 145.00,136.80 150.00,134.30" fill="#4e311e"/>
<polygon points="75.00,126.80 80.00,129.30 75.00,131.80 70.00,129.30" fill="#f7c963"/>
<polygon points="70.00,134.30 75.00,136.80 75.00,131.80 70.00,129.30" fill="#9f8140"/>
<polygon points="85.00,126.80 90.00,129.30 85.00,131.80 80.00,129.30" fill="#f7c963"/>
<polygon points="95.00,126.80 100.00,129.30 95.00,131.80 90.00,129.30" fill="#f7c963"/>
<polygon points="105.00,126.80 110.00,129.30 105.00,131.80 100.00,129.30" fill="#f7c963"/>
<polygon points="115.00,126.80 120.00,129.30 115.00,131.80 110.00,129.30" fill="#f7c963"/>
<polygon points="150.00,134.30 145.00,136.80 145.00,131.80 150.00,129.30" fill="#4e311e"/>
<polygon points="150.00,129.30 145.00,131.80 145.00,126.80 150.00,124.30" fill="#4e311e"/>
<polygon points="125.00,121.80 130.00,124.30 125.00,126.80 120.00,124.30" fill="#429fef"/>
<polygon points="145.00,116.80 150.00,119.30 145.00,121.80 140.00,119.30" fill="#653f28"/>
<polygon points="150.00,124.30 145.00,126.80 145.00,121.80 150.00,119.30" fill="#4e311e"/>
<polygon points="135.00,106.80 140.00,109.30 135.00,111.80 130.00,109.30" fill="#f7c963"/>
<polygon points="90.00,174.30 95.00,176.80 90.00,179.30 85.00,176.80" fill="#653f28"/>
<polygon points="75.00,161.80 80.00,164.30 80.00,159.30 75.00,156.80" fill="#9f8140"/>
<polygon points="135.00,161.80 130.00,164.30 130.00,159.30 135.00,156.80" fill="#be9a4c"/>
<polygon points="75.00,156.80 80.00,159.30 80.00,154.30 75.00,151.80" fill="#9f8140"/>
<polygon points="135.00,156.80 130.00,159.30 130.00,154.30 135.00,151.80" fill="#be9a4c"/>
<polygon points="75.00,151.80 80.00,154.30 80.00,149.30 75.00,146.80" fill="#9f8140"/>
<polygon points="135.00,151.80 130.00,154.30 130.00,149.30 135.00,146.80" fill="#be9a4c"/>
<polygon points="75.00,146.80 80.00,149.30 80.00,144.30 75.00,141.80" fill="#9f8140"/>
<polygon points="135.00,146.80 130.00,149.30 130.00,144.30 135.00,141.80" fill="#be9a4c"/>
<polygon points="75.00,141.80 80.00,144.30 80.00,139.30 75.00,136.80" fill="#9f8140"/>
<polygon points="80.00,129.30 85.00,131.80 80.00,134.30 75.00,131.80" fill="#f7c963"/>
<polygon points="75.00,136.80 80.00,139.30 80.00,134.30 75.00,131.80" fill="#9f8140"/>
<polygon points="90.00,129.30 95.00,131.80 90.00,134.30 85.00,131.80" fill="#f7c963"/>
<polygon points="100.00,129.30 105.00,131.80 100.00,134.30 95.00,131.80" fill="#f7c963"/>
<polygon points="110.00,129.30 115.00,131.80 110.00,134.30 105.00,131.80" fill="#f7c963"/>
<polygon points="120.00,124.30 125.00,126.80 120.00,129.30 115.00,126.80" fill="#429fef"/>
<polygon points="130.00,109.30 135.00,111.80 130.00,114.30 125.00,111.80" fill="#f7c963"/>
<polygon points="140.00,109.30 145.00,111.80 140.00,114.30 135.00,111.80" fill="#f7c963"/>
<polygon points="85.00,176.80 90.00,179.30 85.00,181.80 80.00,179.30" fill="#653f28"/>
<polygon points="80.00,164.30 85.00,166.80 85.00,161.80 80.00,159.30" fill="#9f8140"/>
<polygon points="130.00,164.30 125.00,166.80 125.00,161.80 130.00,159.30" fill="#be9a4c"/>
<polygon points="80.00,159.30 85.00,161.80 85.00,156.80 80.00,154.30" fill="#9f8140"/>
<polygon points="130.00,159.30 125.00,161.80 125.00,156.80 130.00,154.30" fill="#be9a4c"/>
<polygon points="80.00,154.30 85.00,156.80 85.00,151.80 80.00,149.30" fill="#9f8140"/>
<polygon points="130.00,154.30 125.00,156.80 125.00,151.80 130.00,149.30" fill="#be9a4c"/>
<polygon points="80.00,149.30 85.00,151.80 85.00,146.80 80.00,144.30" fill="#9f8140"/>
<polygon points="130.00,149.30 125.00,151.80 125.00,146.80 130.00,144.30" fill="#be9a4c"/>
<polygon points="80.00,144.30 85.00,146.80 85.00,141.80 80.00,139.30" fill="#9f8140"/>
<polygon points="85.00,131.80 90.00,134.30 85.00,136.80 80.00,134.30" fill="#f7c963"/>
<polygon points="80.00,139.30 85.00,141.80 85.00,136.80 80.00,134.30" fill="#9f8140"/>
<polygon points="95.00,131.80 100.00,134.30 95.00,136.80 90.00,134.30" fill="#f7c963"/>
<polygon points="105.00,131.80 110.00,134.30 105.00,136.80 100.00,134.30" fill="#f7c963"/>
<polygon points="115.00,126.80 120.00,129.30 115.00,131.80 110.00,129.30" fill="#429fef"/>
<polygon points="125.00,111.80 130.00,114.30 125.00,116.80 120.00,114.30" fill="#f7c963"/>
<polygon points="135.00,111.80 140.00,114.30 135.00,116.80 130.00,114.30" fill="#f7c963"/>
<polygon points="145.00,111.80 150.00,114.30 145.00,116.80 140.00,114.30" fill="#f7c963"/>
<polygon points="105.00,186.80 100.00,189.30 100.00,184.30 105.00,181.80" fill="#4e311e"/>
<polygon points="80.00,179.30 85.00,181.80 80.00,184.30 75.00,181.80" fill="#653f28"/>
<polygon points="75.00,186.80 80.00,189.30 80.00,184.30 75.00,181.80" fill="#412919"/>
<polygon points="85.00,181.80 90.00,184.30 90.00,179.30 85.00,176.80" fill="#9f8140"/>
<polygon points="105.00,181.80 100.00,184.30 100.00,179.30 105.00,176.80" fill="#be9a4c"/>
<polygon points="85.00,176.80 90.00,179.30 90.00,174.30 85.00,171.80" fill="#9f8140"/>
<polygon points="105.00,176.80 100.00,179.30 100.00,174.30 105.00,171.80" fill="#be9a4c"/>
<polygon points="85.00,171.80 90.00,174.30 90.00,169.30 85.00,166.80" fill="#9f8140"/>
<polygon points="105.00,171.80 100.00,174.30 100.00,169.30 105.00,166.80" fill="#be9a4c"/>
<polygon points="85.00,166.80 90.00,169.30 90.00,164.30 85.00,161.80" fill="#9f8140"/>
<polygon points="125.00,166.80 120.00,169.30 120.00,164.30 125.00,161.80" fill="#be9a4c"/>
<polygon points="85.00,161.80 90.00,164.30 90.00,159.30 85.00,156.80" fill="#9f8140"/>
<polygon points="125.00,161.80 120.00,164.30 120.00,159.30 125.00,156.80" fill="#be9a4c"/>
<polygon points="85.00,156.80 90.00,159.30 90.00,154.30 85.00,151.80" fill="#9f8140"/>
<polygon points="125.00,156.80 120.00,159.30 120.00,154.30 125.00,151.80" fill="#be9a4c"/>
<polygon points="85.00,151.80 90.00,154.30 90.00,149.30 85.00,146.80" fill="#9f8140"/>
<polygon points="125.00,151.80 120.00,154.30 120.00,149.30 125.00,146.80" fill="#be9a4c"/>
<polygon points="85.00,146.80 90.00,149.30 90.00,144.30 85.00,141.80" fill="#9f8140"/>
<polygon points="90.00,134.30 95.00,136.80 90.00,139.30 85.00,136.80" fill="#f7c963"/>
<polygon points="85.00,141.80 90.00,144.30 90.00,139.30 85.00,136.80" fill="#9f8140"/>
<polygon points="100.00,134.30 105.00,136.80 100.00,139.30 95.00,136.80" fill="#f7c963"/>
<polygon points="110.00,129.30 115.00,131.80 110.00,134.30 105.00,131.80" fill="#429fef"/>
<polygon points="120.00,114.30 125.00,116.80 120.00,119.30 115.00,116.80" fill="#f7c963"/>
<polygon points="130.00,114.30 135.00,116.80 130.00,119.30 125.00,116.80" fill="#f7c963"/>
<polygon points="140.00,114.30 145.00,116.80 140.00,119.30 135.00,116.80" fill="#f7c963"/>
<polygon points="150.00,114.30 155.00,116.80 150.00,119.30 145.00,116.80" fill="#f7c963"/>
<polygon points="100.00,189.30 95.00,191.80 95.00,186.80 100.00,184.30" fill="#4e311e"/>
<polygon points="85.00,181.80 90.00,184.30 85.00,186.80 80.00,184.30" fill="#653f28"/>
<polygon points="80.00,189.30 85.00,191.80 85.00,186.80 80.00,184.30" fill="#412919"/>
<polygon points="100.00,184.30 95.00,186.80 95.00,181.80 100.00,179.30" fill="#be9a4c"/>
<polygon points="90.00,184.30 95.00,186.80 95.00,181.80 90.00,179.30" fill="#9f8140"/>
<polygon points="100.00,179.30 95.00,181.80 95.00,176.80 100.00,174.30" fill="#be9a4c"/>
<polygon points="90.00,179.30 95.00,181.80 95.00,176.80 90.00,174.30" fill="#9f8140"/>
<polygon points="100.00,174.30 95.00,176.80 95.00,171.80 100.00,169.30" fill="#be9a4c"/>
<polygon points="90.00,174.30 95.00,176.80 95.00,171.80 90.00,169.30" fill="#9f8140"/>
<polygon points="90.00,169.30 95.00,171.80 95.00,166.80 90.00,164.30" fill="#9f8140"/>
<polygon points="120.00,169.30 115.00,171.80 115.00,166.80 120.00,164.30" fill="#be9a4c"/>
<polygon points="90.00,164.30 95.00,166.80 95.00,161.80 90.00,159.30" fill="#9f8140"/>
<polygon points="120.00,164.30 115.00,166.80 115.00,161.80 120.00,159.30" fill="#be9a4c"/>
<polygon points="90.00,159.30 95.00,161.80 95.00,156.80 90.00,154.30" fill="#9f8140"/>
<polygon points="120.00,159.30 115.00,161.80 115.00,156.80 120.00,154.30" fill="#be9a4c"/>
<polygon points="90.00,154.30 95.00,156.80 95.00,151.80 90.00,149.30" fill="#9f8140"/>
<polygon points="120.00,154.30 115.00,156.80 115.00,151.80 120.00,149.30" fill="#be9a4c"/>
<polygon points="90.00,149.30 95.00,151.80 95.00,146.80 90.00,144.30" fill="#9f8140"/>
<polygon points="160.00,149.30 155.00,151.80 155.00,146.80 160.00,144.30" fill="#be9a4c"/>
<polygon points="95.00,136.80 100.00,139.30 95.00,141.80 90.00,139.30" fill="#f7c963"/>
<polygon points="90.00,144.30 95.00,146.80 95.00,141.80 90.00,139.30" fill="#9f8140"/>
<polygon points="160.00,144.30 155.00,146.80 155.00,141.80 160.00,139.30" fill="#be9a4c"/>
<polygon points="160.00,139.30 155.00,141.80 155.00,136.80 160.00,134.30" fill="#be9a4c"/>
<polygon points="105.00,131.80 110.00,134.30 105.00,136.80 100.00,134.30" fill="#429fef"/>
<polygon points="100.00,139.30 105.00,141.80 105.00,136.80 100.00,134.30" fill="#2a669a"/>
<polygon points="160.00,134.30 155.00,136.80 155.00,131.80 160.00,129.30" fill="#be9a4c"/>
<polygon points="160.00,129.30 155.00,131.80 155.00,126.80 160.00,124.30" fill="#be9a4c"/>
<polygon points="115.00,116.80 120.00,119.30 115.00,121.80 110.00,119.30" fill="#f7c963"/>
<polygon points="125.00,116.80 130.00,119.30 125.00,121.80 120.00,119.30" fill="#f7c963"/>
<polygon points="135.00,116.80 140.00,119.30 135.00,121.80 130.00,119.30" fill="#f7c963"/>
<polygon points="145.00,116.80 150.00,119.30 145.00,121.80 140.00,119.30" fill="#f7c963"/>
<polygon points="155.00,116.80 160.00,119.30 155.00,121.80 150.00,119.30" fill="#f7c963"/>
<polygon points="160.00,124.30 155.00,126.80 155.00,121.80 160.00,119.30" fill="#be9a4c"/>
<polygon points="90.00,184.30 95.00,186.80 90.00,189.30 85.00,186.80" fill="#653f28"/>
<polygon points="95.00,191.80 90.00,194.30 90.00,189.30 95.00,186.80" fill="#4e311e"/>
<polygon points="85.00,191.80 90.00,194.30 90.00,189.30 85.00,186.80" fill="#412919"/>
<polygon points="95.00,171.80 100.00,174.30 100.00,169.30 95.00,166.80" fill="#9f8140"/>
<polygon points="115.00,171.80 110.00,174.30 110.00,169.30 115.00,166.80" fill="#be9a4c"/>
<polygon points="95.00,166.80 100.00,169.30 100.00,164.30 95.00,161.80" fill="#9f8140"/>
<polygon points="115.00,166.80 110.00,169.30 110.00,164.30 115.00,161.80" fill="#be9a4c"/>
<polygon points="95.00,161.80 100.00,164.30 100.00,159.30 95.00,156.80" fill="#9f8140"/>
<polygon points="115.00,161.80 110.00,164.30 110.00,159.30 115.00,156.80" fill="#be9a4c"/>
<polygon points="95.00,156.80 100.00,159.30 100.00,154.30 95.00,151.80" fill="#9f8140"/>
<polygon points="115.00,156.80 110.00,159.30 110.00,154.30 115.00,151.80" fill="#be9a4c"/>
<polygon points="95.00,151.80 100.00,154.30 100.00,149.30 95.00,146.80" fill="#9f8140"/>
<polygon points="100.00,139.30 105.00,141.80 100.00,144.30 95.00,141.80" fill="#f7c963"/>
<polygon points="95.00,146.80 100.00,149.30 100.00,144.30 95.00,141.80" fill="#9f8140"/>
<polygon points="105.00,131.80 110.00,134.30 110.00,129.30 105.00,126.80" fill="#9f8140"/>
<polygon points="155.00,131.80 150.00,134.30 150.00,129.30 155.00,126.80" fill="#be9a4c"/>
<polygon points="110.00,119.30 115.00,121.80 110.00,124.30 105.00,121.80" fill="#f7c963"/>
<polygon points="105.00,126.80 110.00,129.30 110.00,124.30 105.00,121.80" fill="#9f8140"/>
<polygon points="120.00,119.30 125.00,121.80 120.00,124.30 115.00,121.80" fill="#f7c963"/>
<polygon points="130.00,119.30 135.00,121.80 130.00,124.30 125.00,121.80" fill="#f7c963"/>
<polygon points="140.00,119.30 145.00,121.80 140.00,124.30 135.00,121.80" fill="#f7c963"/>
<polygon points="150.00,119.30 155.00,121.80 150.00,124.30 145.00,121.80" fill="#f7c963"/>
<polygon points="155.00,126.80 150.00,129.30 150.00,124.30 155.00,121.80" fill="#be9a4c"/>
<polygon points="110.00,174.30 105.00,176.80 105.00,171.80 110.00,169.30" fill="#be9a4c"/>
<polygon points="100.00,174.30 105.00,176.80 105.00,171.80 100.00,169.30" fill="#9f8140"/>
<polygon points="110.00,169.30 105.00,171.80 105.00,166.80 110.00,164.30" fill="#be9a4c"/>
<polygon points="100.00,169.30 105.00,171.80 105.00,166.80 100.00,164.30" fill="#9f8140"/>
<polygon points="150.00,139.30 145.00,141.80 145.00,136.80 150.00,134.30" fill="#be9a4c"/>
<polygon points="105.00,131.80 110.00,134.30 105.00,136.80 100.00,134.30" fill="#653f28"/>
<polygon points="155.00,131.80 160.00,134.30 155.00,136.80 150.00,134.30" fill="#22262a"/>
<polygon points="160.00,139.30 155.00,141.80 155.00,136.80 160.00,134.30" fill="#1a1d20"/>
<polygon points="150.00,139.30 155.00,141.80 155.00,136.80 150.00,134.30" fill="#16181b"/>
<polygon points="110.00,134.30 115.00,136.80 115.00,131.80 110.00,129.30" fill="#9f8140"/>
<polygon points="150.00,134.30 145.00,136.80 145.00,131.80 150.00,129.30" fill="#be9a4c"/>
<polygon points="115.00,121.80 120.00,124.30 115.00,126.80 110.00,124.30" fill="#f7c963"/>
<polygon points="110.00,129.30 115.00,131.80 115.00,126.80 110.00,124.30" fill="#9f8140"/>
<polygon points="125.00,121.80 130.00,124.30 125.00,126.80 120.00,124.30" fill="#f7c963"/>
<polygon points="135.00,121.80 140.00,124.30 135.00,126.80 130.00,124.30" fill="#f7c963"/>
<polygon points="145.00,121.80 150.00,124.30 145.00,126.80 140.00,124.30" fill="#f7c963"/>
<polygon points="150.00,129.30 145.00,131.80 145.00,126.80 150.00,124.30" fill="#be9a4c"/>
<polygon points="95.00,166.80 100.00,169.30 100.00,164.30 95.00,161.80" fill="#412919"/>
<polygon points="115.00,166.80 110.00,169.30 110.00,164.30 115.00,161.80" fill="#4e311e"/>
<polygon points="95.00,161.80 100.00,164.30 100.00,159.30 95.00,156.80" fill="#412919"/>
<polygon points="115.00,161.80 110.00,164.30 110.00,159.30 115.00,156.80" fill="#4e311e"/>
<polygon points="115.00,156.80 120.00,159.30 120.00,154.30 115.00,151.80" fill="#9f8140"/>
<polygon points="95.00,156.80 100.00,159.30 100.00,154.30 95.00,151.80" fill="#412919"/>
<polygon points="115.00,156.80 110.00,159.30 110.00,154.30 115.00,151.80" fill="#4e311e"/>
<polygon points="115.00,151.80 120.00,154.30 120.00,149.30 115.00,146.80" fill="#9f8140"/>
<polygon points="95.00,151.80 100.00,154.30 100.00,149.30 95.00,146.80" fill="#412919"/>
<polygon points="115.00,151.80 110.00,154.30 110.00,149.30 115.00,146.80" fill="#4e311e"/>
<polygon points="115.00,146.80 120.00,149.30 120.00,144.30 115.00,141.80" fill="#9f8140"/>
<polygon points="150.00,139.30 155.00,141.80 150.00,144.30 145.00,141.80" fill="#fffcc7"/>
<polygon points="160.00,139.30 165.00,141.80 160.00,144.30 155.00,141.80" fill="#fffcc7"/>
<polygon points="95.00,146.80 100.00,149.30 100.00,144.30 95.00,141.80" fill="#412919"/>
<polygon points="115.00,146.80 110.00,149.30 110.00,144.30 115.00,141.80" fill="#4e311e"/>
<polygon points="115.00,141.80 120.00,144.30 120.00,139.30 115.00,136.80" fill="#9f8140"/>
<polygon points="145.00,141.80 140.00,144.30 140.00,139.30 145.00,136.80" fill="#be9a4c"/>
<polygon points="100.00,134.30 105.00,136.80 100.00,139.30 95.00,136.80" fill="#653f28"/>
<polygon points="95.00,141.80 100.00,144.30 100.00,139.30 95.00,136.80" fill="#412919"/>
<polygon points="110.00,134.30 115.00,136.80 110.00,139.30 105.00,136.80" fill="#653f28"/>
<polygon points="115.00,141.80 110.00,144.30 110.00,139.30 115.00,136.80" fill="#4e311e"/>
<polygon points="115.00,136.80 120.00,139.30 120.00,134.30 115.00,131.80" fill="#9f8140"/>
<polygon points="145.00,136.80 140.00,139.30 140.00,134.30 145.00,131.80" fill="#be9a4c"/>
<polygon points="120.00,124.30 125.00,126.80 120.00,129.30 115.00,126.80" fill="#f7c963"/>
<polygon points="115.00,131.80 120.00,134.30 120.00,129.30 115.00,126.80" fill="#9f8140"/>
<polygon points="130.00,124.30 135.00,126.80 130.00,129.30 125.00,126.80" fill="#f7c963"/>
<polygon points="140.00,124.30 145.00,126.80 140.00,129.30 135.00,126.80" fill="#f7c963"/>
<polygon points="145.00,131.80 140.00,134.30 140.00,129.30 145.00,126.80" fill="#be9a4c"/>
<polygon points="110.00,169.30 105.00,171.80 105.00,166.80 110.00,164.30" fill="#4e311e"/>
<polygon points="100.00,169.30 105.00,171.80 105.00,166.80 100.00,164.30" fill="#412919"/>
<polygon points="130.00,164.30 135.00,166.80 135.00,161.80 130.00,159.30" fill="#b0a280"/>
<polygon points="170.00,164.30 165.00,166.80 165.00,161.80 170.00,159.30" fill="#d2c199"/>
<polygon points="110.00,164.30 105.00,166.80 105.00,161.80 110.00,159.30" fill="#4e311e"/>
<polygon points="100.00,164.30 105.00,166.80 105.00,161.80 100.00,159.30" fill="#412919"/>
<polygon points="120.00,159.30 125.00,161.80 125.00,156.80 120.00,154.30" fill="#9f8140"/>
<polygon points="170.00,159.30 165.00,161.80 165.00,156.80 170.00,154.30" fill="#d2c199"/>
<polygon points="110.00,159.30 105.00,161.80 105.00,156.80 110.00,154.30" fill="#4e311e"/>
<polygon points="100.00,159.30 105.00,161.80 105.00,156.80 100.00,154.30" fill="#412919"/>
<polygon points="120.00,154.30 125.00,156.80 125.00,151.80 120.00,149.30" fill="#9f8140"/>
<polygon points="170.00,154.30 165.00,156.80 165.00,151.80 170.00,149.30" fill="#d2c199"/>
<polygon points="110.00,154.30 105.00,156.80 105.00,151.80 110.00,149.30" fill="#4e311e"/>
<polygon points="100.00,154.30 105.00,156.80 105.00,151.80 100.00,149.30" fill="#412919"/>
<polygon points="120.00,149.30 125.00,151.80 125.00,146.80 120.00,144.30" fill="#9f8140"/>
<polygon points="145.00,141.80 150.00,144.30 145.00,146.80 140.00,144.30" fill="#fffcc7"/>
<polygon points="155.00,141.80 160.00,144.30 155.00,146.80 150.00,144.30" fill="#fffcc7"/>
<polygon points="165.00,141.80 170.00,144.30 165.00,146.80 160.00,144.30" fill="#fffcc7"/>
<polygon points="170.00,149.30 165.00,151.80 165.00,146.80 170.00,144.30" fill="#d2c199"/>
<polygon points="110.00,149.30 105.00,151.80 105.00,146.80 110.00,144.30" fill="#4e311e"/>
<polygon points="100.00,149.30 105.00,151.80 105.00,146.80 100.00,144.30" fill="#412919"/>
<polygon points="120.00,144.30 125.00,146.80 125.00,141.80 120.00,139.30" fill="#9f8140"/>
<polygon points="105.00,136.80 110.00,139.30 105.00,141.80 100.00,139.30" fill="#653f28"/>
<polygon points="110.00,144.30 105.00,146.80 105.00,141.80 110.00,139.30" fill="#4e311e"/>
<polygon points="100.00,144.30 105.00,146.80 105.00,141.80 100.00,139.30" fill="#412919"/>
<polygon points="120.00,139.30 125.00,141.80 125.00,136.80 120.00,134.30" fill="#9f8140"/>
<polygon points="140.00,139.30 135.00,141.80 135.00,136.80 140.00,134.30" fill="#be9a4c"/>
<polygon points="125.00,126.80 130.00,129.30 125.00,131.80 120.00,129.30" fill="#f7c963"/>
<polygon points="120.00,134.30 125.00,136.80 125.00,131.80 120.00,129.30" fill="#9f8140"/>
<polygon points="135.00,126.80 140.00,129.30 135.00,131.80 130.00,129.30" fill="#f7c963"/>
<polygon points="140.00,134.30 135.00,136.80 135.00,131.80 140.00,129.30" fill="#be9a4c"/>
<polygon points="135.00,166.80 140.00,169.30 140.00,164.30 135.00,161.80" fill="#b0a280"/>
<polygon points="165.00,166.80 160.00,169.30 160.00,164.30 165.00,161.80" fill="#d2c199"/>
<polygon points="135.00,161.80 130.00,164.30 130.00,159.30 135.00,156.80" fill="#be9a4c"/>
<polygon points="125.00,161.80 130.00,164.30 130.00,159.30 125.00,156.80" fill="#9f8140"/>
<polygon points="135.00,161.80 140.00,164.30 140.00,159.30 135.00,156.80" fill="#b0a280"/>
<polygon points="165.00,161.80 160.00,164.30 160.00,159.30 165.00,156.80" fill="#1a1d20"/>
<polygon points="135.00,156.80 130.00,159.30 130.00,154.30 135.00,151.80" fill="#be9a4c"/>
<polygon points="125.00,156.80 130.00,159.30 130.00,154.30 125.00,151.80" fill="#9f8140"/>
<polygon points="135.00,156.80 140.00,159.30 140.00,154.30 135.00,151.80" fill="#b0a280"/>
<polygon points="165.00,156.80 160.00,159.30 160.00,154.30 165.00,151.80" fill="#1a1d20"/>
<polygon points="135.00,151.80 130.00,154.30 130.00,149.30 135.00,146.80" fill="#be9a4c"/>
<polygon points="125.00,151.80 130.00,154.30 130.00,149.30 125.00,146.80" fill="#9f8140"/>
<polygon points="135.00,151.80 140.00,154.30 140.00,149.30 135.00,146.80" fill="#b0a280"/>
<polygon points="150.00,144.30 155.00,146.80 150.00,149.30 145.00,146.80" fill="#fffcc7"/>
<polygon points="160.00,144.30 165.00,146.80 160.00,149.30 155.00,146.80" fill="#fffcc7"/>
<polygon points="165.00,151.80 160.00,154.30 160.00,149.30 165.00,146.80" fill="#d2c199"/>
<polygon points="135.00,146.80 130.00,149.30 130.00,144.30 135.00,141.80" fill="#be9a4c"/>
<polygon points="125.00,146.80 130.00,149.30 130.00,144.30 125.00,141.80" fill="#9f8140"/>
<polygon points="140.00,139.30 145.00,141.80 140.00,144.30 135.00,141.80" fill="#22262a"/>
<polygon points="145.00,146.80 140.00,149.30 140.00,144.30 145.00,141.80" fill="#1a1d20"/>
<polygon points="135.00,146.80 140.00,149.30 140.00,144.30 135.00,141.80" fill="#16181b"/>
<polygon points="135.00,141.80 130.00,144.30 130.00,139.30 135.00,136.80" fill="#be9a4c"/>
<polygon points="125.00,141.80 130.00,144.30 130.00,139.30 125.00,136.80" fill="#9f8140"/>
<polygon points="130.00,129.30 135.00,131.80 130.00,134.30 125.00,131.80" fill="#f7c963"/>
<polygon points="135.00,136.80 130.00,139.30 130.00,134.30 135.00,131.80" fill="#be9a4c"/>
<polygon points="125.00,136.80 130.00,139.30 130.00,134.30 125.00,131.80" fill="#9f8140"/>
<polygon points="140.00,169.30 145.00,171.80 145.00,166.80 140.00,164.30" fill="#b0a280"/>
<polygon points="160.00,169.30 155.00,171.80 155.00,166.80 160.00,164.30" fill="#d2c199"/>
<polygon points="140.00,164.30 145.00,166.80 145.00,161.80 140.00,159.30" fill="#b0a280"/>
<polygon points="160.00,164.30 155.00,166.80 155.00,161.80 160.00,159.30" fill="#1a1d20"/>
<polygon points="140.00,159.30 145.00,161.80 145.00,156.80 140.00,154.30" fill="#b0a280"/>
<polygon points="160.00,159.30 155.00,161.80 155.00,156.80 160.00,154.30" fill="#1a1d20"/>
<polygon points="145.00,146.80 150.00,149.30 145.00,151.80 140.00,149.30" fill="#fffcc7"/>
<polygon points="140.00,154.30 145.00,156.80 145.00,151.80 140.00,149.30" fill="#b0a280"/>
<polygon points="155.00,146.80 160.00,149.30 155.00,151.80 150.00,149.30" fill="#fffcc7"/>
<polygon points="160.00,154.30 155.00,156.80 155.00,151.80 160.00,149.30" fill="#d2c199"/>
<polygon points="155.00,171.80 150.00,174.30 150.00,169.30 155.00,166.80" fill="#d2c199"/>
<polygon points="145.00,171.80 150.00,174.30 150.00,169.30 145.00,166.80" fill="#b0a280"/>
<polygon points="155.00,166.80 150.00,169.30 150.00,164.30 155.00,161.80" fill="#d2c199"/>
<polygon points="145.00,166.80 150.00,169.30 150.00,164.30 145.00,161.80" fill="#b0a280"/>
<polygon points="155.00,161.80 150.00,164.30 150.00,159.30 155.00,156.80" fill="#d2c199"/>
<polygon points="145.00,161.80 150.00,164.30 150.00,159.30 145.00,156.80" fill="#b0a280"/>
<polygon points="150.00,149.30 155.00,151.80 150.00,154.30 145.00,151.80" fill="#fffcc7"/>
<polygon points="155.00,156.80 150.00,159.30 150.00,154.30 155.00,151.80" fill="#d2c199"/>
<polygon points="145.00,156.80 150.00,159.30 150.00,154.30 145.00,151.80" fill="#b0a280"/>
<text x="12" y="174">dog_golden</text>
</svg>