<svg xmlns="http://www.w3.org/2000/svg" width="1260" height="760" viewBox="0 0 1260 760">
<rect width="100%" height="100%" fill="#f4f1e9"/>
<style>text{font:12px Arial, sans-serif;fill:#606060}</style>
<polygon points="100.00,94.30 105.00,96.80 100.00,99.30 95.00,96.80" fill="#ffff6b"/>
<polygon points="125.00,126.80 130.00,129.30 125.00,131.80 120.00,129.30" fill="#ffff6b"/>
<polygon points="115.00,121.80 120.00,124.30 115.00,126.80 110.00,124.30" fill="#ffff6b"/>
<polygon points="95.00,96.80 100.00,99.30 95.00,101.80 90.00,99.30" fill="#ffff6b"/>
<polygon points="105.00,81.80 110.00,84.30 105.00,86.80 100.00,84.30" fill="#ffff6b"/>
<polygon points="115.00,76.80 120.00,79.30 115.00,81.80 110.00,79.30" fill="#ffff6b"/>
<polygon points="125.00,71.80 130.00,74.30 125.00,76.80 120.00,74.30" fill="#ffff6b"/>
<polygon points="120.00,164.30 125.00,166.80 120.00,169.30 115.00,166.80" fill="#8a522a"/>
<polygon points="130.00,129.30 135.00,131.80 130.00,134.30 125.00,131.80" fill="#ffe14c"/>
<polygon points="120.00,124.30 125.00,126.80 120.00,129.30 115.00,126.80" fill="#ffe14c"/>
<polygon points="80.00,104.30 85.00,106.80 80.00,109.30 75.00,106.80" fill="#ffff6b"/>
<polygon points="90.00,99.30 95.00,101.80 90.00,104.30 85.00,101.80" fill="#22262a"/>
<polygon points="100.00,84.30 105.00,86.80 100.00,89.30 95.00,86.80" fill="#ffff6b"/>
<polygon points="110.00,79.30 115.00,81.80 110.00,84.30 105.00,81.80" fill="#ffff6b"/>
<polygon points="120.00,74.30 125.00,76.80 120.00,79.30 115.00,76.80" fill="#ffff6b"/>
<polygon points="130.00,74.30 135.00,76.80 130.00,79.30 125.00,76.80" fill="#ffff6b"/>
<polygon points="140.00,69.30 145.00,71.80 140.00,74.30 135.00,71.80" fill="#ffff6b"/>
<polygon points="115.00,166.80 120.00,169.30 115.00,171.80 110.00,169.30" fill="#8a522a"/>
<polygon points="125.00,166.80 130.00,169.30 125.00,171.80 120.00,169.30" fill="#ffe14c"/>
<polygon points="135.00,131.80 140.00,134.30 135.00,136.80 130.00,134.30" fill="#ffe14c"/>
<polygon points="125.00,126.80 130.00,129.30 125.00,131.80 120.00,129.30" fill="#ffe14c"/>
<polygon points="75.00,106.80 80.00,109.30 75.00,111.80 70.00,109.30" fill="#ffff6b"/>
<polygon points="85.00,101.80 90.00,104.30 85.00,106.80 80.00,104.30" fill="#ffff6b"/>
<polygon points="95.00,86.80 100.00,89.30 95.00,91.80 90.00,89.30" fill="#ffff6b"/>
<polygon points="105.00,81.80 110.00,84.30 105.00,86.80 100.00,84.30" fill="#ffff6b"/>
<polygon points="115.00,76.80 120.00,79.30 115.00,81.80 110.00,79.30" fill="#fffcc7"/>
<polygon points="125.00,76.80 130.00,79.30 125.00,81.80 120.00,79.30" fill="#ffff6b"/>
<polygon points="135.00,71.80 140.00,74.30 135.00,76.80 130.00,74.30" fill="#ffff6b"/>
<polygon points="145.00,61.80 150.00,64.30 145.00,66.80 140.00,64.30" fill="#ffff6b"/>
<polygon points="110.00,169.30 115.00,171.80 110.00,174.30 105.00,171.80" fill="#8a522a"/>
<polygon points="130.00,169.30 135.00,171.80 130.00,174.30 125.00,171.80" fill="#ffe14c"/>
<polygon points="140.00,134.30 145.00,136.80 140.00,139.30 135.00,136.80" fill="#ffe14c"/>
<polygon points="130.00,129.30 135.00,131.80 130.00,134.30 125.00,131.80" fill="#ffe14c"/>
<polygon points="70.00,109.30 75.00,111.80 70.00,114.30 65.00,111.80" fill="#8a522a"/>
<polygon points="80.00,104.30 85.00,106.80 80.00,109.30 75.00,106.80" fill="#ffff6b"/>
<polygon points="90.00,89.30 95.00,91.80 90.00,94.30 85.00,91.80" fill="#ffff6b"/>
<polygon points="100.00,84.30 105.00,86.80 100.00,89.30 95.00,86.80" fill="#ffff6b"/>
<polygon points="110.00,79.30 115.00,81.80 110.00,84.30 105.00,81.80" fill="#fffcc7"/>
<polygon points="120.00,79.30 125.00,81.80 120.00,84.30 115.00,81.80" fill="#ffff6b"/>
<polygon points="130.00,74.30 135.00,76.80 130.00,79.30 125.00,76.80" fill="#fffcc7"/>
<polygon points="140.00,64.30 145.00,66.80 140.00,69.30 135.00,66.80" fill="#ffff6b"/>
<polygon points="150.00,64.30 155.00,66.80 150.00,69.30 145.00,66.80" fill="#8a522a"/>
<polygon points="105.00,171.80 110.00,174.30 105.00,176.80 100.00,174.30" fill="#8a522a"/>
<polygon points="135.00,171.80 140.00,174.30 135.00,176.80 130.00,174.30" fill="#ffe14c"/>
<polygon points="145.00,136.80 150.00,139.30 145.00,141.80 140.00,139.30" fill="#ffe14c"/>
<polygon points="135.00,131.80 140.00,134.30 135.00,136.80 130.00,134.30" fill="#ffe14c"/>
<polygon points="60.00,129.30 65.00,131.80 65.00,126.80 60.00,124.30" fill="#b0a280"/>
<polygon points="60.00,124.30 65.00,126.80 65.00,121.80 60.00,119.30" fill="#b0a280"/>
<polygon points="65.00,111.80 70.00,114.30 65.00,116.80 60.00,114.30" fill="#8a522a"/>
<polygon points="60.00,119.30 65.00,121.80 65.00,116.80 60.00,114.30" fill="#59351b"/>
<polygon points="75.00,106.80 80.00,109.30 75.00,111.80 70.00,109.30" fill="#ffff6b"/>
<polygon points="85.00,91.80 90.00,94.30 85.00,96.80 80.00,94.30" fill="#ffff6b"/>
<polygon points="95.00,86.80 100.00,89.30 95.00,91.80 90.00,89.30" fill="#ffff6b"/>
<polygon points="105.00,81.80 110.00,84.30 105.00,86.80 100.00,84.30" fill="#ffff6b"/>
<polygon points="115.00,81.80 120.00,84.30 115.00,86.80 110.00,84.30" fill="#ffff6b"/>
<polygon points="125.00,76.80 130.00,79.30 125.00,81.80 120.00,79.30" fill="#fffcc7"/>
<polygon points="160.00,84.30 155.00,86.80 155.00,81.80 160.00,79.30" fill="#d4ac3a"/>
<polygon points="160.00,79.30 155.00,81.80 155.00,76.80 160.00,74.30" fill="#d4ac3a"/>
<polygon points="135.00,66.80 140.00,69.30 135.00,71.80 130.00,69.30" fill="#fffcc7"/>
<polygon points="155.00,66.80 160.00,69.30 155.00,71.80 150.00,69.30" fill="#ffff6b"/>
<polygon points="160.00,74.30 155.00,76.80 155.00,71.80 160.00,69.30" fill="#dbc452"/>
<polygon points="145.00,61.80 150.00,64.30 145.00,66.80 140.00,64.30" fill="#ffff6b"/>
<polygon points="100.00,174.30 105.00,176.80 100.00,179.30 95.00,176.80" fill="#8a522a"/>
<polygon points="95.00,181.80 100.00,184.30 100.00,179.30 95.00,176.80" fill="#59351b"/>
<polygon points="140.00,174.30 145.00,176.80 140.00,179.30 135.00,176.80" fill="#ffe14c"/>
<polygon points="150.00,139.30 155.00,141.80 150.00,144.30 145.00,141.80" fill="#ffe14c"/>
<polygon points="140.00,134.30 145.00,136.80 140.00,139.30 135.00,136.80" fill="#ffe14c"/>
<polygon points="70.00,109.30 75.00,111.80 70.00,114.30 65.00,111.80" fill="#ffff6b"/>
<polygon points="80.00,94.30 85.00,96.80 80.00,99.30 75.00,96.80" fill="#ffff6b"/>
<polygon points="90.00,89.30 95.00,91.80 90.00,94.30 85.00,91.80" fill="#ffff6b"/>
<polygon points="100.00,84.30 105.00,86.80 100.00,89.30 95.00,86.80" fill="#ffff6b"/>
<polygon points="110.00,84.30 115.00,86.80 110.00,89.30 105.00,86.80" fill="#ffff6b"/>
<polygon points="120.00,79.30 125.00,81.80 120.00,84.30 115.00,81.80" fill="#fffcc7"/>
<polygon points="130.00,69.30 135.00,71.80 130.00,74.30 125.00,71.80" fill="#fffcc7"/>
<polygon points="150.00,64.30 155.00,66.80 150.00,69.30 145.00,66.80" fill="#ffff6b"/>
<polygon points="140.00,59.30 145.00,61.80 140.00,64.30 135.00,61.80" fill="#ffff6b"/>
<polygon points="100.00,184.30 105.00,186.80 105.00,181.80 100.00,179.30" fill="#b19030"/>
<polygon points="145.00,176.80 150.00,179.30 145.00,181.80 140.00,179.30" fill="#ffe14c"/>
<polygon points="155.00,141.80 160.00,144.30 155.00,146.80 150.00,144.30" fill="#ffe14c"/>
<polygon points="145.00,136.80 150.00,139.30 145.00,141.80 140.00,139.30" fill="#ffe14c"/>
<polygon points="65.00,111.80 70.00,114.30 65.00,116.80 60.00,114.30" fill="#ffff6b"/>
<polygon points="75.00,96.80 80.00,99.30 75.00,101.80 70.00,99.30" fill="#ffff6b"/>
<polygon points="85.00,91.80 90.00,94.30 85.00,96.80 80.00,94.30" fill="#ffff6b"/>
<polygon points="95.00,86.80 100.00,89.30 95.00,91.80 90.00,89.30" fill="#ffff6b"/>
<polygon points="105.00,86.80 110.00,89.30 105.00,91.80 100.00,89.30" fill="#ffff6b"/>
<polygon points="115.00,81.80 120.00,84.30 115.00,86.80 110.00,84.30" fill="#fffcc7"/>
<polygon points="125.00,71.80 130.00,74.30 125.00,76.80 120.00,74.30" fill="#fffcc7"/>
<polygon points="155.00,66.80 160.00,69.30 155.00,71.80 150.00,69.30" fill="#ffff6b"/>
<polygon points="160.00,74.30 155.00,76.80 155.00,71.80 160.00,69.30" fill="#dbc452"/>
<polygon points="135.00,61.80 140.00,64.30 135.00,66.80 130.00,64.30" fill="#ffff6b"/>
<polygon points="145.00,61.80 150.00,64.30 145.00,66.80 140.00,64.30" fill="#ffff6b"/>
<polygon points="150.00,69.30 145.00,71.80 145.00,66.80 150.00,64.30" fill="#dbc452"/>
<polygon points="105.00,186.80 110.00,189.30 110.00,184.30 105.00,181.80" fill="#b19030"/>
<polygon points="150.00,179.30 155.00,181.80 150.00,184.30 145.00,181.80" fill="#ffe14c"/>
<polygon points="165.00,166.80 160.00,169.30 160.00,164.30 165.00,161.80" fill="#d4ac3a"/>
<polygon points="165.00,161.80 160.00,164.30 160.00,159.30 165.00,156.80" fill="#d4ac3a"/>
<polygon points="165.00,156.80 160.00,159.30 160.00,154.30 165.00,151.80" fill="#d4ac3a"/>
<polygon points="160.00,144.30 165.00,146.80 160.00,149.30 155.00,146.80" fill="#ffe14c"/>
<polygon points="165.00,151.80 160.00,154.30 160.00,149.30 165.00,146.80" fill="#d4ac3a"/>
<polygon points="150.00,139.30 155.00,141.80 150.00,144.30 145.00,141.80" fill="#ffe14c"/>
<polygon points="55.00,136.80 60.00,139.30 60.00,134.30 55.00,131.80" fill="#b7a445"/>
<polygon points="55.00,131.80 60.00,134.30 60.00,129.30 55.00,126.80" fill="#b7a445"/>
<polygon points="55.00,126.80 60.00,129.30 60.00,124.30 55.00,121.80" fill="#b7a445"/>
<polygon points="60.00,114.30 65.00,116.80 60.00,119.30 55.00,116.80" fill="#ffff6b"/>
<polygon points="55.00,121.80 60.00,124.30 60.00,119.30 55.00,116.80" fill="#b7a445"/>
<polygon points="70.00,99.30 75.00,101.80 70.00,104.30 65.00,101.80" fill="#ffff6b"/>
<polygon points="80.00,94.30 85.00,96.80 80.00,99.30 75.00,96.80" fill="#ffff6b"/>
<polygon points="90.00,89.30 95.00,91.80 90.00,94.30 85.00,91.80" fill="#ffff6b"/>
<polygon points="100.00,89.30 105.00,91.80 100.00,94.30 95.00,91.80" fill="#ffff6b"/>
<polygon points="165.00,96.80 160.00,99.30 160.00,94.30 165.00,91.80" fill="#d4ac3a"/>
<polygon points="110.00,84.30 115.00,86.80 110.00,89.30 105.00,86.80" fill="#ffff6b"/>
<polygon points="105.00,91.80 110.00,94.30 110.00,89.30 105.00,86.80" fill="#b7a445"/>
<polygon points="165.00,91.80 160.00,94.30 160.00,89.30 165.00,86.80" fill="#d4ac3a"/>
<polygon points="165.00,86.80 160.00,89.30 160.00,84.30 165.00,81.80" fill="#d4ac3a"/>
<polygon points="120.00,74.30 125.00,76.80 120.00,79.30 115.00,76.80" fill="#ffff6b"/>
<polygon points="160.00,74.30 165.00,76.80 160.00,79.30 155.00,76.80" fill="#ffff6b"/>
<polygon points="165.00,81.80 160.00,84.30 160.00,79.30 165.00,76.80" fill="#dbc452"/>
<polygon points="150.00,69.30 155.00,71.80 150.00,74.30 145.00,71.80" fill="#ffff6b"/>
<polygon points="155.00,76.80 150.00,79.30 150.00,74.30 155.00,71.80" fill="#dbc452"/>
<polygon points="130.00,64.30 135.00,66.80 130.00,69.30 125.00,66.80" fill="#ffff6b"/>
<polygon points="125.00,71.80 130.00,74.30 130.00,69.30 125.00,66.80" fill="#b7a445"/>
<polygon points="140.00,64.30 145.00,66.80 140.00,69.30 135.00,66.80" fill="#ffff6b"/>
<polygon points="145.00,71.80 140.00,74.30 140.00,69.30 145.00,66.80" fill="#dbc452"/>
<polygon points="110.00,189.30 115.00,191.80 115.00,186.80 110.00,184.30" fill="#b19030"/>
<polygon points="155.00,181.80 160.00,184.30 155.00,186.80 150.00,184.30" fill="#ffe14c"/>
<polygon points="160.00,189.30 155.00,191.80 155.00,186.80 160.00,184.30" fill="#d4ac3a"/>
<polygon points="155.00,141.80 160.00,144.30 155.00,146.80 150.00,144.30" fill="#ffe14c"/>
<polygon points="65.00,101.80 70.00,104.30 65.00,106.80 60.00,104.30" fill="#ffff6b"/>
<polygon points="75.00,96.80 80.00,99.30 75.00,101.80 70.00,99.30" fill="#ffff6b"/>
<polygon points="85.00,91.80 90.00,94.30 85.00,96.80 80.00,94.30" fill="#ffff6b"/>
<polygon points="95.00,91.80 100.00,94.30 95.00,96.80 90.00,94.30" fill="#ffff6b"/>
<polygon points="105.00,91.80 110.00,94.30 105.00,96.80 100.00,94.30" fill="#ffff6b"/>
<polygon points="160.00,99.30 155.00,101.80 155.00,96.80 160.00,94.30" fill="#d4ac3a"/>
<polygon points="110.00,94.30 115.00,96.80 115.00,91.80 110.00,89.30" fill="#b19030"/>
<polygon points="160.00,94.30 155.00,96.80 155.00,91.80 160.00,89.30" fill="#d4ac3a"/>
<polygon points="110.00,89.30 115.00,91.80 115.00,86.80 110.00,84.30" fill="#b7a445"/>
<polygon points="160.00,89.30 155.00,91.80 155.00,86.80 160.00,84.30" fill="#d4ac3a"/>
<polygon points="115.00,76.80 120.00,79.30 115.00,81.80 110.00,79.30" fill="#ffff6b"/>
<polygon points="110.00,84.30 115.00,86.80 115.00,81.80 110.00,79.30" fill="#b7a445"/>
<polygon points="155.00,76.80 160.00,79.30 155.00,81.80 150.00,79.30" fill="#22262a"/>
<polygon points="160.00,84.30 155.00,86.80 155.00,81.80 160.00,79.30" fill="#1a1d20"/>
<polygon points="125.00,71.80 130.00,74.30 125.00,76.80 120.00,74.30" fill="#ffff6b"/>
<polygon points="120.00,79.30 125.00,81.80 125.00,76.80 120.00,74.30" fill="#b7a445"/>
<polygon points="145.00,71.80 150.00,74.30 145.00,76.80 140.00,74.30" fill="#ffff6b"/>
<polygon points="150.00,79.30 145.00,81.80 145.00,76.80 150.00,74.30" fill="#dbc452"/>
<polygon points="135.00,66.80 140.00,69.30 135.00,71.80 130.00,69.30" fill="#ffff6b"/>
<polygon points="140.00,74.30 135.00,76.80 135.00,71.80 140.00,69.30" fill="#dbc452"/>
<polygon points="130.00,74.30 135.00,76.80 135.00,71.80 130.00,69.30" fill="#b7a445"/>
<polygon points="115.00,191.80 120.00,194.30 120.00,189.30 115.00,186.80" fill="#b19030"/>
<polygon points="155.00,191.80 150.00,194.30 150.00,189.30 155.00,186.80" fill="#d4ac3a"/>
<polygon points="160.00,144.30 165.00,146.80 160.00,149.30 155.00,146.80" fill="#ffe14c"/>
<polygon points="60.00,104.30 65.00,106.80 60.00,109.30 55.00,106.80" fill="#ffff6b"/>
<polygon points="70.00,99.30 75.00,101.80 70.00,104.30 65.00,101.80" fill="#ffff6b"/>
<polygon points="160.00,99.30 165.00,101.80 160.00,104.30 155.00,101.80" fill="#ffff6b"/>
<polygon points="165.00,106.80 160.00,109.30 160.00,104.30 165.00,101.80" fill="#dbc452"/>
<polygon points="80.00,94.30 85.00,96.80 80.00,99.30 75.00,96.80" fill="#ffff6b"/>
<polygon points="90.00,94.30 95.00,96.80 90.00,99.30 85.00,96.80" fill="#ffff6b"/>
<polygon points="110.00,94.30 115.00,96.80 110.00,99.30 105.00,96.80" fill="#ffff6b"/>
<polygon points="155.00,101.80 150.00,104.30 150.00,99.30 155.00,96.80" fill="#d4ac3a"/>
<polygon points="100.00,89.30 105.00,91.80 100.00,94.30 95.00,91.80" fill="#ffff6b"/>
<polygon points="115.00,96.80 120.00,99.30 120.00,94.30 115.00,91.80" fill="#b19030"/>
<polygon points="155.00,96.80 150.00,99.30 150.00,94.30 155.00,91.80" fill="#d4ac3a"/>
<polygon points="115.00,91.80 120.00,94.30 120.00,89.30 115.00,86.80" fill="#b19030"/>
<polygon points="155.00,91.80 150.00,94.30 150.00,89.30 155.00,86.80" fill="#d4ac3a"/>
<polygon points="120.00,79.30 125.00,81.80 120.00,84.30 115.00,81.80" fill="#ffff6b"/>
<polygon points="115.00,86.80 120.00,89.30 120.00,84.30 115.00,81.80" fill="#b7a445"/>
<polygon points="150.00,79.30 155.00,81.80 150.00,84.30 145.00,81.80" fill="#ffff6b"/>
<polygon points="155.00,86.80 150.00,89.30 150.00,84.30 155.00,81.80" fill="#dbc452"/>
<polygon points="130.00,74.30 135.00,76.80 130.00,79.30 125.00,76.80" fill="#ffff6b"/>
<polygon points="125.00,81.80 130.00,84.30 130.00,79.30 125.00,76.80" fill="#b7a445"/>
<polygon points="140.00,74.30 145.00,76.80 140.00,79.30 135.00,76.80" fill="#ffff6b"/>
<polygon points="145.00,81.80 140.00,84.30 140.00,79.30 145.00,76.80" fill="#dbc452"/>
<polygon points="120.00,194.30 125.00,196.80 125.00,191.80 120.00,189.30" fill="#b19030"/>
<polygon points="150.00,194.30 145.00,196.80 145.00,191.80 150.00,189.30" fill="#d4ac3a"/>
<polygon points="160.00,189.30 155.00,191.80 155.00,186.80 160.00,184.30" fill="#d4ac3a"/>
<polygon points="170.00,184.30 165.00,186.80 165.00,181.80 170.00,179.30" fill="#d4ac3a"/>
<polygon points="170.00,179.30 165.00,181.80 165.00,176.80 170.00,174.30" fill="#d4ac3a"/>
<polygon points="170.00,174.30 165.00,176.80 165.00,171.80 170.00,169.30" fill="#d4ac3a"/>
<polygon points="170.00,169.30 165.00,171.80 165.00,166.80 170.00,164.30" fill="#d4ac3a"/>
<polygon points="170.00,164.30 165.00,166.80 165.00,161.80 170.00,159.30" fill="#d4ac3a"/>
<polygon points="170.00,159.30 165.00,161.80 165.00,156.80 170.00,154.30" fill="#d4ac3a"/>
<polygon points="165.00,146.80 170.00,149.30 165.00,151.80 160.00,149.30" fill="#2f848d"/>
<polygon points="170.00,154.30 165.00,156.80 165.00,151.80 170.00,149.30" fill="#24656c"/>
<polygon points="50.00,149.30 55.00,151.80 55.00,146.80 50.00,144.30" fill="#b7a445"/>
<polygon points="50.00,144.30 55.00,146.80 55.00,141.80 50.00,139.30" fill="#b7a445"/>
<polygon points="50.00,139.30 55.00,141.80 55.00,136.80 50.00,134.30" fill="#b7a445"/>
<polygon points="50.00,134.30 55.00,136.80 55.00,131.80 50.00,129.30" fill="#1e545a"/>
<polygon points="50.00,129.30 55.00,131.80 55.00,126.80 50.00,124.30" fill="#b7a445"/>
<polygon points="50.00,124.30 55.00,126.80 55.00,121.80 50.00,119.30" fill="#b7a445"/>
<polygon points="50.00,119.30 55.00,121.80 55.00,116.80 50.00,114.30" fill="#b7a445"/>
<polygon points="55.00,106.80 60.00,109.30 55.00,111.80 50.00,109.30" fill="#ffff6b"/>
<polygon points="50.00,114.30 55.00,116.80 55.00,111.80 50.00,109.30" fill="#b7a445"/>
<polygon points="65.00,101.80 70.00,104.30 65.00,106.80 60.00,104.30" fill="#ffff6b"/>
<polygon points="155.00,101.80 160.00,104.30 155.00,106.80 150.00,104.30" fill="#ffff6b"/>
<polygon points="160.00,109.30 155.00,111.80 155.00,106.80 160.00,104.30" fill="#dbc452"/>
<polygon points="75.00,96.80 80.00,99.30 75.00,101.80 70.00,99.30" fill="#ffff6b"/>
<polygon points="85.00,96.80 90.00,99.30 85.00,101.80 80.00,99.30" fill="#ffff6b"/>
<polygon points="115.00,96.80 120.00,99.30 115.00,101.80 110.00,99.30" fill="#ffff6b"/>
<polygon points="150.00,104.30 145.00,106.80 145.00,101.80 150.00,99.30" fill="#d4ac3a"/>
<polygon points="95.00,91.80 100.00,94.30 95.00,96.80 90.00,94.30" fill="#ffff6b"/>
<polygon points="90.00,99.30 95.00,101.80 95.00,96.80 90.00,94.30" fill="#b7a445"/>
<polygon points="105.00,91.80 110.00,94.30 105.00,96.80 100.00,94.30" fill="#ffff6b"/>
<polygon points="120.00,99.30 125.00,101.80 125.00,96.80 120.00,94.30" fill="#b19030"/>
<polygon points="150.00,99.30 145.00,101.80 145.00,96.80 150.00,94.30" fill="#d4ac3a"/>
<polygon points="120.00,94.30 125.00,96.80 125.00,91.80 120.00,89.30" fill="#b19030"/>
<polygon points="150.00,94.30 145.00,96.80 145.00,91.80 150.00,89.30" fill="#d4ac3a"/>
<polygon points="125.00,81.80 130.00,84.30 125.00,86.80 120.00,84.30" fill="#ffff6b"/>
<polygon points="120.00,89.30 125.00,91.80 125.00,86.80 120.00,84.30" fill="#b7a445"/>
<polygon points="145.00,81.80 150.00,84.30 145.00,86.80 140.00,84.30" fill="#ffff6b"/>
<polygon points="150.00,89.30 145.00,91.80 145.00,86.80 150.00,84.30" fill="#dbc452"/>
<polygon points="135.00,76.80 140.00,79.30 135.00,81.80 130.00,79.30" fill="#ffff6b"/>
<polygon points="140.00,84.30 135.00,86.80 135.00,81.80 140.00,79.30" fill="#dbc452"/>
<polygon points="130.00,84.30 135.00,86.80 135.00,81.80 130.00,79.30" fill="#b7a445"/>
<polygon points="70.00,189.30 75.00,191.80 70.00,194.30 65.00,191.80" fill="#8a522a"/>
<polygon points="125.00,196.80 130.00,199.30 130.00,194.30 125.00,191.80" fill="#b19030"/>
<polygon points="145.00,196.80 140.00,199.30 140.00,194.30 145.00,191.80" fill="#d4ac3a"/>
<polygon points="155.00,191.80 150.00,194.30 150.00,189.30 155.00,186.80" fill="#d4ac3a"/>
<polygon points="55.00,181.80 60.00,184.30 60.00,179.30 55.00,176.80" fill="#b7a445"/>
<polygon points="55.00,176.80 60.00,179.30 60.00,174.30 55.00,171.80" fill="#b7a445"/>
<polygon points="55.00,171.80 60.00,174.30 60.00,169.30 55.00,166.80" fill="#b7a445"/>
<polygon points="55.00,166.80 60.00,169.30 60.00,164.30 55.00,161.80" fill="#b7a445"/>
<polygon points="55.00,161.80 60.00,164.30 60.00,159.30 55.00,156.80" fill="#b7a445"/>
<polygon points="55.00,156.80 60.00,159.30 60.00,154.30 55.00,151.80" fill="#b7a445"/>
<polygon points="55.00,151.80 60.00,154.30 60.00,149.30 55.00,146.80" fill="#b0a280"/>
<polygon points="55.00,146.80 60.00,149.30 60.00,144.30 55.00,141.80" fill="#b7a445"/>
<polygon points="55.00,141.80 60.00,144.30 60.00,139.30 55.00,136.80" fill="#b7a445"/>
<polygon points="165.00,141.80 160.00,144.30 160.00,139.30 165.00,136.80" fill="#d4ac3a"/>
<polygon points="55.00,136.80 60.00,139.30 60.00,134.30 55.00,131.80" fill="#b7a445"/>
<polygon points="165.00,136.80 160.00,139.30 160.00,134.30 165.00,131.80" fill="#d4ac3a"/>
<polygon points="55.00,131.80 60.00,134.30 60.00,129.30 55.00,126.80" fill="#b7a445"/>
<polygon points="165.00,131.80 160.00,134.30 160.00,129.30 165.00,126.80" fill="#d4ac3a"/>
<polygon points="55.00,126.80 60.00,129.30 60.00,124.30 55.00,121.80" fill="#b7a445"/>
<polygon points="165.00,126.80 160.00,129.30 160.00,124.30 165.00,121.80" fill="#d4ac3a"/>
<polygon points="55.00,121.80 60.00,124.30 60.00,119.30 55.00,116.80" fill="#b7a445"/>
<polygon points="165.00,121.80 160.00,124.30 160.00,119.30 165.00,116.80" fill="#d4ac3a"/>
<polygon points="55.00,116.80 60.00,119.30 60.00,114.30 55.00,111.80" fill="#b7a445"/>
<polygon points="160.00,109.30 165.00,111.80 160.00,114.30 155.00,111.80" fill="#ffff6b"/>
<polygon points="165.00,116.80 160.00,119.30 160.00,114.30 165.00,111.80" fill="#dbc452"/>
<polygon points="60.00,104.30 65.00,106.80 60.00,109.30 55.00,106.80" fill="#ffff6b"/>
<polygon points="55.00,111.80 60.00,114.30 60.00,109.30 55.00,106.80" fill="#b7a445"/>
<polygon points="150.00,104.30 155.00,106.80 150.00,109.30 145.00,106.80" fill="#ffff6b"/>
<polygon points="155.00,111.80 150.00,114.30 150.00,109.30 155.00,106.80" fill="#dbc452"/>
<polygon points="70.00,99.30 75.00,101.80 70.00,104.30 65.00,101.80" fill="#ffff6b"/>
<polygon points="80.00,99.30 85.00,101.80 80.00,104.30 75.00,101.80" fill="#8a522a"/>
<polygon points="90.00,99.30 95.00,101.80 90.00,104.30 85.00,101.80" fill="#ffff6b"/>
<polygon points="120.00,99.30 125.00,101.80 120.00,104.30 115.00,101.80" fill="#ffff6b"/>
<polygon points="145.00,106.80 140.00,109.30 140.00,104.30 145.00,101.80" fill="#d4ac3a"/>
<polygon points="100.00,94.30 105.00,96.80 100.00,99.30 95.00,96.80" fill="#ffff6b"/>
<polygon points="95.00,101.80 100.00,104.30 100.00,99.30 95.00,96.80" fill="#b7a445"/>
<polygon points="110.00,94.30 115.00,96.80 110.00,99.30 105.00,96.80" fill="#ffff6b"/>
<polygon points="125.00,101.80 130.00,104.30 130.00,99.30 125.00,96.80" fill="#b19030"/>
<polygon points="145.00,101.80 140.00,104.30 140.00,99.30 145.00,96.80" fill="#d4ac3a"/>
<polygon points="125.00,96.80 130.00,99.30 130.00,94.30 125.00,91.80" fill="#b19030"/>
<polygon points="145.00,96.80 140.00,99.30 140.00,94.30 145.00,91.80" fill="#d4ac3a"/>
<polygon points="130.00,84.30 135.00,86.80 130.00,89.30 125.00,86.80" fill="#ffff6b"/>
<polygon points="125.00,91.80 130.00,94.30 130.00,89.30 125.00,86.80" fill="#b7a445"/>
<polygon points="140.00,84.30 145.00,86.80 140.00,89.30 135.00,86.80" fill="#ffff6b"/>
<polygon points="145.00,91.80 140.00,94.30 140.00,89.30 145.00,86.80" fill="#dbc452"/>
<polygon points="65.00,191.80 70.00,194.30 65.00,196.80 60.00,194.30" fill="#8a522a"/>
<polygon points="140.00,199.30 135.00,201.80 135.00,196.80 140.00,194.30" fill="#d4ac3a"/>
<polygon points="130.00,199.30 135.00,201.80 135.00,196.80 130.00,194.30" fill="#b19030"/>
<polygon points="150.00,194.30 145.00,196.80 145.00,191.80 150.00,189.30" fill="#d4ac3a"/>
<polygon points="170.00,189.30 165.00,191.80 165.00,186.80 170.00,184.30" fill="#d4ac3a"/>
<polygon points="170.00,184.30 165.00,186.80 165.00,181.80 170.00,179.30" fill="#d4ac3a"/>
<polygon points="170.00,179.30 165.00,181.80 165.00,176.80 170.00,174.30" fill="#d4ac3a"/>
<polygon points="170.00,174.30 165.00,176.80 165.00,171.80 170.00,169.30" fill="#d4ac3a"/>
<polygon points="170.00,169.30 165.00,171.80 165.00,166.80 170.00,164.30" fill="#d4ac3a"/>
<polygon points="170.00,164.30 165.00,166.80 165.00,161.80 170.00,159.30" fill="#d4ac3a"/>
<polygon points="170.00,159.30 165.00,161.80 165.00,156.80 170.00,154.30" fill="#d4ac3a"/>
<polygon points="170.00,154.30 165.00,156.80 165.00,151.80 170.00,149.30" fill="#d4ac3a"/>
<polygon points="165.00,141.80 170.00,144.30 165.00,146.80 160.00,144.30" fill="#2f848d"/>
<polygon points="170.00,149.30 165.00,151.80 165.00,146.80 170.00,144.30" fill="#24656c"/>
<polygon points="160.00,144.30 155.00,146.80 155.00,141.80 160.00,139.30" fill="#d4ac3a"/>
<polygon points="160.00,139.30 155.00,141.80 155.00,136.80 160.00,134.30" fill="#d4ac3a"/>
<polygon points="160.00,134.30 155.00,136.80 155.00,131.80 160.00,129.30" fill="#d4ac3a"/>
<polygon points="160.00,129.30 155.00,131.80 155.00,126.80 160.00,124.30" fill="#d4ac3a"/>
<polygon points="160.00,124.30 155.00,126.80 155.00,121.80 160.00,119.30" fill="#d4ac3a"/>
<polygon points="155.00,111.80 160.00,114.30 155.00,116.80 150.00,114.30" fill="#ffff6b"/>
<polygon points="160.00,119.30 155.00,121.80 155.00,116.80 160.00,114.30" fill="#dbc452"/>
<polygon points="145.00,106.80 150.00,109.30 145.00,111.80 140.00,109.30" fill="#ffff6b"/>
<polygon points="150.00,114.30 145.00,116.80 145.00,111.80 150.00,109.30" fill="#dbc452"/>
<polygon points="65.00,101.80 70.00,104.30 65.00,106.80 60.00,104.30" fill="#fffcc7"/>
<polygon points="75.00,101.80 80.00,104.30 75.00,106.80 70.00,104.30" fill="#8a522a"/>
<polygon points="95.00,101.80 100.00,104.30 95.00,106.80 90.00,104.30" fill="#ffff6b"/>
<polygon points="125.00,101.80 130.00,104.30 125.00,106.80 120.00,104.30" fill="#ffff6b"/>
<polygon points="140.00,109.30 135.00,111.80 135.00,106.80 140.00,104.30" fill="#d4ac3a"/>
<polygon points="85.00,96.80 90.00,99.30 85.00,101.80 80.00,99.30" fill="#ffff6b"/>
<polygon points="105.00,96.80 110.00,99.30 105.00,101.80 100.00,99.30" fill="#ffff6b"/>
<polygon points="100.00,104.30 105.00,106.80 105.00,101.80 100.00,99.30" fill="#b7a445"/>
<polygon points="115.00,96.80 120.00,99.30 115.00,101.80 110.00,99.30" fill="#ffff6b"/>
<polygon points="140.00,104.30 135.00,106.80 135.00,101.80 140.00,99.30" fill="#d4ac3a"/>
<polygon points="130.00,104.30 135.00,106.80 135.00,101.80 130.00,99.30" fill="#b19030"/>
<polygon points="140.00,99.30 135.00,101.80 135.00,96.80 140.00,94.30" fill="#d4ac3a"/>
<polygon points="130.00,99.30 135.00,101.80 135.00,96.80 130.00,94.30" fill="#b19030"/>
<polygon points="135.00,86.80 140.00,89.30 135.00,91.80 130.00,89.30" fill="#ffff6b"/>
<polygon points="140.00,94.30 135.00,96.80 135.00,91.80 140.00,89.30" fill="#dbc452"/>
<polygon points="130.00,94.30 135.00,96.80 135.00,91.80 130.00,89.30" fill="#b7a445"/>
<polygon points="60.00,194.30 65.00,196.80 60.00,199.30 55.00,196.80" fill="#8a522a"/>
<polygon points="55.00,201.80 60.00,204.30 60.00,199.30 55.00,196.80" fill="#59351b"/>
<polygon points="145.00,196.80 140.00,199.30 140.00,194.30 145.00,191.80" fill="#d4ac3a"/>
<polygon points="55.00,191.80 60.00,194.30 60.00,189.30 55.00,186.80" fill="#b7a445"/>
<polygon points="165.00,191.80 160.00,194.30 160.00,189.30 165.00,186.80" fill="#d4ac3a"/>
<polygon points="55.00,186.80 60.00,189.30 60.00,184.30 55.00,181.80" fill="#b7a445"/>
<polygon points="165.00,186.80 160.00,189.30 160.00,184.30 165.00,181.80" fill="#d4ac3a"/>
<polygon points="55.00,181.80 60.00,184.30 60.00,179.30 55.00,176.80" fill="#b7a445"/>
<polygon points="165.00,181.80 160.00,184.30 160.00,179.30 165.00,176.80" fill="#d4ac3a"/>
<polygon points="55.00,176.80 60.00,179.30 60.00,174.30 55.00,171.80" fill="#b7a445"/>
<polygon points="165.00,176.80 160.00,179.30 160.00,174.30 165.00,171.80" fill="#d4ac3a"/>
<polygon points="55.00,171.80 60.00,174.30 60.00,169.30 55.00,166.80" fill="#b7a445"/>
<polygon points="165.00,171.80 160.00,174.30 160.00,169.30 165.00,166.80" fill="#d4ac3a"/>
<polygon points="55.00,166.80 60.00,169.30 60.00,164.30 55.00,161.80" fill="#b7a445"/>
<polygon points="165.00,166.80 160.00,169.30 160.00,164.30 165.00,161.80" fill="#d4ac3a"/>
<polygon points="55.00,161.80 60.00,164.30 60.00,159.30 55.00,156.80" fill="#b7a445"/>
<polygon points="165.00,161.80 160.00,164.30 160.00,159.30 165.00,156.80" fill="#d4ac3a"/>
<polygon points="55.00,156.80 60.00,159.30 60.00,154.30 55.00,151.80" fill="#b7a445"/>
<polygon points="165.00,156.80 160.00,159.30 160.00,154.30 165.00,151.80" fill="#d4ac3a"/>
<polygon points="55.00,151.80 60.00,154.30 60.00,149.30 55.00,146.80" fill="#b7a445"/>
<polygon points="160.00,144.30 165.00,146.80 160.00,149.30 155.00,146.80" fill="#ffff6b"/>
<polygon points="165.00,151.80 160.00,154.30 160.00,149.30 165.00,146.80" fill="#dbc452"/>
<polygon points="55.00,146.80 60.00,149.30 60.00,144.30 55.00,141.80" fill="#1e545a"/>
<polygon points="155.00,146.80 150.00,149.30 150.00,144.30 155.00,141.80" fill="#d4ac3a"/>
<polygon points="55.00,141.80 60.00,144.30 60.00,139.30 55.00,136.80" fill="#1e545a"/>
<polygon points="155.00,141.80 150.00,144.30 150.00,139.30 155.00,136.80" fill="#d4ac3a"/>
<polygon points="55.00,136.80 60.00,139.30 60.00,134.30 55.00,131.80" fill="#b7a445"/>
<polygon points="155.00,136.80 150.00,139.30 150.00,134.30 155.00,131.80" fill="#d4ac3a"/>
<polygon points="55.00,131.80 60.00,134.30 60.00,129.30 55.00,126.80" fill="#b7a445"/>
<polygon points="155.00,131.80 150.00,134.30 150.00,129.30 155.00,126.80" fill="#d4ac3a"/>
<polygon points="55.00,126.80 60.00,129.30 60.00,124.30 55.00,121.80" fill="#b7a445"/>
<polygon points="155.00,126.80 150.00,129.30 150.00,124.30 155.00,121.80" fill="#d4ac3a"/>
<polygon points="55.00,121.80 60.00,124.30 60.00,119.30 55.00,116.80" fill="#b7a445"/>
<polygon points="150.00,114.30 155.00,116.80 150.00,119.30 145.00,116.80" fill="#ffff6b"/>
<polygon points="155.00,121.80 150.00,124.30 150.00,119.30 155.00,116.80" fill="#dbc452"/>
<polygon points="55.00,116.80 60.00,119.30 60.00,114.30 55.00,111.80" fill="#b7a445"/>
<polygon points="140.00,109.30 145.00,111.80 140.00,114.30 135.00,111.80" fill="#ffff6b"/>
<polygon points="145.00,116.80 140.00,119.30 140.00,114.30 145.00,111.80" fill="#dbc452"/>
<polygon points="60.00,104.30 65.00,106.80 60.00,109.30 55.00,106.80" fill="#fffcc7"/>
<polygon points="55.00,111.80 60.00,114.30 60.00,109.30 55.00,106.80" fill="#b0a280"/>
<polygon points="70.00,104.30 75.00,106.80 70.00,109.30 65.00,106.80" fill="#ffff6b"/>
<polygon points="100.00,104.30 105.00,106.80 100.00,109.30 95.00,106.80" fill="#ffff6b"/>
<polygon points="130.00,104.30 135.00,106.80 130.00,109.30 125.00,106.80" fill="#ffff6b"/>
<polygon points="135.00,111.80 130.00,114.30 130.00,109.30 135.00,106.80" fill="#dbc452"/>
<polygon points="80.00,99.30 85.00,101.80 80.00,104.30 75.00,101.80" fill="#fffcc7"/>
<polygon points="110.00,99.30 115.00,101.80 110.00,104.30 105.00,101.80" fill="#ffff6b"/>
<polygon points="105.00,106.80 110.00,109.30 110.00,104.30 105.00,101.80" fill="#b7a445"/>
<polygon points="120.00,99.30 125.00,101.80 120.00,104.30 115.00,101.80" fill="#ffff6b"/>
<polygon points="90.00,89.30 95.00,91.80 90.00,94.30 85.00,91.80" fill="#ffff6b"/>
<polygon points="140.00,199.30 135.00,201.80 135.00,196.80 140.00,194.30" fill="#d4ac3a"/>
<polygon points="160.00,194.30 155.00,196.80 155.00,191.80 160.00,189.30" fill="#d4ac3a"/>
<polygon points="160.00,189.30 155.00,191.80 155.00,186.80 160.00,184.30" fill="#d4ac3a"/>
<polygon points="160.00,184.30 155.00,186.80 155.00,181.80 160.00,179.30" fill="#d4ac3a"/>
<polygon points="160.00,179.30 155.00,181.80 155.00,176.80 160.00,174.30" fill="#d4ac3a"/>
<polygon points="160.00,174.30 155.00,176.80 155.00,171.80 160.00,169.30" fill="#d4ac3a"/>
<polygon points="160.00,169.30 155.00,171.80 155.00,166.80 160.00,164.30" fill="#d4ac3a"/>
<polygon points="160.00,164.30 155.00,166.80 155.00,161.80 160.00,159.30" fill="#d4ac3a"/>
<polygon points="160.00,159.30 155.00,161.80 155.00,156.80 160.00,154.30" fill="#d4ac3a"/>
<polygon points="155.00,146.80 160.00,149.30 155.00,151.80 150.00,149.30" fill="#ffff6b"/>
<polygon points="160.00,154.30 155.00,156.80 155.00,151.80 160.00,149.30" fill="#dbc452"/>
<polygon points="150.00,149.30 145.00,151.80 145.00,146.80 150.00,144.30" fill="#d4ac3a"/>
<polygon points="150.00,144.30 145.00,146.80 145.00,141.80 150.00,139.30" fill="#d4ac3a"/>
<polygon points="150.00,139.30 145.00,141.80 145.00,136.80 150.00,134.30" fill="#d4ac3a"/>
<polygon points="150.00,134.30 145.00,136.80 145.00,131.80 150.00,129.30" fill="#d4ac3a"/>
<polygon points="150.00,129.30 145.00,131.80 145.00,126.80 150.00,124.30" fill="#d4ac3a"/>
<polygon points="145.00,116.80 150.00,119.30 145.00,121.80 140.00,119.30" fill="#ffff6b"/>
<polygon points="150.00,124.30 145.00,126.80 145.00,121.80 150.00,119.30" fill="#dbc452"/>
<polygon points="135.00,111.80 140.00,114.30 135.00,116.80 130.00,114.30" fill="#ffff6b"/>
<polygon points="140.00,119.30 135.00,121.80 135.00,116.80 140.00,114.30" fill="#dbc452"/>
<polygon points="65.00,106.80 70.00,109.30 65.00,111.80 60.00,109.30" fill="#ffff6b"/>
<polygon points="105.00,106.80 110.00,109.30 105.00,111.80 100.00,109.30" fill="#ffff6b"/>
<polygon points="130.00,114.30 125.00,116.80 125.00,111.80 130.00,109.30" fill="#d4ac3a"/>
<polygon points="75.00,101.80 80.00,104.30 75.00,106.80 70.00,104.30" fill="#fffcc7"/>
<polygon points="115.00,101.80 120.00,104.30 115.00,106.80 110.00,104.30" fill="#ffff6b"/>
<polygon points="110.00,109.30 115.00,111.80 115.00,106.80 110.00,104.30" fill="#b7a445"/>
<polygon points="125.00,101.80 130.00,104.30 125.00,106.80 120.00,104.30" fill="#ffff6b"/>
<polygon points="130.00,109.30 125.00,111.80 125.00,106.80 130.00,104.30" fill="#dbc452"/>
<polygon points="85.00,91.80 90.00,94.30 85.00,96.80 80.00,94.30" fill="#ffff6b"/>
<polygon points="95.00,91.80 100.00,94.30 95.00,96.80 90.00,94.30" fill="#ffff6b"/>
<polygon points="55.00,206.80 60.00,209.30 60.00,204.30 55.00,201.80" fill="#59351b"/>
<polygon points="55.00,201.80 60.00,204.30 60.00,199.30 55.00,196.80" fill="#59351b"/>
<polygon points="135.00,201.80 130.00,204.30 130.00,199.30 135.00,196.80" fill="#d4ac3a"/>
<polygon points="55.00,196.80 60.00,199.30 60.00,194.30 55.00,191.80" fill="#b7a445"/>
<polygon points="55.00,191.80 60.00,194.30 60.00,189.30 55.00,186.80" fill="#b7a445"/>
<polygon points="155.00,191.80 150.00,194.30 150.00,189.30 155.00,186.80" fill="#d4ac3a"/>
<polygon points="55.00,186.80 60.00,189.30 60.00,184.30 55.00,181.80" fill="#b7a445"/>
<polygon points="55.00,181.80 60.00,184.30 60.00,179.30 55.00,176.80" fill="#59351b"/>
<polygon points="155.00,181.80 150.00,184.30 150.00,179.30 155.00,176.80" fill="#d4ac3a"/>
<polygon points="55.00,176.80 60.00,179.30 60.00,174.30 55.00,171.80" fill="#b7a445"/>
<polygon points="155.00,176.80 150.00,179.30 150.00,174.30 155.00,171.80" fill="#d4ac3a"/>
<polygon points="55.00,171.80 60.00,174.30 60.00,169.30 55.00,166.80" fill="#b7a445"/>
<polygon points="155.00,171.80 150.00,174.30 150.00,169.30 155.00,166.80" fill="#d4ac3a"/>
<polygon points="55.00,166.80 60.00,169.30 60.00,164.30 55.00,161.80" fill="#b7a445"/>
<polygon points="155.00,166.80 150.00,169.30 150.00,164.30 155.00,161.80" fill="#d4ac3a"/>
<polygon points="55.00,161.80 60.00,164.30 60.00,159.30 55.00,156.80" fill="#b7a445"/>
<polygon points="155.00,161.80 150.00,164.30 150.00,159.30 155.00,156.80" fill="#d4ac3a"/>
<polygon points="55.00,156.80 60.00,159.30 60.00,154.30 55.00,151.80" fill="#1e545a"/>
<polygon points="150.00,149.30 155.00,151.80 150.00,154.30 145.00,151.80" fill="#ffff6b"/>
<polygon points="155.00,156.80 150.00,159.30 150.00,154.30 155.00,151.80" fill="#dbc452"/>
<polygon points="55.00,151.80 60.00,154.30 60.00,149.30 55.00,146.80" fill="#b7a445"/>
<polygon points="145.00,151.80 140.00,154.30 140.00,149.30 145.00,146.80" fill="#d4ac3a"/>
<polygon points="55.00,146.80 60.00,149.30 60.00,144.30 55.00,141.80" fill="#1e545a"/>
<polygon points="145.00,146.80 140.00,149.30 140.00,144.30 145.00,141.80" fill="#d4ac3a"/>
<polygon points="55.00,141.80 60.00,144.30 60.00,139.30 55.00,136.80" fill="#b7a445"/>
<polygon points="145.00,141.80 140.00,144.30 140.00,139.30 145.00,136.80" fill="#d4ac3a"/>
<polygon points="55.00,136.80 60.00,139.30 60.00,134.30 55.00,131.80" fill="#b7a445"/>
<polygon points="145.00,136.80 140.00,139.30 140.00,134.30 145.00,131.80" fill="#d4ac3a"/>
<polygon points="55.00,131.80 60.00,134.30 60.00,129.30 55.00,126.80" fill="#b7a445"/>
<polygon points="145.00,131.80 140.00,134.30 140.00,129.30 145.00,126.80" fill="#d4ac3a"/>
<polygon points="55.00,126.80 60.00,129.30 60.00,124.30 55.00,121.80" fill="#b7a445"/>
<polygon points="140.00,119.30 145.00,121.80 140.00,124.30 135.00,121.80" fill="#fffcc7"/>
<polygon points="145.00,126.80 140.00,129.30 140.00,124.30 145.00,121.80" fill="#d2c199"/>
<polygon points="55.00,121.80 60.00,124.30 60.00,119.30 55.00,116.80" fill="#b7a445"/>
<polygon points="130.00,114.30 135.00,116.80 130.00,119.30 125.00,116.80" fill="#ffff6b"/>
<polygon points="135.00,121.80 130.00,124.30 130.00,119.30 135.00,116.80" fill="#dbc452"/>
<polygon points="60.00,109.30 65.00,111.80 60.00,114.30 55.00,111.80" fill="#ffff6b"/>
<polygon points="55.00,116.80 60.00,119.30 60.00,114.30 55.00,111.80" fill="#b7a445"/>
<polygon points="110.00,109.30 115.00,111.80 110.00,114.30 105.00,111.80" fill="#ffff6b"/>
<polygon points="125.00,116.80 120.00,119.30 120.00,114.30 125.00,111.80" fill="#d4ac3a"/>
<polygon points="70.00,104.30 75.00,106.80 70.00,109.30 65.00,106.80" fill="#fffcc7"/>
<polygon points="120.00,104.30 125.00,106.80 120.00,109.30 115.00,106.80" fill="#ffff6b"/>
<polygon points="125.00,111.80 120.00,114.30 120.00,109.30 125.00,106.80" fill="#dbc452"/>
<polygon points="115.00,111.80 120.00,114.30 120.00,109.30 115.00,106.80" fill="#b7a445"/>
<polygon points="80.00,94.30 85.00,96.80 80.00,99.30 75.00,96.80" fill="#fffcc7"/>
<polygon points="100.00,94.30 105.00,96.80 100.00,99.30 95.00,96.80" fill="#8a522a"/>
<polygon points="90.00,89.30 95.00,91.80 90.00,94.30 85.00,91.80" fill="#ffff6b"/>
<polygon points="60.00,209.30 65.00,211.80 65.00,206.80 60.00,204.30" fill="#59351b"/>
<polygon points="60.00,204.30 65.00,206.80 65.00,201.80 60.00,199.30" fill="#59351b"/>
<polygon points="130.00,204.30 125.00,206.80 125.00,201.80 130.00,199.30" fill="#d4ac3a"/>
<polygon points="60.00,199.30 65.00,201.80 65.00,196.80 60.00,194.30" fill="#b7a445"/>
<polygon points="155.00,191.80 160.00,194.30 155.00,196.80 150.00,194.30" fill="#ffff6b"/>
<polygon points="60.00,194.30 65.00,196.80 65.00,191.80 60.00,189.30" fill="#b7a445"/>
<polygon points="150.00,194.30 145.00,196.80 145.00,191.80 150.00,189.30" fill="#d4ac3a"/>
<polygon points="60.00,189.30 65.00,191.80 65.00,186.80 60.00,184.30" fill="#b7a445"/>
<polygon points="150.00,189.30 145.00,191.80 145.00,186.80 150.00,184.30" fill="#d4ac3a"/>
<polygon points="155.00,181.80 160.00,184.30 155.00,186.80 150.00,184.30" fill="#ffe14c"/>
<polygon points="150.00,189.30 155.00,191.80 155.00,186.80 150.00,184.30" fill="#b19030"/>
<polygon points="60.00,184.30 65.00,186.80 65.00,181.80 60.00,179.30" fill="#b7a445"/>
<polygon points="150.00,184.30 145.00,186.80 145.00,181.80 150.00,179.30" fill="#d4ac3a"/>
<polygon points="60.00,179.30 65.00,181.80 65.00,176.80 60.00,174.30" fill="#b7a445"/>
<polygon points="150.00,179.30 145.00,181.80 145.00,176.80 150.00,174.30" fill="#d4ac3a"/>
<polygon points="60.00,174.30 65.00,176.80 65.00,171.80 60.00,169.30" fill="#b7a445"/>
<polygon points="150.00,174.30 145.00,176.80 145.00,171.80 150.00,169.30" fill="#d4ac3a"/>
<polygon points="60.00,169.30 65.00,171.80 65.00,166.80 60.00,164.30" fill="#b7a445"/>
<polygon points="150.00,169.30 145.00,171.80 145.00,166.80 150.00,164.30" fill="#d4ac3a"/>
<polygon points="60.00,164.30 65.00,166.80 65.00,161.80 60.00,159.30" fill="#b7a445"/>
<polygon points="150.00,164.30 145.00,166.80 145.00,161.80 150.00,159.30" fill="#d4ac3a"/>
<polygon points="60.00,159.30 65.00,161.80 65.00,156.80 60.00,154.30" fill="#b7a445"/>
<polygon points="145.00,151.80 150.00,154.30 145.00,156.80 140.00,154.30" fill="#fffcc7"/>
<polygon points="150.00,159.30 145.00,161.80 145.00,156.80 150.00,154.30" fill="#d2c199"/>
<polygon points="60.00,154.30 65.00,156.80 65.00,151.80 60.00,149.30" fill="#b7a445"/>
<polygon points="140.00,154.30 135.00,156.80 135.00,151.80 140.00,149.30" fill="#d4ac3a"/>
<polygon points="60.00,149.30 65.00,151.80 65.00,146.80 60.00,144.30" fill="#1e545a"/>
<polygon points="140.00,149.30 135.00,151.80 135.00,146.80 140.00,144.30" fill="#d4ac3a"/>
<polygon points="60.00,144.30 65.00,146.80 65.00,141.80 60.00,139.30" fill="#1e545a"/>
<polygon points="140.00,144.30 135.00,146.80 135.00,141.80 140.00,139.30" fill="#d4ac3a"/>
<polygon points="60.00,139.30 65.00,141.80 65.00,136.80 60.00,134.30" fill="#b7a445"/>
<polygon points="140.00,139.30 135.00,141.80 135.00,136.80 140.00,134.30" fill="#d4ac3a"/>
<polygon points="60.00,134.30 65.00,136.80 65.00,131.80 60.00,129.30" fill="#b7a445"/>
<polygon points="140.00,134.30 135.00,136.80 135.00,131.80 140.00,129.30" fill="#d4ac3a"/>
<polygon points="60.00,129.30 65.00,131.80 65.00,126.80 60.00,124.30" fill="#b7a445"/>
<polygon points="135.00,121.80 140.00,124.30 135.00,126.80 130.00,124.30" fill="#ffff6b"/>
<polygon points="140.00,129.30 135.00,131.80 135.00,126.80 140.00,124.30" fill="#dbc452"/>
<polygon points="60.00,124.30 65.00,126.80 65.00,121.80 60.00,119.30" fill="#b7a445"/>
<polygon points="125.00,116.80 130.00,119.30 125.00,121.80 120.00,119.30" fill="#ffff6b"/>
<polygon points="130.00,124.30 125.00,126.80 125.00,121.80 130.00,119.30" fill="#dbc452"/>
<polygon points="60.00,119.30 65.00,121.80 65.00,116.80 60.00,114.30" fill="#b7a445"/>
<polygon points="115.00,111.80 120.00,114.30 115.00,116.80 110.00,114.30" fill="#ffff6b"/>
<polygon points="120.00,119.30 115.00,121.80 115.00,116.80 120.00,114.30" fill="#dbc452"/>
<polygon points="65.00,106.80 70.00,109.30 65.00,111.80 60.00,109.30" fill="#fffcc7"/>
<polygon points="60.00,114.30 65.00,116.80 65.00,111.80 60.00,109.30" fill="#b0a280"/>
<polygon points="75.00,96.80 80.00,99.30 75.00,101.80 70.00,99.30" fill="#fffcc7"/>
<polygon points="105.00,96.80 110.00,99.30 105.00,101.80 100.00,99.30" fill="#8a522a"/>
<polygon points="95.00,91.80 100.00,94.30 95.00,96.80 90.00,94.30" fill="#8a522a"/>
<polygon points="85.00,86.80 90.00,89.30 85.00,91.80 80.00,89.30" fill="#ffff6b"/>
<polygon points="65.00,211.80 70.00,214.30 70.00,209.30 65.00,206.80" fill="#59351b"/>
<polygon points="65.00,206.80 70.00,209.30 70.00,204.30 65.00,201.80" fill="#59351b"/>
<polygon points="125.00,206.80 120.00,209.30 120.00,204.30 125.00,201.80" fill="#d4ac3a"/>
<polygon points="65.00,201.80 70.00,204.30 70.00,199.30 65.00,196.80" fill="#b7a445"/>
<polygon points="150.00,194.30 155.00,196.80 150.00,199.30 145.00,196.80" fill="#fffcc7"/>
<polygon points="160.00,194.30 165.00,196.80 160.00,199.30 155.00,196.80" fill="#ffe14c"/>
<polygon points="165.00,201.80 160.00,204.30 160.00,199.30 165.00,196.80" fill="#d4ac3a"/>
<polygon points="65.00,196.80 70.00,199.30 70.00,194.30 65.00,191.80" fill="#b7a445"/>
<polygon points="145.00,196.80 140.00,199.30 140.00,194.30 145.00,191.80" fill="#d4ac3a"/>
<polygon points="65.00,191.80 70.00,194.30 70.00,189.30 65.00,186.80" fill="#b7a445"/>
<polygon points="145.00,191.80 140.00,194.30 140.00,189.30 145.00,186.80" fill="#d4ac3a"/>
<polygon points="165.00,191.80 160.00,194.30 160.00,189.30 165.00,186.80" fill="#d4ac3a"/>
<polygon points="65.00,186.80 70.00,189.30 70.00,184.30 65.00,181.80" fill="#b7a445"/>
<polygon points="145.00,186.80 140.00,189.30 140.00,184.30 145.00,181.80" fill="#d4ac3a"/>
<polygon points="160.00,179.30 165.00,181.80 160.00,184.30 155.00,181.80" fill="#ffff6b"/>
<polygon points="165.00,186.80 160.00,189.30 160.00,184.30 165.00,181.80" fill="#dbc452"/>
<polygon points="65.00,181.80 70.00,184.30 70.00,179.30 65.00,176.80" fill="#b7a445"/>
<polygon points="145.00,181.80 140.00,184.30 140.00,179.30 145.00,176.80" fill="#d4ac3a"/>
<polygon points="65.00,176.80 70.00,179.30 70.00,174.30 65.00,171.80" fill="#b7a445"/>
<polygon points="145.00,176.80 140.00,179.30 140.00,174.30 145.00,171.80" fill="#d4ac3a"/>
<polygon points="65.00,171.80 70.00,174.30 70.00,169.30 65.00,166.80" fill="#b7a445"/>
<polygon points="145.00,171.80 140.00,174.30 140.00,169.30 145.00,166.80" fill="#d4ac3a"/>
<polygon points="65.00,166.80 70.00,169.30 70.00,164.30 65.00,161.80" fill="#b7a445"/>
<polygon points="145.00,166.80 140.00,169.30 140.00,164.30 145.00,161.80" fill="#d4ac3a"/>
<polygon points="65.00,161.80 70.00,164.30 70.00,159.30 65.00,156.80" fill="#b7a445"/>
<polygon points="140.00,154.30 145.00,156.80 140.00,159.30 135.00,156.80" fill="#ffff6b"/>
<polygon points="145.00,161.80 140.00,164.30 140.00,159.30 145.00,156.80" fill="#dbc452"/>
<polygon points="65.00,156.80 70.00,159.30 70.00,154.30 65.00,151.80" fill="#b7a445"/>
<polygon points="135.00,156.80 130.00,159.30 130.00,154.30 135.00,151.80" fill="#d4ac3a"/>
<polygon points="65.00,151.80 70.00,154.30 70.00,149.30 65.00,146.80" fill="#1e545a"/>
<polygon points="135.00,151.80 130.00,154.30 130.00,149.30 135.00,146.80" fill="#d4ac3a"/>
<polygon points="65.00,146.80 70.00,149.30 70.00,144.30 65.00,141.80" fill="#b7a445"/>
<polygon points="135.00,146.80 130.00,149.30 130.00,144.30 135.00,141.80" fill="#d4ac3a"/>
<polygon points="65.00,141.80 70.00,144.30 70.00,139.30 65.00,136.80" fill="#b7a445"/>
<polygon points="135.00,141.80 130.00,144.30 130.00,139.30 135.00,136.80" fill="#d4ac3a"/>
<polygon points="65.00,136.80 70.00,139.30 70.00,134.30 65.00,131.80" fill="#b7a445"/>
<polygon points="135.00,136.80 130.00,139.30 130.00,134.30 135.00,131.80" fill="#d4ac3a"/>
<polygon points="65.00,131.80 70.00,134.30 70.00,129.30 65.00,126.80" fill="#b7a445"/>
<polygon points="130.00,124.30 135.00,126.80 130.00,129.30 125.00,126.80" fill="#ffff6b"/>
<polygon points="135.00,131.80 130.00,134.30 130.00,129.30 135.00,126.80" fill="#dbc452"/>
<polygon points="65.00,126.80 70.00,129.30 70.00,124.30 65.00,121.80" fill="#b7a445"/>
<polygon points="120.00,119.30 125.00,121.80 120.00,124.30 115.00,121.80" fill="#ffff6b"/>
<polygon points="125.00,126.80 120.00,129.30 120.00,124.30 125.00,121.80" fill="#dbc452"/>
<polygon points="65.00,121.80 70.00,124.30 70.00,119.30 65.00,116.80" fill="#b7a445"/>
<polygon points="115.00,121.80 110.00,124.30 110.00,119.30 115.00,116.80" fill="#d4ac3a"/>
<polygon points="65.00,116.80 70.00,119.30 70.00,114.30 65.00,111.80" fill="#b7a445"/>
<polygon points="115.00,116.80 110.00,119.30 110.00,114.30 115.00,111.80" fill="#d4ac3a"/>
<polygon points="65.00,111.80 70.00,114.30 70.00,109.30 65.00,106.80" fill="#b0a280"/>
<polygon points="115.00,111.80 110.00,114.30 110.00,109.30 115.00,106.80" fill="#d4ac3a"/>
<polygon points="70.00,99.30 75.00,101.80 70.00,104.30 65.00,101.80" fill="#fffcc7"/>
<polygon points="65.00,106.80 70.00,109.30 70.00,104.30 65.00,101.80" fill="#b0a280"/>
<polygon points="110.00,99.30 115.00,101.80 110.00,104.30 105.00,101.80" fill="#ffff6b"/>
<polygon points="115.00,106.80 110.00,109.30 110.00,104.30 115.00,101.80" fill="#dbc452"/>
<polygon points="100.00,94.30 105.00,96.80 100.00,99.30 95.00,96.80" fill="#8a522a"/>
<polygon points="105.00,101.80 100.00,104.30 100.00,99.30 105.00,96.80" fill="#6a3f20"/>
<polygon points="80.00,89.30 85.00,91.80 80.00,94.30 75.00,91.80" fill="#ffff6b"/>
<polygon points="90.00,89.30 95.00,91.80 90.00,94.30 85.00,91.80" fill="#ffff6b"/>
<polygon points="95.00,96.80 90.00,99.30 90.00,94.30 95.00,91.80" fill="#dbc452"/>
<polygon points="70.00,214.30 75.00,216.80 75.00,211.80 70.00,209.30" fill="#59351b"/>
<polygon points="110.00,214.30 105.00,216.80 105.00,211.80 110.00,209.30" fill="#d4ac3a"/>
<polygon points="70.00,209.30 75.00,211.80 75.00,206.80 70.00,204.30" fill="#b7a445"/>
<polygon points="120.00,209.30 115.00,211.80 115.00,206.80 120.00,204.30" fill="#d4ac3a"/>
<polygon points="145.00,196.80 150.00,199.30 145.00,201.80 140.00,199.30" fill="#ffff6b"/>
<polygon points="155.00,196.80 160.00,199.30 155.00,201.80 150.00,199.30" fill="#ffe14c"/>
<polygon points="140.00,199.30 135.00,201.80 135.00,196.80 140.00,194.30" fill="#d4ac3a"/>
<polygon points="140.00,194.30 135.00,196.80 135.00,191.80 140.00,189.30" fill="#d4ac3a"/>
<polygon points="160.00,194.30 155.00,196.80 155.00,191.80 160.00,189.30" fill="#d4ac3a"/>
<polygon points="140.00,189.30 135.00,191.80 135.00,186.80 140.00,184.30" fill="#d4ac3a"/>
<polygon points="155.00,181.80 160.00,184.30 155.00,186.80 150.00,184.30" fill="#ffff6b"/>
<polygon points="140.00,184.30 135.00,186.80 135.00,181.80 140.00,179.30" fill="#d4ac3a"/>
<polygon points="140.00,179.30 135.00,181.80 135.00,176.80 140.00,174.30" fill="#d4ac3a"/>
<polygon points="140.00,174.30 135.00,176.80 135.00,171.80 140.00,169.30" fill="#d4ac3a"/>
<polygon points="70.00,169.30 75.00,171.80 75.00,166.80 70.00,164.30" fill="#b7a445"/>
<polygon points="140.00,169.30 135.00,171.80 135.00,166.80 140.00,164.30" fill="#d4ac3a"/>
<polygon points="70.00,164.30 75.00,166.80 75.00,161.80 70.00,159.30" fill="#b7a445"/>
<polygon points="135.00,156.80 140.00,159.30 135.00,161.80 130.00,159.30" fill="#ffff6b"/>
<polygon points="140.00,164.30 135.00,166.80 135.00,161.80 140.00,159.30" fill="#dbc452"/>
<polygon points="70.00,159.30 75.00,161.80 75.00,156.80 70.00,154.30" fill="#b7a445"/>
<polygon points="130.00,159.30 125.00,161.80 125.00,156.80 130.00,154.30" fill="#d4ac3a"/>
<polygon points="70.00,154.30 75.00,156.80 75.00,151.80 70.00,149.30" fill="#b7a445"/>
<polygon points="130.00,154.30 125.00,156.80 125.00,151.80 130.00,149.30" fill="#d4ac3a"/>
<polygon points="70.00,149.30 75.00,151.80 75.00,146.80 70.00,144.30" fill="#b7a445"/>
<polygon points="130.00,149.30 125.00,151.80 125.00,146.80 130.00,144.30" fill="#d4ac3a"/>
<polygon points="70.00,144.30 75.00,146.80 75.00,141.80 70.00,139.30" fill="#b7a445"/>
<polygon points="130.00,144.30 125.00,146.80 125.00,141.80 130.00,139.30" fill="#d4ac3a"/>
<polygon points="70.00,139.30 75.00,141.80 75.00,136.80 70.00,134.30" fill="#b7a445"/>
<polygon points="130.00,139.30 125.00,141.80 125.00,136.80 130.00,134.30" fill="#d4ac3a"/>
<polygon points="70.00,134.30 75.00,136.80 75.00,131.80 70.00,129.30" fill="#b7a445"/>
<polygon points="125.00,126.80 130.00,129.30 125.00,131.80 120.00,129.30" fill="#ffff6b"/>
<polygon points="130.00,134.30 125.00,136.80 125.00,131.80 130.00,129.30" fill="#dbc452"/>
<polygon points="115.00,121.80 120.00,124.30 115.00,126.80 110.00,124.30" fill="#ffff6b"/>
<polygon points="120.00,129.30 115.00,131.80 115.00,126.80 120.00,124.30" fill="#dbc452"/>
<polygon points="110.00,124.30 105.00,126.80 105.00,121.80 110.00,119.30" fill="#d4ac3a"/>
<polygon points="110.00,119.30 105.00,121.80 105.00,116.80 110.00,114.30" fill="#d4ac3a"/>
<polygon points="110.00,114.30 105.00,116.80 105.00,111.80 110.00,109.30" fill="#d4ac3a"/>
<polygon points="105.00,101.80 110.00,104.30 105.00,106.80 100.00,104.30" fill="#ffff6b"/>
<polygon points="110.00,109.30 105.00,111.80 105.00,106.80 110.00,104.30" fill="#dbc452"/>
<polygon points="95.00,96.80 100.00,99.30 95.00,101.80 90.00,99.30" fill="#ffff6b"/>
<polygon points="100.00,104.30 95.00,106.80 95.00,101.80 100.00,99.30" fill="#dbc452"/>
<polygon points="75.00,91.80 80.00,94.30 75.00,96.80 70.00,94.30" fill="#ffff6b"/>
<polygon points="85.00,91.80 90.00,94.30 85.00,96.80 80.00,94.30" fill="#ffff6b"/>
<polygon points="90.00,99.30 85.00,101.80 85.00,96.80 90.00,94.30" fill="#dbc452"/>
<polygon points="75.00,216.80 80.00,219.30 80.00,214.30 75.00,211.80" fill="#b7a445"/>
<polygon points="105.00,216.80 100.00,219.30 100.00,214.30 105.00,211.80" fill="#d4ac3a"/>
<polygon points="75.00,211.80 80.00,214.30 80.00,209.30 75.00,206.80" fill="#b7a445"/>
<polygon points="115.00,211.80 110.00,214.30 110.00,209.30 115.00,206.80" fill="#d4ac3a"/>
<polygon points="75.00,206.80 70.00,209.30 70.00,204.30 75.00,201.80" fill="#dbc452"/>
<polygon points="65.00,206.80 70.00,209.30 70.00,204.30 65.00,201.80" fill="#b7a445"/>
<polygon points="75.00,206.80 80.00,209.30 80.00,204.30 75.00,201.80" fill="#b7a445"/>
<polygon points="135.00,206.80 130.00,209.30 130.00,204.30 135.00,201.80" fill="#d4ac3a"/>
<polygon points="140.00,199.30 145.00,201.80 140.00,204.30 135.00,201.80" fill="#ffff6b"/>
<polygon points="135.00,206.80 140.00,209.30 140.00,204.30 135.00,201.80" fill="#b7a445"/>
<polygon points="150.00,199.30 155.00,201.80 150.00,204.30 145.00,201.80" fill="#ffe14c"/>
<polygon points="160.00,199.30 165.00,201.80 160.00,204.30 155.00,201.80" fill="#ffe14c"/>
<polygon points="165.00,206.80 160.00,209.30 160.00,204.30 165.00,201.80" fill="#d4ac3a"/>
<polygon points="75.00,201.80 70.00,204.30 70.00,199.30 75.00,196.80" fill="#dbc452"/>
<polygon points="65.00,201.80 70.00,204.30 70.00,199.30 65.00,196.80" fill="#b7a445"/>
<polygon points="75.00,201.80 80.00,204.30 80.00,199.30 75.00,196.80" fill="#b7a445"/>
<polygon points="135.00,201.80 130.00,204.30 130.00,199.30 135.00,196.80" fill="#d4ac3a"/>
<polygon points="75.00,196.80 70.00,199.30 70.00,194.30 75.00,191.80" fill="#d4ac3a"/>
<polygon points="65.00,196.80 70.00,199.30 70.00,194.30 65.00,191.80" fill="#b19030"/>
<polygon points="75.00,196.80 80.00,199.30 80.00,194.30 75.00,191.80" fill="#b7a445"/>
<polygon points="135.00,196.80 130.00,199.30 130.00,194.30 135.00,191.80" fill="#d4ac3a"/>
<polygon points="75.00,191.80 70.00,194.30 70.00,189.30 75.00,186.80" fill="#dbc452"/>
<polygon points="75.00,191.80 80.00,194.30 80.00,189.30 75.00,186.80" fill="#b7a445"/>
<polygon points="135.00,191.80 130.00,194.30 130.00,189.30 135.00,186.80" fill="#d4ac3a"/>
<polygon points="150.00,184.30 155.00,186.80 150.00,189.30 145.00,186.80" fill="#ffff6b"/>
<polygon points="160.00,184.30 165.00,186.80 160.00,189.30 155.00,186.80" fill="#ffff6b"/>
<polygon points="165.00,191.80 160.00,194.30 160.00,189.30 165.00,186.80" fill="#dbc452"/>
<polygon points="75.00,186.80 70.00,189.30 70.00,184.30 75.00,181.80" fill="#dbc452"/>
<polygon points="75.00,186.80 80.00,189.30 80.00,184.30 75.00,181.80" fill="#b7a445"/>
<polygon points="135.00,186.80 130.00,189.30 130.00,184.30 135.00,181.80" fill="#d4ac3a"/>
<polygon points="75.00,181.80 70.00,184.30 70.00,179.30 75.00,176.80" fill="#dbc452"/>
<polygon points="75.00,181.80 80.00,184.30 80.00,179.30 75.00,176.80" fill="#b7a445"/>
<polygon points="135.00,181.80 130.00,184.30 130.00,179.30 135.00,176.80" fill="#d4ac3a"/>
<polygon points="70.00,169.30 75.00,171.80 70.00,174.30 65.00,171.80" fill="#ffff6b"/>
<polygon points="75.00,176.80 70.00,179.30 70.00,174.30 75.00,171.80" fill="#dbc452"/>
<polygon points="65.00,176.80 70.00,179.30 70.00,174.30 65.00,171.80" fill="#b7a445"/>
<polygon points="75.00,176.80 80.00,179.30 80.00,174.30 75.00,171.80" fill="#b7a445"/>
<polygon points="135.00,176.80 130.00,179.30 130.00,174.30 135.00,171.80" fill="#d4ac3a"/>
<polygon points="75.00,171.80 80.00,174.30 80.00,169.30 75.00,166.80" fill="#b7a445"/>
<polygon points="135.00,171.80 130.00,174.30 130.00,169.30 135.00,166.80" fill="#d4ac3a"/>
<polygon points="75.00,166.80 80.00,169.30 80.00,164.30 75.00,161.80" fill="#b7a445"/>
<polygon points="130.00,159.30 135.00,161.80 130.00,164.30 125.00,161.80" fill="#ffff6b"/>
<polygon points="135.00,166.80 130.00,169.30 130.00,164.30 135.00,161.80" fill="#dbc452"/>
<polygon points="75.00,161.80 80.00,164.30 80.00,159.30 75.00,156.80" fill="#b7a445"/>
<polygon points="125.00,161.80 120.00,164.30 120.00,159.30 125.00,156.80" fill="#d4ac3a"/>
<polygon points="75.00,156.80 80.00,159.30 80.00,154.30 75.00,151.80" fill="#b7a445"/>
<polygon points="125.00,156.80 120.00,159.30 120.00,154.30 125.00,151.80" fill="#d4ac3a"/>
<polygon points="75.00,151.80 80.00,154.30 80.00,149.30 75.00,146.80" fill="#b7a445"/>
<polygon points="125.00,151.80 120.00,154.30 120.00,149.30 125.00,146.80" fill="#d4ac3a"/>
<polygon points="75.00,146.80 80.00,149.30 80.00,144.30 75.00,141.80" fill="#b7a445"/>
<polygon points="125.00,146.80 120.00,149.30 120.00,144.30 125.00,141.80" fill="#d4ac3a"/>
<polygon points="75.00,141.80 80.00,144.30 80.00,139.30 75.00,136.80" fill="#b7a445"/>
<polygon points="125.00,141.80 120.00,144.30 120.00,139.30 125.00,136.80" fill="#d4ac3a"/>
<polygon points="75.00,136.80 80.00,139.30 80.00,134.30 75.00,131.80" fill="#b7a445"/>
<polygon points="120.00,129.30 125.00,131.80 120.00,134.30 115.00,131.80" fill="#ffff6b"/>
<polygon points="125.00,136.80 120.00,139.30 120.00,134.30 125.00,131.80" fill="#dbc452"/>
<polygon points="75.00,131.80 70.00,134.30 70.00,129.30 75.00,126.80" fill="#dbc452"/>
<polygon points="65.00,131.80 70.00,134.30 70.00,129.30 65.00,126.80" fill="#b7a445"/>
<polygon points="75.00,131.80 80.00,134.30 80.00,129.30 75.00,126.80" fill="#b0a280"/>
<polygon points="110.00,124.30 115.00,126.80 110.00,129.30 105.00,126.80" fill="#ffff6b"/>
<polygon points="115.00,131.80 110.00,134.30 110.00,129.30 115.00,126.80" fill="#dbc452"/>
<polygon points="75.00,126.80 70.00,129.30 70.00,124.30 75.00,121.80" fill="#dbc452"/>
<polygon points="75.00,126.80 80.00,129.30 80.00,124.30 75.00,121.80" fill="#b0a280"/>
<polygon points="105.00,126.80 100.00,129.30 100.00,124.30 105.00,121.80" fill="#d4ac3a"/>
<polygon points="75.00,121.80 70.00,124.30 70.00,119.30 75.00,116.80" fill="#dbc452"/>
<polygon points="75.00,121.80 80.00,124.30 80.00,119.30 75.00,116.80" fill="#b19030"/>
<polygon points="105.00,121.80 100.00,124.30 100.00,119.30 105.00,116.80" fill="#d4ac3a"/>
<polygon points="75.00,116.80 70.00,119.30 70.00,114.30 75.00,111.80" fill="#dbc452"/>
<polygon points="75.00,116.80 80.00,119.30 80.00,114.30 75.00,111.80" fill="#b19030"/>
<polygon points="105.00,116.80 100.00,119.30 100.00,114.30 105.00,111.80" fill="#d4ac3a"/>
<polygon points="75.00,111.80 70.00,114.30 70.00,109.30 75.00,106.80" fill="#dbc452"/>
<polygon points="75.00,111.80 80.00,114.30 80.00,109.30 75.00,106.80" fill="#b19030"/>
<polygon points="100.00,104.30 105.00,106.80 100.00,109.30 95.00,106.80" fill="#ffff6b"/>
<polygon points="105.00,111.80 100.00,114.30 100.00,109.30 105.00,106.80" fill="#dbc452"/>
<polygon points="75.00,106.80 70.00,109.30 70.00,104.30 75.00,101.80" fill="#dbc452"/>
<polygon points="75.00,106.80 80.00,109.30 80.00,104.30 75.00,101.80" fill="#b7a445"/>
<polygon points="90.00,99.30 95.00,101.80 90.00,104.30 85.00,101.80" fill="#ffff6b"/>
<polygon points="95.00,106.80 90.00,109.30 90.00,104.30 95.00,101.80" fill="#dbc452"/>
<polygon points="70.00,94.30 75.00,96.80 70.00,99.30 65.00,96.80" fill="#ffff6b"/>
<polygon points="75.00,101.80 70.00,104.30 70.00,99.30 75.00,96.80" fill="#dbc452"/>
<polygon points="65.00,101.80 70.00,104.30 70.00,99.30 65.00,96.80" fill="#b7a445"/>
<polygon points="80.00,94.30 85.00,96.80 80.00,99.30 75.00,96.80" fill="#ffff6b"/>
<polygon points="85.00,101.80 80.00,104.30 80.00,99.30 85.00,96.80" fill="#dbc452"/>
<polygon points="75.00,101.80 80.00,104.30 80.00,99.30 75.00,96.80" fill="#b7a445"/>
<polygon points="90.00,219.30 85.00,221.80 85.00,216.80 90.00,214.30" fill="#dbc452"/>
<polygon points="80.00,219.30 85.00,221.80 85.00,216.80 80.00,214.30" fill="#b7a445"/>
<polygon points="100.00,219.30 95.00,221.80 95.00,216.80 100.00,214.30" fill="#dbc452"/>
<polygon points="90.00,219.30 95.00,221.80 95.00,216.80 90.00,214.30" fill="#b7a445"/>
<polygon points="90.00,214.30 85.00,216.80 85.00,211.80 90.00,209.30" fill="#dbc452"/>
<polygon points="80.00,214.30 85.00,216.80 85.00,211.80 80.00,209.30" fill="#b7a445"/>
<polygon points="100.00,214.30 95.00,216.80 95.00,211.80 100.00,209.30" fill="#dbc452"/>
<polygon points="90.00,214.30 95.00,216.80 95.00,211.80 90.00,209.30" fill="#b7a445"/>
<polygon points="110.00,214.30 105.00,216.80 105.00,211.80 110.00,209.30" fill="#dbc452"/>
<polygon points="100.00,214.30 105.00,216.80 105.00,211.80 100.00,209.30" fill="#b7a445"/>
<polygon points="90.00,209.30 85.00,211.80 85.00,206.80 90.00,204.30" fill="#dbc452"/>
<polygon points="80.00,209.30 85.00,211.80 85.00,206.80 80.00,204.30" fill="#b7a445"/>
<polygon points="100.00,209.30 95.00,211.80 95.00,206.80 100.00,204.30" fill="#dbc452"/>
<polygon points="90.00,209.30 95.00,211.80 95.00,206.80 90.00,204.30" fill="#b7a445"/>
<polygon points="100.00,209.30 105.00,211.80 105.00,206.80 100.00,204.30" fill="#b7a445"/>
<polygon points="120.00,209.30 115.00,211.80 115.00,206.80 120.00,204.30" fill="#d4ac3a"/>
<polygon points="130.00,209.30 125.00,211.80 125.00,206.80 130.00,204.30" fill="#dbc452"/>
<polygon points="120.00,209.30 125.00,211.80 125.00,206.80 120.00,204.30" fill="#b7a445"/>
<polygon points="145.00,201.80 150.00,204.30 145.00,206.80 140.00,204.30" fill="#ffff6b"/>
<polygon points="140.00,209.30 145.00,211.80 145.00,206.80 140.00,204.30" fill="#b7a445"/>
<polygon points="155.00,201.80 160.00,204.30 155.00,206.80 150.00,204.30" fill="#ffe14c"/>
<polygon points="160.00,209.30 155.00,211.80 155.00,206.80 160.00,204.30" fill="#d4ac3a"/>
<polygon points="90.00,204.30 85.00,206.80 85.00,201.80 90.00,199.30" fill="#dbc452"/>
<polygon points="80.00,204.30 85.00,206.80 85.00,201.80 80.00,199.30" fill="#b7a445"/>
<polygon points="100.00,204.30 95.00,206.80 95.00,201.80 100.00,199.30" fill="#dbc452"/>
<polygon points="90.00,204.30 95.00,206.80 95.00,201.80 90.00,199.30" fill="#b7a445"/>
<polygon points="100.00,204.30 105.00,206.80 105.00,201.80 100.00,199.30" fill="#b7a445"/>
<polygon points="120.00,204.30 115.00,206.80 115.00,201.80 120.00,199.30" fill="#d4ac3a"/>
<polygon points="130.00,204.30 125.00,206.80 125.00,201.80 130.00,199.30" fill="#dbc452"/>
<polygon points="120.00,204.30 125.00,206.80 125.00,201.80 120.00,199.30" fill="#b7a445"/>
<polygon points="170.00,204.30 165.00,206.80 165.00,201.80 170.00,199.30" fill="#d4ac3a"/>
<polygon points="90.00,199.30 85.00,201.80 85.00,196.80 90.00,194.30" fill="#dbc452"/>
<polygon points="80.00,199.30 85.00,201.80 85.00,196.80 80.00,194.30" fill="#b7a445"/>
<polygon points="100.00,199.30 95.00,201.80 95.00,196.80 100.00,194.30" fill="#dbc452"/>
<polygon points="90.00,199.30 95.00,201.80 95.00,196.80 90.00,194.30" fill="#b7a445"/>
<polygon points="100.00,199.30 105.00,201.80 105.00,196.80 100.00,194.30" fill="#b7a445"/>
<polygon points="120.00,199.30 115.00,201.80 115.00,196.80 120.00,194.30" fill="#d4ac3a"/>
<polygon points="130.00,199.30 125.00,201.80 125.00,196.80 130.00,194.30" fill="#dbc452"/>
<polygon points="120.00,199.30 125.00,201.80 125.00,196.80 120.00,194.30" fill="#b7a445"/>
<polygon points="150.00,199.30 145.00,201.80 145.00,196.80 150.00,194.30" fill="#dbc452"/>
<polygon points="140.00,199.30 145.00,201.80 145.00,196.80 140.00,194.30" fill="#b7a445"/>
<polygon points="165.00,191.80 170.00,194.30 165.00,196.80 160.00,194.30" fill="#ffff6b"/>
<polygon points="170.00,199.30 165.00,201.80 165.00,196.80 170.00,194.30" fill="#dbc452"/>
<polygon points="150.00,199.30 155.00,201.80 155.00,196.80 150.00,194.30" fill="#b19030"/>
<polygon points="70.00,194.30 65.00,196.80 65.00,191.80 70.00,189.30" fill="#dbc452"/>
<polygon points="60.00,194.30 65.00,196.80 65.00,191.80 60.00,189.30" fill="#b7a445"/>
<polygon points="90.00,194.30 85.00,196.80 85.00,191.80 90.00,189.30" fill="#d4ac3a"/>
<polygon points="80.00,194.30 85.00,196.80 85.00,191.80 80.00,189.30" fill="#b19030"/>
<polygon points="100.00,194.30 95.00,196.80 95.00,191.80 100.00,189.30" fill="#dbc452"/>
<polygon points="90.00,194.30 95.00,196.80 95.00,191.80 90.00,189.30" fill="#b7a445"/>
<polygon points="100.00,194.30 105.00,196.80 105.00,191.80 100.00,189.30" fill="#59351b"/>
<polygon points="120.00,194.30 115.00,196.80 115.00,191.80 120.00,189.30" fill="#d4ac3a"/>
<polygon points="130.00,194.30 125.00,196.80 125.00,191.80 130.00,189.30" fill="#dbc452"/>
<polygon points="120.00,194.30 125.00,196.80 125.00,191.80 120.00,189.30" fill="#b7a445"/>
<polygon points="145.00,186.80 150.00,189.30 145.00,191.80 140.00,189.30" fill="#ffff6b"/>
<polygon points="140.00,194.30 145.00,196.80 145.00,191.80 140.00,189.30" fill="#b7a445"/>
<polygon points="155.00,186.80 160.00,189.30 155.00,191.80 150.00,189.30" fill="#ffe14c"/>
<polygon points="160.00,194.30 155.00,196.80 155.00,191.80 160.00,189.30" fill="#d4ac3a"/>
<polygon points="60.00,189.30 65.00,191.80 65.00,186.80 60.00,184.30" fill="#b19030"/>
<polygon points="90.00,189.30 85.00,191.80 85.00,186.80 90.00,184.30" fill="#d4ac3a"/>
<polygon points="80.00,189.30 85.00,191.80 85.00,186.80 80.00,184.30" fill="#b19030"/>
<polygon points="100.00,189.30 95.00,191.80 95.00,186.80 100.00,184.30" fill="#dbc452"/>
<polygon points="90.00,189.30 95.00,191.80 95.00,186.80 90.00,184.30" fill="#b7a445"/>
<polygon points="100.00,189.30 105.00,191.80 105.00,186.80 100.00,184.30" fill="#59351b"/>
<polygon points="120.00,189.30 115.00,191.80 115.00,186.80 120.00,184.30" fill="#d4ac3a"/>
<polygon points="130.00,189.30 125.00,191.80 125.00,186.80 130.00,184.30" fill="#dbc452"/>
<polygon points="120.00,189.30 125.00,191.80 125.00,186.80 120.00,184.30" fill="#b7a445"/>
<polygon points="65.00,176.80 70.00,179.30 65.00,181.80 60.00,179.30" fill="#ffff6b"/>
<polygon points="70.00,184.30 65.00,186.80 65.00,181.80 70.00,179.30" fill="#dbc452"/>
<polygon points="60.00,184.30 65.00,186.80 65.00,181.80 60.00,179.30" fill="#b7a445"/>
<polygon points="90.00,184.30 85.00,186.80 85.00,181.80 90.00,179.30" fill="#d4ac3a"/>
<polygon points="80.00,184.30 85.00,186.80 85.00,181.80 80.00,179.30" fill="#b19030"/>
<polygon points="100.00,184.30 95.00,186.80 95.00,181.80 100.00,179.30" fill="#dbc452"/>
<polygon points="90.00,184.30 95.00,186.80 95.00,181.80 90.00,179.30" fill="#b7a445"/>
<polygon points="100.00,184.30 105.00,186.80 105.00,181.80 100.00,179.30" fill="#b7a445"/>
<polygon points="120.00,184.30 115.00,186.80 115.00,181.80 120.00,179.30" fill="#d4ac3a"/>
<polygon points="130.00,184.30 125.00,186.80 125.00,181.80 130.00,179.30" fill="#dbc452"/>
<polygon points="120.00,184.30 125.00,186.80 125.00,181.80 120.00,179.30" fill="#b7a445"/>
<polygon points="90.00,179.30 85.00,181.80 85.00,176.80 90.00,174.30" fill="#dbc452"/>
<polygon points="80.00,179.30 85.00,181.80 85.00,176.80 80.00,174.30" fill="#b7a445"/>
<polygon points="100.00,179.30 95.00,181.80 95.00,176.80 100.00,174.30" fill="#dbc452"/>
<polygon points="90.00,179.30 95.00,181.80 95.00,176.80 90.00,174.30" fill="#b7a445"/>
<polygon points="100.00,179.30 105.00,181.80 105.00,176.80 100.00,174.30" fill="#59351b"/>
<polygon points="120.00,179.30 115.00,181.80 115.00,176.80 120.00,174.30" fill="#d4ac3a"/>
<polygon points="130.00,179.30 125.00,181.80 125.00,176.80 130.00,174.30" fill="#dbc452"/>
<polygon points="120.00,179.30 125.00,181.80 125.00,176.80 120.00,174.30" fill="#b7a445"/>
<polygon points="90.00,174.30 85.00,176.80 85.00,171.80 90.00,169.30" fill="#dbc452"/>
<polygon points="80.00,174.30 85.00,176.80 85.00,171.80 80.00,169.30" fill="#b7a445"/>
<polygon points="100.00,174.30 95.00,176.80 95.00,171.80 100.00,169.30" fill="#dbc452"/>
<polygon points="90.00,174.30 95.00,176.80 95.00,171.80 90.00,169.30" fill="#b7a445"/>
<polygon points="100.00,174.30 105.00,176.80 105.00,171.80 100.00,169.30" fill="#59351b"/>
<polygon points="120.00,174.30 115.00,176.80 115.00,171.80 120.00,169.30" fill="#d4ac3a"/>
<polygon points="130.00,174.30 125.00,176.80 125.00,171.80 130.00,169.30" fill="#dbc452"/>
<polygon points="120.00,174.30 125.00,176.80 125.00,171.80 120.00,169.30" fill="#b7a445"/>
<polygon points="90.00,169.30 85.00,171.80 85.00,166.80 90.00,164.30" fill="#dbc452"/>
<polygon points="80.00,169.30 85.00,171.80 85.00,166.80 80.00,164.30" fill="#b7a445"/>
<polygon points="100.00,169.30 95.00,171.80 95.00,166.80 100.00,164.30" fill="#dbc452"/>
<polygon points="90.00,169.30 95.00,171.80 95.00,166.80 90.00,164.30" fill="#b7a445"/>
<polygon points="100.00,169.30 105.00,171.80 105.00,166.80 100.00,164.30" fill="#b7a445"/>
<polygon points="120.00,169.30 115.00,171.80 115.00,166.80 120.00,164.30" fill="#d4ac3a"/>
<polygon points="125.00,161.80 130.00,164.30 125.00,166.80 120.00,164.30" fill="#ffff6b"/>
<polygon points="130.00,169.30 125.00,171.80 125.00,166.80 130.00,164.30" fill="#dbc452"/>
<polygon points="120.00,169.30 125.00,171.80 125.00,166.80 120.00,164.30" fill="#b7a445"/>
<polygon points="90.00,164.30 85.00,166.80 85.00,161.80 90.00,159.30" fill="#dbc452"/>
<polygon points="80.00,164.30 85.00,166.80 85.00,161.80 80.00,159.30" fill="#b7a445"/>
<polygon points="100.00,164.30 95.00,166.80 95.00,161.80 100.00,159.30" fill="#dbc452"/>
<polygon points="90.00,164.30 95.00,166.80 95.00,161.80 90.00,159.30" fill="#b7a445"/>
<polygon points="100.00,164.30 105.00,166.80 105.00,161.80 100.00,159.30" fill="#b7a445"/>
<polygon points="120.00,164.30 115.00,166.80 115.00,161.80 120.00,159.30" fill="#d4ac3a"/>
<polygon points="90.00,159.30 85.00,161.80 85.00,156.80 90.00,154.30" fill="#dbc452"/>
<polygon points="80.00,159.30 85.00,161.80 85.00,156.80 80.00,154.30" fill="#b7a445"/>
<polygon points="100.00,159.30 95.00,161.80 95.00,156.80 100.00,154.30" fill="#dbc452"/>
<polygon points="90.00,159.30 95.00,161.80 95.00,156.80 90.00,154.30" fill="#b7a445"/>
<polygon points="100.00,159.30 105.00,161.80 105.00,156.80 100.00,154.30" fill="#b7a445"/>
<polygon points="120.00,159.30 115.00,161.80 115.00,156.80 120.00,154.30" fill="#d4ac3a"/>
<polygon points="90.00,154.30 85.00,156.80 85.00,151.80 90.00,149.30" fill="#dbc452"/>
<polygon points="80.00,154.30 85.00,156.80 85.00,151.80 80.00,149.30" fill="#b7a445"/>
<polygon points="100.00,154.30 95.00,156.80 95.00,151.80 100.00,149.30" fill="#dbc452"/>
<polygon points="90.00,154.30 95.00,156.80 95.00,151.80 90.00,149.30" fill="#b7a445"/>
<polygon points="100.00,154.30 105.00,156.80 105.00,151.80 100.00,149.30" fill="#b7a445"/>
<polygon points="120.00,154.30 115.00,156.80 115.00,151.80 120.00,149.30" fill="#d4ac3a"/>
<polygon points="90.00,149.30 85.00,151.80 85.00,146.80 90.00,144.30" fill="#dbc452"/>
<polygon points="80.00,149.30 85.00,151.80 85.00,146.80 80.00,144.30" fill="#b7a445"/>
<polygon points="100.00,149.30 95.00,151.80 95.00,146.80 100.00,144.30" fill="#dbc452"/>
<polygon points="90.00,149.30 95.00,151.80 95.00,146.80 90.00,144.30" fill="#b7a445"/>
<polygon points="100.00,149.30 105.00,151.80 105.00,146.80 100.00,144.30" fill="#b7a445"/>
<polygon points="120.00,149.30 115.00,151.80 115.00,146.80 120.00,144.30" fill="#d4ac3a"/>
<polygon points="90.00,144.30 85.00,146.80 85.00,141.80 90.00,139.30" fill="#dbc452"/>
<polygon points="80.00,144.30 85.00,146.80 85.00,141.80 80.00,139.30" fill="#b7a445"/>
<polygon points="100.00,144.30 95.00,146.80 95.00,141.80 100.00,139.30" fill="#dbc452"/>
<polygon points="90.00,144.30 95.00,146.80 95.00,141.80 90.00,139.30" fill="#b7a445"/>
<polygon points="100.00,144.30 105.00,146.80 105.00,141.80 100.00,139.30" fill="#b7a445"/>
<polygon points="120.00,144.30 115.00,146.80 115.00,141.80 120.00,139.30" fill="#d4ac3a"/>
<polygon points="90.00,139.30 85.00,141.80 85.00,136.80 90.00,134.30" fill="#dbc452"/>
<polygon points="80.00,139.30 85.00,141.80 85.00,136.80 80.00,134.30" fill="#b7a445"/>
<polygon points="100.00,139.30 95.00,141.80 95.00,136.80 100.00,134.30" fill="#dbc452"/>
<polygon points="90.00,139.30 95.00,141.80 95.00,136.80 90.00,134.30" fill="#b7a445"/>
<polygon points="100.00,139.30 105.00,141.80 105.00,136.80 100.00,134.30" fill="#b7a445"/>
<polygon points="115.00,131.80 120.00,134.30 115.00,136.80 110.00,134.30" fill="#ffff6b"/>
<polygon points="120.00,139.30 115.00,141.80 115.00,136.80 120.00,134.30" fill="#dbc452"/>
<polygon points="90.00,134.30 85.00,136.80 85.00,131.80 90.00,129.30" fill="#dbc452"/>
<polygon points="80.00,134.30 85.00,136.80 85.00,131.80 80.00,129.30" fill="#b7a445"/>
<polygon points="100.00,134.30 95.00,136.80 95.00,131.80 100.00,129.30" fill="#dbc452"/>
<polygon points="90.00,134.30 95.00,136.80 95.00,131.80 90.00,129.30" fill="#b7a445"/>
<polygon points="105.00,126.80 110.00,129.30 105.00,131.80 100.00,129.30" fill="#ffff6b"/>
<polygon points="110.00,134.30 105.00,136.80 105.00,131.80 110.00,129.30" fill="#dbc452"/>
<polygon points="100.00,134.30 105.00,136.80 105.00,131.80 100.00,129.30" fill="#b7a445"/>
<polygon points="70.00,129.30 65.00,131.80 65.00,126.80 70.00,124.30" fill="#dbc452"/>
<polygon points="60.00,129.30 65.00,131.80 65.00,126.80 60.00,124.30" fill="#b7a445"/>
<polygon points="90.00,129.30 85.00,131.80 85.00,126.80 90.00,124.30" fill="#d4ac3a"/>
<polygon points="80.00,129.30 85.00,131.80 85.00,126.80 80.00,124.30" fill="#b19030"/>
<polygon points="100.00,129.30 95.00,131.80 95.00,126.80 100.00,124.30" fill="#dbc452"/>
<polygon points="90.00,129.30 95.00,131.80 95.00,126.80 90.00,124.30" fill="#b7a445"/>
<polygon points="70.00,124.30 65.00,126.80 65.00,121.80 70.00,119.30" fill="#dbc452"/>
<polygon points="90.00,124.30 85.00,126.80 85.00,121.80 90.00,119.30" fill="#d4ac3a"/>
<polygon points="80.00,124.30 85.00,126.80 85.00,121.80 80.00,119.30" fill="#b19030"/>
<polygon points="100.00,124.30 95.00,126.80 95.00,121.80 100.00,119.30" fill="#dbc452"/>
<polygon points="90.00,124.30 95.00,126.80 95.00,121.80 90.00,119.30" fill="#b7a445"/>
<polygon points="70.00,119.30 65.00,121.80 65.00,116.80 70.00,114.30" fill="#dbc452"/>
<polygon points="90.00,119.30 85.00,121.80 85.00,116.80 90.00,114.30" fill="#d4ac3a"/>
<polygon points="80.00,119.30 85.00,121.80 85.00,116.80 80.00,114.30" fill="#b19030"/>
<polygon points="100.00,119.30 95.00,121.80 95.00,116.80 100.00,114.30" fill="#dbc452"/>
<polygon points="90.00,119.30 95.00,121.80 95.00,116.80 90.00,114.30" fill="#b7a445"/>
<polygon points="90.00,114.30 85.00,116.80 85.00,111.80 90.00,109.30" fill="#d4ac3a"/>
<polygon points="80.00,114.30 85.00,116.80 85.00,111.80 80.00,109.30" fill="#b19030"/>
<polygon points="95.00,106.80 100.00,109.30 95.00,111.80 90.00,109.30" fill="#ffff6b"/>
<polygon points="100.00,114.30 95.00,116.80 95.00,111.80 100.00,109.30" fill="#dbc452"/>
<polygon points="90.00,114.30 95.00,116.80 95.00,111.80 90.00,109.30" fill="#b7a445"/>
<polygon points="65.00,101.80 70.00,104.30 65.00,106.80 60.00,104.30" fill="#ffe14c"/>
<polygon points="70.00,109.30 65.00,111.80 65.00,106.80 70.00,104.30" fill="#d4ac3a"/>
<polygon points="60.00,109.30 65.00,111.80 65.00,106.80 60.00,104.30" fill="#b19030"/>
<polygon points="85.00,101.80 90.00,104.30 85.00,106.80 80.00,104.30" fill="#ffff6b"/>
<polygon points="90.00,109.30 85.00,111.80 85.00,106.80 90.00,104.30" fill="#dbc452"/>
<polygon points="80.00,109.30 85.00,111.80 85.00,106.80 80.00,104.30" fill="#b7a445"/>
<polygon points="115.00,211.80 110.00,214.30 110.00,209.30 115.00,206.80" fill="#dbc452"/>
<polygon points="105.00,211.80 110.00,214.30 110.00,209.30 105.00,206.80" fill="#b7a445"/>
<polygon points="150.00,204.30 155.00,206.80 150.00,209.30 145.00,206.80" fill="#ffff6b"/>
<polygon points="155.00,211.80 150.00,214.30 150.00,209.30 155.00,206.80" fill="#dbc452"/>
<polygon points="145.00,211.80 150.00,214.30 150.00,209.30 145.00,206.80" fill="#b7a445"/>
<polygon points="115.00,206.80 110.00,209.30 110.00,204.30 115.00,201.80" fill="#dbc452"/>
<polygon points="105.00,206.80 110.00,209.30 110.00,204.30 105.00,201.80" fill="#b7a445"/>
<polygon points="165.00,206.80 160.00,209.30 160.00,204.30 165.00,201.80" fill="#dbc452"/>
<polygon points="155.00,206.80 160.00,209.30 160.00,204.30 155.00,201.80" fill="#b7a445"/>
<polygon points="115.00,201.80 110.00,204.30 110.00,199.30 115.00,196.80" fill="#dbc452"/>
<polygon points="105.00,201.80 110.00,204.30 110.00,199.30 105.00,196.80" fill="#b7a445"/>
<polygon points="160.00,194.30 165.00,196.80 160.00,199.30 155.00,196.80" fill="#ffff6b"/>
<polygon points="165.00,201.80 160.00,204.30 160.00,199.30 165.00,196.80" fill="#dbc452"/>
<polygon points="155.00,201.80 160.00,204.30 160.00,199.30 155.00,196.80" fill="#b7a445"/>
<polygon points="115.00,196.80 110.00,199.30 110.00,194.30 115.00,191.80" fill="#6a3f20"/>
<polygon points="105.00,196.80 110.00,199.30 110.00,194.30 105.00,191.80" fill="#59351b"/>
<polygon points="150.00,189.30 155.00,191.80 150.00,194.30 145.00,191.80" fill="#ffff6b"/>
<polygon points="155.00,196.80 150.00,199.30 150.00,194.30 155.00,191.80" fill="#dbc452"/>
<polygon points="145.00,196.80 150.00,199.30 150.00,194.30 145.00,191.80" fill="#b7a445"/>
<polygon points="115.00,191.80 110.00,194.30 110.00,189.30 115.00,186.80" fill="#6a3f20"/>
<polygon points="105.00,191.80 110.00,194.30 110.00,189.30 105.00,186.80" fill="#59351b"/>
<polygon points="70.00,184.30 75.00,186.80 70.00,189.30 65.00,186.80" fill="#ffe14c"/>
<polygon points="65.00,191.80 70.00,194.30 70.00,189.30 65.00,186.80" fill="#b19030"/>
<polygon points="115.00,186.80 110.00,189.30 110.00,184.30 115.00,181.80" fill="#dbc452"/>
<polygon points="105.00,186.80 110.00,189.30 110.00,184.30 105.00,181.80" fill="#b7a445"/>
<polygon points="115.00,181.80 110.00,184.30 110.00,179.30 115.00,176.80" fill="#6a3f20"/>
<polygon points="105.00,181.80 110.00,184.30 110.00,179.30 105.00,176.80" fill="#59351b"/>
<polygon points="115.00,176.80 110.00,179.30 110.00,174.30 115.00,171.80" fill="#6a3f20"/>
<polygon points="105.00,176.80 110.00,179.30 110.00,174.30 105.00,171.80" fill="#59351b"/>
<polygon points="115.00,171.80 110.00,174.30 110.00,169.30 115.00,166.80" fill="#dbc452"/>
<polygon points="105.00,171.80 110.00,174.30 110.00,169.30 105.00,166.80" fill="#b7a445"/>
<polygon points="115.00,166.80 110.00,169.30 110.00,164.30 115.00,161.80" fill="#dbc452"/>
<polygon points="105.00,166.80 110.00,169.30 110.00,164.30 105.00,161.80" fill="#b7a445"/>
<polygon points="115.00,161.80 110.00,164.30 110.00,159.30 115.00,156.80" fill="#dbc452"/>
<polygon points="105.00,161.80 110.00,164.30 110.00,159.30 105.00,156.80" fill="#b7a445"/>
<polygon points="115.00,156.80 110.00,159.30 110.00,154.30 115.00,151.80" fill="#dbc452"/>
<polygon points="105.00,156.80 110.00,159.30 110.00,154.30 105.00,151.80" fill="#b7a445"/>
<polygon points="115.00,151.80 110.00,154.30 110.00,149.30 115.00,146.80" fill="#dbc452"/>
<polygon points="105.00,151.80 110.00,154.30 110.00,149.30 105.00,146.80" fill="#b7a445"/>
<polygon points="115.00,146.80 110.00,149.30 110.00,144.30 115.00,141.80" fill="#dbc452"/>
<polygon points="105.00,146.80 110.00,149.30 110.00,144.30 105.00,141.80" fill="#b7a445"/>
<polygon points="110.00,134.30 115.00,136.80 110.00,139.30 105.00,136.80" fill="#ffff6b"/>
<polygon points="115.00,141.80 110.00,144.30 110.00,139.30 115.00,136.80" fill="#dbc452"/>
<polygon points="105.00,141.80 110.00,144.30 110.00,139.30 105.00,136.80" fill="#b7a445"/>
<polygon points="55.00,126.80 60.00,129.30 60.00,124.30 55.00,121.80" fill="#b19030"/>
<polygon points="55.00,121.80 60.00,124.30 60.00,119.30 55.00,116.80" fill="#b7a445"/>
<polygon points="60.00,109.30 65.00,111.80 60.00,114.30 55.00,111.80" fill="#ffff6b"/>
<polygon points="55.00,116.80 60.00,119.30 60.00,114.30 55.00,111.80" fill="#b7a445"/>
<polygon points="70.00,109.30 75.00,111.80 70.00,114.30 65.00,111.80" fill="#ffe14c"/>
<polygon points="80.00,199.30 75.00,201.80 75.00,196.80 80.00,194.30" fill="#dbc452"/>
<polygon points="70.00,199.30 75.00,201.80 75.00,196.80 70.00,194.30" fill="#b7a445"/>
<polygon points="80.00,194.30 75.00,196.80 75.00,191.80 80.00,189.30" fill="#dbc452"/>
<polygon points="70.00,194.30 75.00,196.80 75.00,191.80 70.00,189.30" fill="#b7a445"/>
<polygon points="75.00,181.80 80.00,184.30 75.00,186.80 70.00,184.30" fill="#ffff6b"/>
<polygon points="80.00,189.30 75.00,191.80 75.00,186.80 80.00,184.30" fill="#dbc452"/>
<polygon points="70.00,189.30 75.00,191.80 75.00,186.80 70.00,184.30" fill="#b7a445"/>
<polygon points="80.00,134.30 75.00,136.80 75.00,131.80 80.00,129.30" fill="#dbc452"/>
<polygon points="70.00,134.30 75.00,136.80 75.00,131.80 70.00,129.30" fill="#b7a445"/>
<polygon points="70.00,129.30 65.00,131.80 65.00,126.80 70.00,124.30" fill="#d2c199"/>
<polygon points="60.00,129.30 65.00,131.80 65.00,126.80 60.00,124.30" fill="#b0a280"/>
<polygon points="80.00,129.30 75.00,131.80 75.00,126.80 80.00,124.30" fill="#dbc452"/>
<polygon points="70.00,129.30 75.00,131.80 75.00,126.80 70.00,124.30" fill="#b7a445"/>
<polygon points="70.00,124.30 65.00,126.80 65.00,121.80 70.00,119.30" fill="#d2c199"/>
<polygon points="60.00,124.30 65.00,126.80 65.00,121.80 60.00,119.30" fill="#b0a280"/>
<polygon points="80.00,124.30 75.00,126.80 75.00,121.80 80.00,119.30" fill="#dbc452"/>
<polygon points="70.00,124.30 75.00,126.80 75.00,121.80 70.00,119.30" fill="#b7a445"/>
<polygon points="65.00,111.80 70.00,114.30 65.00,116.80 60.00,114.30" fill="#ffe14c"/>
<polygon points="70.00,119.30 65.00,121.80 65.00,116.80 70.00,114.30" fill="#d4ac3a"/>
<polygon points="60.00,119.30 65.00,121.80 65.00,116.80 60.00,114.30" fill="#b19030"/>
<polygon points="80.00,119.30 75.00,121.80 75.00,116.80 80.00,114.30" fill="#dbc452"/>
<polygon points="70.00,119.30 75.00,121.80 75.00,116.80 70.00,114.30" fill="#b7a445"/>
<polygon points="75.00,106.80 80.00,109.30 75.00,111.80 70.00,109.30" fill="#ffff6b"/>
<polygon points="80.00,114.30 75.00,116.80 75.00,111.80 80.00,109.30" fill="#dbc452"/>
<polygon points="70.00,114.30 75.00,116.80 75.00,111.80 70.00,109.30" fill="#b7a445"/>
<text x="12" y="174">voxel_yellow_fantasy_mouse</text>
</svg>