<svg xmlns="http://www.w3.org/2000/svg" width="1260" height="760" viewBox="0 0 1260 760">
<rect width="100%" height="100%" fill="#f4f1e9"/>
<style>text{font:12px Arial, sans-serif;fill:#606060}</style>
<polygon points="87.50,83.05 92.50,85.55 87.50,88.05 82.50,85.55" fill="#ffb3bc"/>
<polygon points="62.50,100.55 67.50,103.05 62.50,105.55 57.50,103.05" fill="#ff8fa1"/>
<polygon points="82.50,85.55 87.50,88.05 82.50,90.55 77.50,88.05" fill="#ffb3bc"/>
<polygon points="97.50,83.05 92.50,85.55 92.50,80.55 97.50,78.05" fill="#db8990"/>
<polygon points="92.50,70.55 97.50,73.05 92.50,75.55 87.50,73.05" fill="#ffb3bc"/>
<polygon points="97.50,78.05 92.50,80.55 92.50,75.55 97.50,73.05" fill="#db8990"/>
<polygon points="57.50,103.05 62.50,105.55 57.50,108.05 52.50,105.55" fill="#ff8fa1"/>
<polygon points="67.50,103.05 72.50,105.55 67.50,108.05 62.50,105.55" fill="#ff748f"/>
<polygon points="77.50,88.05 82.50,90.55 77.50,93.05 72.50,90.55" fill="#ffb3bc"/>
<polygon points="97.50,83.05 102.50,85.55 97.50,88.05 92.50,85.55" fill="#ffb3c5"/>
<polygon points="92.50,85.55 87.50,88.05 87.50,83.05 92.50,80.55" fill="#c7596e"/>
<polygon points="82.50,85.55 87.50,88.05 87.50,83.05 82.50,80.55" fill="#a74a5c"/>
<polygon points="87.50,73.05 92.50,75.55 87.50,78.05 82.50,75.55" fill="#ffb3bc"/>
<polygon points="92.50,80.55 87.50,83.05 87.50,78.05 92.50,75.55" fill="#db8990"/>
<polygon points="82.50,80.55 87.50,83.05 87.50,78.05 82.50,75.55" fill="#b77378"/>
<polygon points="47.50,123.05 52.50,125.55 52.50,120.55 47.50,118.05" fill="#ac5c67"/>
<polygon points="47.50,118.05 52.50,120.55 52.50,115.55 47.50,113.05" fill="#842239"/>
<polygon points="52.50,105.55 57.50,108.05 52.50,110.55 47.50,108.05" fill="#ff8fa1"/>
<polygon points="47.50,113.05 52.50,115.55 52.50,110.55 47.50,108.05" fill="#ac5c67"/>
<polygon points="62.50,105.55 67.50,108.05 62.50,110.55 57.50,108.05" fill="#ff748f"/>
<polygon points="72.50,90.55 77.50,93.05 72.50,95.55 67.50,93.05" fill="#ffb3c5"/>
<polygon points="82.50,85.55 87.50,88.05 82.50,90.55 77.50,88.05" fill="#ffb3c5"/>
<polygon points="92.50,85.55 97.50,88.05 92.50,90.55 87.50,88.05" fill="#ff748f"/>
<polygon points="102.50,75.55 107.50,78.05 102.50,80.55 97.50,78.05" fill="#ffb3c5"/>
<polygon points="107.50,83.05 102.50,85.55 102.50,80.55 107.50,78.05" fill="#db8997"/>
<polygon points="82.50,155.55 87.50,158.05 87.50,153.05 82.50,150.55" fill="#1c1c1c"/>
<polygon points="112.50,155.55 107.50,158.05 107.50,153.05 112.50,150.55" fill="#db8990"/>
<polygon points="82.50,150.55 87.50,153.05 87.50,148.05 82.50,145.55" fill="#1c1c1c"/>
<polygon points="112.50,150.55 107.50,153.05 107.50,148.05 112.50,145.55" fill="#db8990"/>
<polygon points="82.50,145.55 87.50,148.05 87.50,143.05 82.50,140.55" fill="#b7737e"/>
<polygon points="112.50,145.55 107.50,148.05 107.50,143.05 112.50,140.55" fill="#db8990"/>
<polygon points="82.50,140.55 87.50,143.05 87.50,138.05 82.50,135.55" fill="#b7737e"/>
<polygon points="112.50,140.55 107.50,143.05 107.50,138.05 112.50,135.55" fill="#db8990"/>
<polygon points="52.50,125.55 57.50,128.05 57.50,123.05 52.50,120.55" fill="#a74a5c"/>
<polygon points="52.50,120.55 57.50,123.05 57.50,118.05 52.50,115.55" fill="#a74a5c"/>
<polygon points="57.50,108.05 62.50,110.55 57.50,113.05 52.50,110.55" fill="#ff748f"/>
<polygon points="52.50,115.55 57.50,118.05 57.50,113.05 52.50,110.55" fill="#a74a5c"/>
<polygon points="67.50,93.05 72.50,95.55 67.50,98.05 62.50,95.55" fill="#ffb3bc"/>
<polygon points="77.50,88.05 82.50,90.55 77.50,93.05 72.50,90.55" fill="#ffb3c5"/>
<polygon points="87.50,88.05 92.50,90.55 87.50,93.05 82.50,90.55" fill="#ff748f"/>
<polygon points="112.50,95.55 107.50,98.05 107.50,93.05 112.50,90.55" fill="#db8990"/>
<polygon points="92.50,90.55 97.50,93.05 97.50,88.05 92.50,85.55" fill="#b77378"/>
<polygon points="107.50,83.05 112.50,85.55 107.50,88.05 102.50,85.55" fill="#ffb3bc"/>
<polygon points="112.50,90.55 107.50,93.05 107.50,88.05 112.50,85.55" fill="#db8990"/>
<polygon points="97.50,78.05 102.50,80.55 97.50,83.05 92.50,80.55" fill="#ffb3bc"/>
<polygon points="102.50,85.55 97.50,88.05 97.50,83.05 102.50,80.55" fill="#db8990"/>
<polygon points="92.50,85.55 97.50,88.05 97.50,83.05 92.50,80.55" fill="#b77378"/>
<polygon points="87.50,158.05 92.50,160.55 92.50,155.55 87.50,153.05" fill="#b77378"/>
<polygon points="107.50,158.05 102.50,160.55 102.50,155.55 107.50,153.05" fill="#db8990"/>
<polygon points="87.50,153.05 92.50,155.55 92.50,150.55 87.50,148.05" fill="#b77378"/>
<polygon points="107.50,153.05 102.50,155.55 102.50,150.55 107.50,148.05" fill="#db8990"/>
<polygon points="87.50,148.05 92.50,150.55 92.50,145.55 87.50,143.05" fill="#b77378"/>
<polygon points="107.50,148.05 102.50,150.55 102.50,145.55 107.50,143.05" fill="#db8990"/>
<polygon points="87.50,143.05 92.50,145.55 92.50,140.55 87.50,138.05" fill="#b77378"/>
<polygon points="107.50,143.05 102.50,145.55 102.50,140.55 107.50,138.05" fill="#db8990"/>
<polygon points="62.50,95.55 67.50,98.05 62.50,100.55 57.50,98.05" fill="#ffb3c5"/>
<polygon points="112.50,95.55 117.50,98.05 112.50,100.55 107.50,98.05" fill="#ffb3bc"/>
<polygon points="72.50,90.55 77.50,93.05 72.50,95.55 67.50,93.05" fill="#ffb3bc"/>
<polygon points="82.50,90.55 87.50,93.05 82.50,95.55 77.50,93.05" fill="#ffb3c5"/>
<polygon points="92.50,90.55 97.50,93.05 92.50,95.55 87.50,93.05" fill="#ffb3c5"/>
<polygon points="107.50,98.05 102.50,100.55 102.50,95.55 107.50,93.05" fill="#db8990"/>
<polygon points="102.50,85.55 107.50,88.05 102.50,90.55 97.50,88.05" fill="#ffb3c5"/>
<polygon points="107.50,93.05 102.50,95.55 102.50,90.55 107.50,88.05" fill="#db8997"/>
<polygon points="97.50,93.05 102.50,95.55 102.50,90.55 97.50,88.05" fill="#b7737e"/>
<polygon points="102.50,160.55 97.50,163.05 97.50,158.05 102.50,155.55" fill="#db8990"/>
<polygon points="92.50,160.55 97.50,163.05 97.50,158.05 92.50,155.55" fill="#b77378"/>
<polygon points="102.50,155.55 97.50,158.05 97.50,153.05 102.50,150.55" fill="#db8990"/>
<polygon points="92.50,155.55 97.50,158.05 97.50,153.05 92.50,150.55" fill="#b77378"/>
<polygon points="102.50,150.55 97.50,153.05 97.50,148.05 102.50,145.55" fill="#db8990"/>
<polygon points="92.50,150.55 97.50,153.05 97.50,148.05 92.50,145.55" fill="#b77378"/>
<polygon points="102.50,145.55 97.50,148.05 97.50,143.05 102.50,140.55" fill="#db8990"/>
<polygon points="92.50,145.55 97.50,148.05 97.50,143.05 92.50,140.55" fill="#b77378"/>
<polygon points="57.50,98.05 62.50,100.55 57.50,103.05 52.50,100.55" fill="#ffb3bc"/>
<polygon points="107.50,98.05 112.50,100.55 107.50,103.05 102.50,100.55" fill="#ffb3bc"/>
<polygon points="117.50,98.05 122.50,100.55 117.50,103.05 112.50,100.55" fill="#ffb3c5"/>
<polygon points="67.50,93.05 72.50,95.55 67.50,98.05 62.50,95.55" fill="#ffb3c5"/>
<polygon points="77.50,93.05 82.50,95.55 77.50,98.05 72.50,95.55" fill="#ffb3c5"/>
<polygon points="87.50,93.05 92.50,95.55 87.50,98.05 82.50,95.55" fill="#ffb3bc"/>
<polygon points="97.50,93.05 102.50,95.55 97.50,98.05 92.50,95.55" fill="#ffb3c5"/>
<polygon points="102.50,100.55 97.50,103.05 97.50,98.05 102.50,95.55" fill="#db8997"/>
<polygon points="52.50,100.55 57.50,103.05 52.50,105.55 47.50,103.05" fill="#ffb3c5"/>
<polygon points="102.50,100.55 107.50,103.05 102.50,105.55 97.50,103.05" fill="#ffb3c5"/>
<polygon points="112.50,100.55 117.50,103.05 112.50,105.55 107.50,103.05" fill="#ffb3c5"/>
<polygon points="122.50,100.55 127.50,103.05 122.50,105.55 117.50,103.05" fill="#ffb3bc"/>
<polygon points="62.50,95.55 67.50,98.05 62.50,100.55 57.50,98.05" fill="#ffb3bc"/>
<polygon points="72.50,95.55 77.50,98.05 72.50,100.55 67.50,98.05" fill="#ffb3c5"/>
<polygon points="82.50,95.55 87.50,98.05 82.50,100.55 77.50,98.05" fill="#ffb3bc"/>
<polygon points="92.50,95.55 97.50,98.05 92.50,100.55 87.50,98.05" fill="#ffb3bc"/>
<polygon points="97.50,103.05 92.50,105.55 92.50,100.55 97.50,98.05" fill="#db8990"/>
<polygon points="42.50,140.55 47.50,143.05 47.50,138.05 42.50,135.55" fill="#b7737e"/>
<polygon points="42.50,135.55 47.50,138.05 47.50,133.05 42.50,130.55" fill="#b77378"/>
<polygon points="42.50,130.55 47.50,133.05 47.50,128.05 42.50,125.55" fill="#b7737e"/>
<polygon points="42.50,125.55 47.50,128.05 47.50,123.05 42.50,120.55" fill="#b77378"/>
<polygon points="42.50,120.55 47.50,123.05 47.50,118.05 42.50,115.55" fill="#b77378"/>
<polygon points="42.50,115.55 47.50,118.05 47.50,113.05 42.50,110.55" fill="#b77378"/>
<polygon points="47.50,103.05 52.50,105.55 47.50,108.05 42.50,105.55" fill="#ffb3c5"/>
<polygon points="42.50,110.55 47.50,113.05 47.50,108.05 42.50,105.55" fill="#b7737e"/>
<polygon points="97.50,103.05 102.50,105.55 97.50,108.05 92.50,105.55" fill="#ffb3bc"/>
<polygon points="107.50,103.05 112.50,105.55 107.50,108.05 102.50,105.55" fill="#ffb3c5"/>
<polygon points="117.50,103.05 122.50,105.55 117.50,108.05 112.50,105.55" fill="#ffb3bc"/>
<polygon points="127.50,103.05 132.50,105.55 127.50,108.05 122.50,105.55" fill="#ffb3bc"/>
<polygon points="67.50,98.05 72.50,100.55 67.50,103.05 62.50,100.55" fill="#ff748f"/>
<polygon points="77.50,98.05 82.50,100.55 77.50,103.05 72.50,100.55" fill="#ffb3bc"/>
<polygon points="87.50,98.05 92.50,100.55 87.50,103.05 82.50,100.55" fill="#ffb3bc"/>
<polygon points="92.50,105.55 87.50,108.05 87.50,103.05 92.50,100.55" fill="#db8990"/>
<polygon points="62.50,100.55 57.50,103.05 57.50,98.05 62.50,95.55" fill="#c7596e"/>
<polygon points="57.50,88.05 62.50,90.55 57.50,93.05 52.50,90.55" fill="#ffb3bc"/>
<polygon points="62.50,95.55 57.50,98.05 57.50,93.05 62.50,90.55" fill="#db8990"/>
<polygon points="47.50,148.05 52.50,150.55 52.50,145.55 47.50,143.05" fill="#b77378"/>
<polygon points="47.50,143.05 52.50,145.55 52.50,140.55 47.50,138.05" fill="#b77378"/>
<polygon points="47.50,138.05 52.50,140.55 52.50,135.55 47.50,133.05" fill="#b77378"/>
<polygon points="47.50,133.05 52.50,135.55 52.50,130.55 47.50,128.05" fill="#b77378"/>
<polygon points="47.50,128.05 52.50,130.55 52.50,125.55 47.50,123.05" fill="#b7737e"/>
<polygon points="47.50,123.05 52.50,125.55 52.50,120.55 47.50,118.05" fill="#b77378"/>
<polygon points="47.50,118.05 52.50,120.55 52.50,115.55 47.50,113.05" fill="#b77378"/>
<polygon points="47.50,113.05 52.50,115.55 52.50,110.55 47.50,108.05" fill="#b77378"/>
<polygon points="92.50,105.55 97.50,108.05 92.50,110.55 87.50,108.05" fill="#ffb3c5"/>
<polygon points="102.50,105.55 107.50,108.05 102.50,110.55 97.50,108.05" fill="#ffb3bc"/>
<polygon points="112.50,105.55 117.50,108.05 112.50,110.55 107.50,108.05" fill="#ffb3c5"/>
<polygon points="122.50,105.55 127.50,108.05 122.50,110.55 117.50,108.05" fill="#ffb3bc"/>
<polygon points="132.50,105.55 137.50,108.05 132.50,110.55 127.50,108.05" fill="#ffb3c5"/>
<polygon points="47.50,108.05 52.50,110.55 52.50,105.55 47.50,103.05" fill="#b7737e"/>
<polygon points="62.50,100.55 67.50,103.05 62.50,105.55 57.50,103.05" fill="#ff748f"/>
<polygon points="72.50,100.55 77.50,103.05 72.50,105.55 67.50,103.05" fill="#ffb3c5"/>
<polygon points="82.50,100.55 87.50,103.05 82.50,105.55 77.50,103.05" fill="#ffb3bc"/>
<polygon points="87.50,108.05 82.50,110.55 82.50,105.55 87.50,103.05" fill="#db8990"/>
<polygon points="57.50,103.05 52.50,105.55 52.50,100.55 57.50,98.05" fill="#db8997"/>
<polygon points="47.50,103.05 52.50,105.55 52.50,100.55 47.50,98.05" fill="#b7737e"/>
<polygon points="52.50,90.55 57.50,93.05 52.50,95.55 47.50,93.05" fill="#ffb3c5"/>
<polygon points="57.50,98.05 52.50,100.55 52.50,95.55 57.50,93.05" fill="#db8997"/>
<polygon points="47.50,98.05 52.50,100.55 52.50,95.55 47.50,93.05" fill="#b7737e"/>
<polygon points="52.50,170.55 57.50,173.05 57.50,168.05 52.50,165.55" fill="#1c1c1c"/>
<polygon points="82.50,170.55 77.50,173.05 77.50,168.05 82.50,165.55" fill="#db8990"/>
<polygon points="52.50,165.55 57.50,168.05 57.50,163.05 52.50,160.55" fill="#1c1c1c"/>
<polygon points="82.50,165.55 77.50,168.05 77.50,163.05 82.50,160.55" fill="#db8990"/>
<polygon points="52.50,160.55 57.50,163.05 57.50,158.05 52.50,155.55" fill="#b77378"/>
<polygon points="82.50,160.55 77.50,163.05 77.50,158.05 82.50,155.55" fill="#db8990"/>
<polygon points="52.50,155.55 57.50,158.05 57.50,153.05 52.50,150.55" fill="#b77378"/>
<polygon points="82.50,155.55 77.50,158.05 77.50,153.05 82.50,150.55" fill="#db8990"/>
<polygon points="52.50,150.55 57.50,153.05 57.50,148.05 52.50,145.55" fill="#b77378"/>
<polygon points="52.50,145.55 57.50,148.05 57.50,143.05 52.50,140.55" fill="#b77378"/>
<polygon points="52.50,140.55 57.50,143.05 57.50,138.05 52.50,135.55" fill="#b77378"/>
<polygon points="52.50,135.55 57.50,138.05 57.50,133.05 52.50,130.55" fill="#b77378"/>
<polygon points="52.50,130.55 57.50,133.05 57.50,128.05 52.50,125.55" fill="#b77378"/>
<polygon points="52.50,125.55 57.50,128.05 57.50,123.05 52.50,120.55" fill="#b77378"/>
<polygon points="52.50,120.55 57.50,123.05 57.50,118.05 52.50,115.55" fill="#b77378"/>
<polygon points="52.50,115.55 57.50,118.05 57.50,113.05 52.50,110.55" fill="#b77378"/>
<polygon points="87.50,108.05 92.50,110.55 87.50,113.05 82.50,110.55" fill="#ffb3c5"/>
<polygon points="97.50,108.05 102.50,110.55 97.50,113.05 92.50,110.55" fill="#ffb3bc"/>
<polygon points="107.50,108.05 112.50,110.55 107.50,113.05 102.50,110.55" fill="#ffb3bc"/>
<polygon points="117.50,108.05 122.50,110.55 117.50,113.05 112.50,110.55" fill="#ffb3bc"/>
<polygon points="127.50,108.05 132.50,110.55 127.50,113.05 122.50,110.55" fill="#ffb3bc"/>
<polygon points="137.50,108.05 142.50,110.55 137.50,113.05 132.50,110.55" fill="#ffb3c5"/>
<polygon points="57.50,103.05 62.50,105.55 57.50,108.05 52.50,105.55" fill="#ffb3bc"/>
<polygon points="52.50,110.55 57.50,113.05 57.50,108.05 52.50,105.55" fill="#b77378"/>
<polygon points="77.50,103.05 82.50,105.55 77.50,108.05 72.50,105.55" fill="#ffb3bc"/>
<polygon points="82.50,110.55 77.50,113.05 77.50,108.05 82.50,105.55" fill="#db8990"/>
<polygon points="67.50,93.05 72.50,95.55 67.50,98.05 62.50,95.55" fill="#ffb3c5"/>
<polygon points="72.50,100.55 67.50,103.05 67.50,98.05 72.50,95.55" fill="#db8997"/>
<polygon points="57.50,173.05 62.50,175.55 62.50,170.55 57.50,168.05" fill="#1c1c1c"/>
<polygon points="77.50,173.05 72.50,175.55 72.50,170.55 77.50,168.05" fill="#db8990"/>
<polygon points="57.50,168.05 62.50,170.55 62.50,165.55 57.50,163.05" fill="#b77378"/>
<polygon points="77.50,168.05 72.50,170.55 72.50,165.55 77.50,163.05" fill="#db8990"/>
<polygon points="57.50,163.05 62.50,165.55 62.50,160.55 57.50,158.05" fill="#b7737e"/>
<polygon points="77.50,163.05 72.50,165.55 72.50,160.55 77.50,158.05" fill="#db8990"/>
<polygon points="57.50,158.05 62.50,160.55 62.50,155.55 57.50,153.05" fill="#b77378"/>
<polygon points="77.50,158.05 72.50,160.55 72.50,155.55 77.50,153.05" fill="#db8990"/>
<polygon points="57.50,153.05 62.50,155.55 62.50,150.55 57.50,148.05" fill="#b77378"/>
<polygon points="57.50,148.05 62.50,150.55 62.50,145.55 57.50,143.05" fill="#b7737e"/>
<polygon points="57.50,143.05 62.50,145.55 62.50,140.55 57.50,138.05" fill="#b77378"/>
<polygon points="57.50,138.05 62.50,140.55 62.50,135.55 57.50,133.05" fill="#b7737e"/>
<polygon points="57.50,133.05 62.50,135.55 62.50,130.55 57.50,128.05" fill="#b77378"/>
<polygon points="57.50,128.05 62.50,130.55 62.50,125.55 57.50,123.05" fill="#b77378"/>
<polygon points="57.50,123.05 62.50,125.55 62.50,120.55 57.50,118.05" fill="#b7737e"/>
<polygon points="57.50,118.05 62.50,120.55 62.50,115.55 57.50,113.05" fill="#b77378"/>
<polygon points="82.50,110.55 87.50,113.05 82.50,115.55 77.50,113.05" fill="#ffb3bc"/>
<polygon points="92.50,110.55 97.50,113.05 92.50,115.55 87.50,113.05" fill="#ffb3bc"/>
<polygon points="102.50,110.55 107.50,113.05 102.50,115.55 97.50,113.05" fill="#ffb3bc"/>
<polygon points="112.50,110.55 117.50,113.05 112.50,115.55 107.50,113.05" fill="#ffb3bc"/>
<polygon points="122.50,110.55 127.50,113.05 122.50,115.55 117.50,113.05" fill="#ffb3bc"/>
<polygon points="132.50,110.55 137.50,113.05 132.50,115.55 127.50,113.05" fill="#ffb3bc"/>
<polygon points="142.50,110.55 147.50,113.05 142.50,115.55 137.50,113.05" fill="#ffb3bc"/>
<polygon points="57.50,113.05 62.50,115.55 62.50,110.55 57.50,108.05" fill="#ac5c67"/>
<polygon points="77.50,113.05 72.50,115.55 72.50,110.55 77.50,108.05" fill="#db8990"/>
<polygon points="57.50,108.05 62.50,110.55 62.50,105.55 57.50,103.05" fill="#a74a5c"/>
<polygon points="72.50,100.55 77.50,103.05 72.50,105.55 67.50,103.05" fill="#ffb3c5"/>
<polygon points="77.50,108.05 72.50,110.55 72.50,105.55 77.50,103.05" fill="#db8997"/>
<polygon points="62.50,95.55 67.50,98.05 62.50,100.55 57.50,98.05" fill="#ffb3c5"/>
<polygon points="67.50,103.05 62.50,105.55 62.50,100.55 67.50,98.05" fill="#db8997"/>
<polygon points="57.50,103.05 62.50,105.55 62.50,100.55 57.50,98.05" fill="#b7737e"/>
<polygon points="72.50,175.55 67.50,178.05 67.50,173.05 72.50,170.55" fill="#222222"/>
<polygon points="62.50,175.55 67.50,178.05 67.50,173.05 62.50,170.55" fill="#1c1c1c"/>
<polygon points="122.50,175.55 127.50,178.05 127.50,173.05 122.50,170.55" fill="#b77378"/>
<polygon points="152.50,175.55 147.50,178.05 147.50,173.05 152.50,170.55" fill="#db8990"/>
<polygon points="72.50,170.55 67.50,173.05 67.50,168.05 72.50,165.55" fill="#222222"/>
<polygon points="62.50,170.55 67.50,173.05 67.50,168.05 62.50,165.55" fill="#1c1c1c"/>
<polygon points="122.50,170.55 127.50,173.05 127.50,168.05 122.50,165.55" fill="#b77378"/>
<polygon points="152.50,170.55 147.50,173.05 147.50,168.05 152.50,165.55" fill="#db8990"/>
<polygon points="72.50,165.55 67.50,168.05 67.50,163.05 72.50,160.55" fill="#db8990"/>
<polygon points="62.50,165.55 67.50,168.05 67.50,163.05 62.50,160.55" fill="#b77378"/>
<polygon points="122.50,165.55 127.50,168.05 127.50,163.05 122.50,160.55" fill="#b77378"/>
<polygon points="152.50,165.55 147.50,168.05 147.50,163.05 152.50,160.55" fill="#db8990"/>
<polygon points="72.50,160.55 67.50,163.05 67.50,158.05 72.50,155.55" fill="#db8997"/>
<polygon points="62.50,160.55 67.50,163.05 67.50,158.05 62.50,155.55" fill="#b7737e"/>
<polygon points="122.50,160.55 127.50,163.05 127.50,158.05 122.50,155.55" fill="#b77378"/>
<polygon points="152.50,160.55 147.50,163.05 147.50,158.05 152.50,155.55" fill="#db8990"/>
<polygon points="62.50,155.55 67.50,158.05 67.50,153.05 62.50,150.55" fill="#b77378"/>
<polygon points="62.50,150.55 67.50,153.05 67.50,148.05 62.50,145.55" fill="#b7737e"/>
<polygon points="62.50,145.55 67.50,148.05 67.50,143.05 62.50,140.55" fill="#b77378"/>
<polygon points="62.50,140.55 67.50,143.05 67.50,138.05 62.50,135.55" fill="#b77378"/>
<polygon points="62.50,135.55 67.50,138.05 67.50,133.05 62.50,130.55" fill="#b77378"/>
<polygon points="62.50,130.55 67.50,133.05 67.50,128.05 62.50,125.55" fill="#b77378"/>
<polygon points="62.50,125.55 67.50,128.05 67.50,123.05 62.50,120.55" fill="#b77378"/>
<polygon points="62.50,120.55 67.50,123.05 67.50,118.05 62.50,115.55" fill="#b77378"/>
<polygon points="77.50,113.05 82.50,115.55 77.50,118.05 72.50,115.55" fill="#ffb3c5"/>
<polygon points="87.50,113.05 92.50,115.55 87.50,118.05 82.50,115.55" fill="#ffb3bc"/>
<polygon points="97.50,113.05 102.50,115.55 97.50,118.05 92.50,115.55" fill="#ffb3c5"/>
<polygon points="107.50,113.05 112.50,115.55 107.50,118.05 102.50,115.55" fill="#ffb3bc"/>
<polygon points="117.50,113.05 122.50,115.55 117.50,118.05 112.50,115.55" fill="#ffb3bc"/>
<polygon points="127.50,113.05 132.50,115.55 127.50,118.05 122.50,115.55" fill="#ffb3c5"/>
<polygon points="137.50,113.05 142.50,115.55 137.50,118.05 132.50,115.55" fill="#ffb3bc"/>
<polygon points="147.50,113.05 152.50,115.55 147.50,118.05 142.50,115.55" fill="#ffb3c5"/>
<polygon points="152.50,120.55 147.50,123.05 147.50,118.05 152.50,115.55" fill="#db8997"/>
<polygon points="72.50,115.55 67.50,118.05 67.50,113.05 72.50,110.55" fill="#db8990"/>
<polygon points="62.50,115.55 67.50,118.05 67.50,113.05 62.50,110.55" fill="#b77378"/>
<polygon points="67.50,103.05 72.50,105.55 67.50,108.05 62.50,105.55" fill="#ffb3c5"/>
<polygon points="72.50,110.55 67.50,113.05 67.50,108.05 72.50,105.55" fill="#db8997"/>
<polygon points="62.50,110.55 67.50,113.05 67.50,108.05 62.50,105.55" fill="#b7737e"/>
<polygon points="127.50,178.05 132.50,180.55 132.50,175.55 127.50,173.05" fill="#b77378"/>
<polygon points="147.50,178.05 142.50,180.55 142.50,175.55 147.50,173.05" fill="#db8990"/>
<polygon points="127.50,173.05 132.50,175.55 132.50,170.55 127.50,168.05" fill="#b77378"/>
<polygon points="147.50,173.05 142.50,175.55 142.50,170.55 147.50,168.05" fill="#db8990"/>
<polygon points="127.50,168.05 132.50,170.55 132.50,165.55 127.50,163.05" fill="#b77378"/>
<polygon points="147.50,168.05 142.50,170.55 142.50,165.55 147.50,163.05" fill="#db8990"/>
<polygon points="127.50,163.05 132.50,165.55 132.50,160.55 127.50,158.05" fill="#b77378"/>
<polygon points="147.50,163.05 142.50,165.55 142.50,160.55 147.50,158.05" fill="#db8990"/>
<polygon points="67.50,158.05 72.50,160.55 72.50,155.55 67.50,153.05" fill="#b77378"/>
<polygon points="157.50,158.05 152.50,160.55 152.50,155.55 157.50,153.05" fill="#db8990"/>
<polygon points="67.50,153.05 72.50,155.55 72.50,150.55 67.50,148.05" fill="#b77378"/>
<polygon points="157.50,153.05 152.50,155.55 152.50,150.55 157.50,148.05" fill="#db8990"/>
<polygon points="67.50,148.05 72.50,150.55 72.50,145.55 67.50,143.05" fill="#b77378"/>
<polygon points="157.50,148.05 152.50,150.55 152.50,145.55 157.50,143.05" fill="#db8990"/>
<polygon points="67.50,143.05 72.50,145.55 72.50,140.55 67.50,138.05" fill="#b77378"/>
<polygon points="157.50,143.05 152.50,145.55 152.50,140.55 157.50,138.05" fill="#db8990"/>
<polygon points="67.50,138.05 72.50,140.55 72.50,135.55 67.50,133.05" fill="#b77378"/>
<polygon points="157.50,138.05 152.50,140.55 152.50,135.55 157.50,133.05" fill="#db8990"/>
<polygon points="67.50,133.05 72.50,135.55 72.50,130.55 67.50,128.05" fill="#b77378"/>
<polygon points="157.50,133.05 152.50,135.55 152.50,130.55 157.50,128.05" fill="#db8990"/>
<polygon points="67.50,128.05 72.50,130.55 72.50,125.55 67.50,123.05" fill="#b7737e"/>
<polygon points="152.50,120.55 157.50,123.05 152.50,125.55 147.50,123.05" fill="#2c2c2c"/>
<polygon points="157.50,128.05 152.50,130.55 152.50,125.55 157.50,123.05" fill="#222222"/>
<polygon points="72.50,115.55 77.50,118.05 72.50,120.55 67.50,118.05" fill="#ffb3c5"/>
<polygon points="67.50,123.05 72.50,125.55 72.50,120.55 67.50,118.05" fill="#b7737e"/>
<polygon points="82.50,115.55 87.50,118.05 82.50,120.55 77.50,118.05" fill="#ffb3c5"/>
<polygon points="92.50,115.55 97.50,118.05 92.50,120.55 87.50,118.05" fill="#ffb3bc"/>
<polygon points="102.50,115.55 107.50,118.05 102.50,120.55 97.50,118.05" fill="#ffb3bc"/>
<polygon points="112.50,115.55 117.50,118.05 112.50,120.55 107.50,118.05" fill="#ffb3bc"/>
<polygon points="122.50,115.55 127.50,118.05 122.50,120.55 117.50,118.05" fill="#ffb3bc"/>
<polygon points="132.50,115.55 137.50,118.05 132.50,120.55 127.50,118.05" fill="#ffb3bc"/>
<polygon points="142.50,115.55 147.50,118.05 142.50,120.55 137.50,118.05" fill="#ffb3bc"/>
<polygon points="147.50,123.05 142.50,125.55 142.50,120.55 147.50,118.05" fill="#db8990"/>
<polygon points="142.50,180.55 137.50,183.05 137.50,178.05 142.50,175.55" fill="#db8990"/>
<polygon points="132.50,180.55 137.50,183.05 137.50,178.05 132.50,175.55" fill="#b77378"/>
<polygon points="142.50,175.55 137.50,178.05 137.50,173.05 142.50,170.55" fill="#db8990"/>
<polygon points="132.50,175.55 137.50,178.05 137.50,173.05 132.50,170.55" fill="#b77378"/>
<polygon points="142.50,170.55 137.50,173.05 137.50,168.05 142.50,165.55" fill="#db8990"/>
<polygon points="132.50,170.55 137.50,173.05 137.50,168.05 132.50,165.55" fill="#b77378"/>
<polygon points="142.50,165.55 137.50,168.05 137.50,163.05 142.50,160.55" fill="#db8990"/>
<polygon points="132.50,165.55 137.50,168.05 137.50,163.05 132.50,160.55" fill="#b77378"/>
<polygon points="72.50,160.55 77.50,163.05 77.50,158.05 72.50,155.55" fill="#b77378"/>
<polygon points="152.50,160.55 147.50,163.05 147.50,158.05 152.50,155.55" fill="#db8990"/>
<polygon points="72.50,155.55 77.50,158.05 77.50,153.05 72.50,150.55" fill="#b7737e"/>
<polygon points="152.50,155.55 147.50,158.05 147.50,153.05 152.50,150.55" fill="#db8990"/>
<polygon points="72.50,150.55 77.50,153.05 77.50,148.05 72.50,145.55" fill="#b77378"/>
<polygon points="152.50,150.55 147.50,153.05 147.50,148.05 152.50,145.55" fill="#db8990"/>
<polygon points="72.50,145.55 77.50,148.05 77.50,143.05 72.50,140.55" fill="#b7737e"/>
<polygon points="152.50,145.55 147.50,148.05 147.50,143.05 152.50,140.55" fill="#db8990"/>
<polygon points="72.50,140.55 77.50,143.05 77.50,138.05 72.50,135.55" fill="#b77378"/>
<polygon points="152.50,140.55 147.50,143.05 147.50,138.05 152.50,135.55" fill="#db8990"/>
<polygon points="72.50,135.55 77.50,138.05 77.50,133.05 72.50,130.55" fill="#b77378"/>
<polygon points="152.50,135.55 147.50,138.05 147.50,133.05 152.50,130.55" fill="#db8990"/>
<polygon points="72.50,130.55 77.50,133.05 77.50,128.05 72.50,125.55" fill="#b7737e"/>
<polygon points="147.50,123.05 152.50,125.55 147.50,128.05 142.50,125.55" fill="#ffb3bc"/>
<polygon points="152.50,130.55 147.50,133.05 147.50,128.05 152.50,125.55" fill="#db8990"/>
<polygon points="77.50,118.05 82.50,120.55 77.50,123.05 72.50,120.55" fill="#ffb3bc"/>
<polygon points="72.50,125.55 77.50,128.05 77.50,123.05 72.50,120.55" fill="#b77378"/>
<polygon points="87.50,118.05 92.50,120.55 87.50,123.05 82.50,120.55" fill="#ffb3c5"/>
<polygon points="97.50,118.05 102.50,120.55 97.50,123.05 92.50,120.55" fill="#ffb3bc"/>
<polygon points="107.50,118.05 112.50,120.55 107.50,123.05 102.50,120.55" fill="#ffb3bc"/>
<polygon points="117.50,118.05 122.50,120.55 117.50,123.05 112.50,120.55" fill="#ffb3c5"/>
<polygon points="127.50,118.05 132.50,120.55 127.50,123.05 122.50,120.55" fill="#ffb3bc"/>
<polygon points="137.50,118.05 142.50,120.55 137.50,123.05 132.50,120.55" fill="#ffb3c5"/>
<polygon points="142.50,125.55 137.50,128.05 137.50,123.05 142.50,120.55" fill="#db8997"/>
<polygon points="77.50,163.05 82.50,165.55 82.50,160.55 77.50,158.05" fill="#b77378"/>
<polygon points="147.50,163.05 142.50,165.55 142.50,160.55 147.50,158.05" fill="#db8990"/>
<polygon points="77.50,158.05 82.50,160.55 82.50,155.55 77.50,153.05" fill="#b77378"/>
<polygon points="147.50,158.05 142.50,160.55 142.50,155.55 147.50,153.05" fill="#db8990"/>
<polygon points="77.50,153.05 82.50,155.55 82.50,150.55 77.50,148.05" fill="#b77378"/>
<polygon points="147.50,153.05 142.50,155.55 142.50,150.55 147.50,148.05" fill="#db8990"/>
<polygon points="77.50,148.05 82.50,150.55 82.50,145.55 77.50,143.05" fill="#b77378"/>
<polygon points="147.50,148.05 142.50,150.55 142.50,145.55 147.50,143.05" fill="#db8990"/>
<polygon points="77.50,143.05 82.50,145.55 82.50,140.55 77.50,138.05" fill="#b77378"/>
<polygon points="147.50,143.05 142.50,145.55 142.50,140.55 147.50,138.05" fill="#db8990"/>
<polygon points="77.50,138.05 82.50,140.55 82.50,135.55 77.50,133.05" fill="#b77378"/>
<polygon points="147.50,138.05 142.50,140.55 142.50,135.55 147.50,133.05" fill="#db8990"/>
<polygon points="77.50,133.05 82.50,135.55 82.50,130.55 77.50,128.05" fill="#b77378"/>
<polygon points="142.50,125.55 147.50,128.05 142.50,130.55 137.50,128.05" fill="#ffb3bc"/>
<polygon points="147.50,133.05 142.50,135.55 142.50,130.55 147.50,128.05" fill="#db8990"/>
<polygon points="82.50,120.55 87.50,123.05 82.50,125.55 77.50,123.05" fill="#ffb3c5"/>
<polygon points="77.50,128.05 82.50,130.55 82.50,125.55 77.50,123.05" fill="#b7737e"/>
<polygon points="92.50,120.55 97.50,123.05 92.50,125.55 87.50,123.05" fill="#ffb3bc"/>
<polygon points="102.50,120.55 107.50,123.05 102.50,125.55 97.50,123.05" fill="#ffb3bc"/>
<polygon points="112.50,120.55 117.50,123.05 112.50,125.55 107.50,123.05" fill="#ffb3c5"/>
<polygon points="122.50,120.55 127.50,123.05 122.50,125.55 117.50,123.05" fill="#ffb3bc"/>
<polygon points="132.50,120.55 137.50,123.05 132.50,125.55 127.50,123.05" fill="#ffb3bc"/>
<polygon points="137.50,128.05 132.50,130.55 132.50,125.55 137.50,123.05" fill="#db8990"/>
<polygon points="82.50,165.55 87.50,168.05 87.50,163.05 82.50,160.55" fill="#b77378"/>
<polygon points="142.50,165.55 137.50,168.05 137.50,163.05 142.50,160.55" fill="#db8990"/>
<polygon points="82.50,160.55 87.50,163.05 87.50,158.05 82.50,155.55" fill="#b77378"/>
<polygon points="82.50,155.55 87.50,158.05 87.50,153.05 82.50,150.55" fill="#b77378"/>
<polygon points="82.50,150.55 87.50,153.05 87.50,148.05 82.50,145.55" fill="#b77378"/>
<polygon points="82.50,145.55 87.50,148.05 87.50,143.05 82.50,140.55" fill="#b77378"/>
<polygon points="82.50,140.55 87.50,143.05 87.50,138.05 82.50,135.55" fill="#b77378"/>
<polygon points="142.50,140.55 137.50,143.05 137.50,138.05 142.50,135.55" fill="#db8990"/>
<polygon points="82.50,135.55 87.50,138.05 87.50,133.05 82.50,130.55" fill="#b77378"/>
<polygon points="137.50,128.05 142.50,130.55 137.50,133.05 132.50,130.55" fill="#ffb3bc"/>
<polygon points="142.50,135.55 137.50,138.05 137.50,133.05 142.50,130.55" fill="#db8990"/>
<polygon points="87.50,123.05 92.50,125.55 87.50,128.05 82.50,125.55" fill="#ffb3c5"/>
<polygon points="82.50,130.55 87.50,133.05 87.50,128.05 82.50,125.55" fill="#b7737e"/>
<polygon points="97.50,123.05 102.50,125.55 97.50,128.05 92.50,125.55" fill="#ffb3c5"/>
<polygon points="107.50,123.05 112.50,125.55 107.50,128.05 102.50,125.55" fill="#ffb3bc"/>
<polygon points="117.50,123.05 122.50,125.55 117.50,128.05 112.50,125.55" fill="#ffb3bc"/>
<polygon points="127.50,123.05 132.50,125.55 127.50,128.05 122.50,125.55" fill="#ffb3bc"/>
<polygon points="132.50,130.55 127.50,133.05 127.50,128.05 132.50,125.55" fill="#db8990"/>
<polygon points="87.50,168.05 92.50,170.55 92.50,165.55 87.50,163.05" fill="#b77378"/>
<polygon points="137.50,168.05 132.50,170.55 132.50,165.55 137.50,163.05" fill="#db8990"/>
<polygon points="87.50,163.05 92.50,165.55 92.50,160.55 87.50,158.05" fill="#b7737e"/>
<polygon points="147.50,163.05 142.50,165.55 142.50,160.55 147.50,158.05" fill="#db8990"/>
<polygon points="87.50,158.05 92.50,160.55 92.50,155.55 87.50,153.05" fill="#b77378"/>
<polygon points="147.50,158.05 142.50,160.55 142.50,155.55 147.50,153.05" fill="#db8990"/>
<polygon points="87.50,153.05 92.50,155.55 92.50,150.55 87.50,148.05" fill="#b7737e"/>
<polygon points="87.50,148.05 92.50,150.55 92.50,145.55 87.50,143.05" fill="#b77378"/>
<polygon points="142.50,140.55 147.50,143.05 142.50,145.55 137.50,143.05" fill="#ffb3bc"/>
<polygon points="147.50,148.05 142.50,150.55 142.50,145.55 147.50,143.05" fill="#db8990"/>
<polygon points="87.50,143.05 92.50,145.55 92.50,140.55 87.50,138.05" fill="#b77378"/>
<polygon points="137.50,143.05 132.50,145.55 132.50,140.55 137.50,138.05" fill="#db8990"/>
<polygon points="87.50,138.05 92.50,140.55 92.50,135.55 87.50,133.05" fill="#b7737e"/>
<polygon points="132.50,130.55 137.50,133.05 132.50,135.55 127.50,133.05" fill="#ffb3bc"/>
<polygon points="137.50,138.05 132.50,140.55 132.50,135.55 137.50,133.05" fill="#db8990"/>
<polygon points="92.50,125.55 97.50,128.05 92.50,130.55 87.50,128.05" fill="#ffb3bc"/>
<polygon points="87.50,133.05 92.50,135.55 92.50,130.55 87.50,128.05" fill="#b77378"/>
<polygon points="102.50,125.55 107.50,128.05 102.50,130.55 97.50,128.05" fill="#ffb3c5"/>
<polygon points="112.50,125.55 117.50,128.05 112.50,130.55 107.50,128.05" fill="#ffb3bc"/>
<polygon points="122.50,125.55 127.50,128.05 122.50,130.55 117.50,128.05" fill="#ffb3c5"/>
<polygon points="127.50,133.05 122.50,135.55 122.50,130.55 127.50,128.05" fill="#db8997"/>
<polygon points="92.50,190.55 97.50,193.05 97.50,188.05 92.50,185.55" fill="#1c1c1c"/>
<polygon points="122.50,190.55 117.50,193.05 117.50,188.05 122.50,185.55" fill="#db8990"/>
<polygon points="92.50,185.55 97.50,188.05 97.50,183.05 92.50,180.55" fill="#1c1c1c"/>
<polygon points="122.50,185.55 117.50,188.05 117.50,183.05 122.50,180.55" fill="#db8990"/>
<polygon points="92.50,180.55 97.50,183.05 97.50,178.05 92.50,175.55" fill="#b77378"/>
<polygon points="122.50,180.55 117.50,183.05 117.50,178.05 122.50,175.55" fill="#db8990"/>
<polygon points="92.50,175.55 97.50,178.05 97.50,173.05 92.50,170.55" fill="#b77378"/>
<polygon points="122.50,175.55 117.50,178.05 117.50,173.05 122.50,170.55" fill="#db8990"/>
<polygon points="92.50,170.55 97.50,173.05 97.50,168.05 92.50,165.55" fill="#b77378"/>
<polygon points="132.50,170.55 127.50,173.05 127.50,168.05 132.50,165.55" fill="#db8990"/>
<polygon points="92.50,165.55 97.50,168.05 97.50,163.05 92.50,160.55" fill="#b7737e"/>
<polygon points="142.50,165.55 137.50,168.05 137.50,163.05 142.50,160.55" fill="#db8990"/>
<polygon points="92.50,160.55 97.50,163.05 97.50,158.05 92.50,155.55" fill="#b77378"/>
<polygon points="142.50,160.55 137.50,163.05 137.50,158.05 142.50,155.55" fill="#db8990"/>
<polygon points="92.50,155.55 97.50,158.05 97.50,153.05 92.50,150.55" fill="#b77378"/>
<polygon points="147.50,148.05 152.50,150.55 147.50,153.05 142.50,150.55" fill="#ffb3bc"/>
<polygon points="152.50,155.55 147.50,158.05 147.50,153.05 152.50,150.55" fill="#db8990"/>
<polygon points="92.50,150.55 97.50,153.05 97.50,148.05 92.50,145.55" fill="#b77378"/>
<polygon points="137.50,143.05 142.50,145.55 137.50,148.05 132.50,145.55" fill="#ff8fa1"/>
<polygon points="142.50,150.55 137.50,153.05 137.50,148.05 142.50,145.55" fill="#ce6e7b"/>
<polygon points="92.50,145.55 97.50,148.05 97.50,143.05 92.50,140.55" fill="#b77378"/>
<polygon points="132.50,145.55 127.50,148.05 127.50,143.05 132.50,140.55" fill="#db8990"/>
<polygon points="152.50,145.55 147.50,148.05 147.50,143.05 152.50,140.55" fill="#db8990"/>
<polygon points="92.50,140.55 97.50,143.05 97.50,138.05 92.50,135.55" fill="#b77378"/>
<polygon points="127.50,133.05 132.50,135.55 127.50,138.05 122.50,135.55" fill="#ffb3bc"/>
<polygon points="132.50,140.55 127.50,143.05 127.50,138.05 132.50,135.55" fill="#db8990"/>
<polygon points="147.50,133.05 152.50,135.55 147.50,138.05 142.50,135.55" fill="#ff8fa1"/>
<polygon points="152.50,140.55 147.50,143.05 147.50,138.05 152.50,135.55" fill="#ce6e7b"/>
<polygon points="97.50,128.05 102.50,130.55 97.50,133.05 92.50,130.55" fill="#ffb3bc"/>
<polygon points="92.50,135.55 97.50,138.05 97.50,133.05 92.50,130.55" fill="#b77378"/>
<polygon points="107.50,128.05 112.50,130.55 107.50,133.05 102.50,130.55" fill="#ffb3bc"/>
<polygon points="117.50,128.05 122.50,130.55 117.50,133.05 112.50,130.55" fill="#ffb3bc"/>
<polygon points="122.50,135.55 117.50,138.05 117.50,133.05 122.50,130.55" fill="#db8990"/>
<polygon points="97.50,193.05 102.50,195.55 102.50,190.55 97.50,188.05" fill="#1c1c1c"/>
<polygon points="117.50,193.05 112.50,195.55 112.50,190.55 117.50,188.05" fill="#db8990"/>
<polygon points="97.50,188.05 102.50,190.55 102.50,185.55 97.50,183.05" fill="#b77378"/>
<polygon points="117.50,188.05 112.50,190.55 112.50,185.55 117.50,183.05" fill="#db8990"/>
<polygon points="97.50,183.05 102.50,185.55 102.50,180.55 97.50,178.05" fill="#b77378"/>
<polygon points="117.50,183.05 112.50,185.55 112.50,180.55 117.50,178.05" fill="#db8990"/>
<polygon points="97.50,178.05 102.50,180.55 102.50,175.55 97.50,173.05" fill="#b7737e"/>
<polygon points="117.50,178.05 112.50,180.55 112.50,175.55 117.50,173.05" fill="#db8990"/>
<polygon points="97.50,173.05 102.50,175.55 102.50,170.55 97.50,168.05" fill="#b7737e"/>
<polygon points="127.50,173.05 122.50,175.55 122.50,170.55 127.50,168.05" fill="#db8990"/>
<polygon points="97.50,168.05 102.50,170.55 102.50,165.55 97.50,163.05" fill="#b77378"/>
<polygon points="127.50,168.05 122.50,170.55 122.50,165.55 127.50,163.05" fill="#db8990"/>
<polygon points="137.50,168.05 132.50,170.55 132.50,165.55 137.50,163.05" fill="#db8997"/>
<polygon points="127.50,168.05 132.50,170.55 132.50,165.55 127.50,163.05" fill="#b7737e"/>
<polygon points="97.50,163.05 102.50,165.55 102.50,160.55 97.50,158.05" fill="#b77378"/>
<polygon points="127.50,163.05 122.50,165.55 122.50,160.55 127.50,158.05" fill="#db8990"/>
<polygon points="137.50,163.05 132.50,165.55 132.50,160.55 137.50,158.05" fill="#db8997"/>
<polygon points="127.50,163.05 132.50,165.55 132.50,160.55 127.50,158.05" fill="#b7737e"/>
<polygon points="97.50,158.05 102.50,160.55 102.50,155.55 97.50,153.05" fill="#b77378"/>
<polygon points="127.50,158.05 122.50,160.55 122.50,155.55 127.50,153.05" fill="#db8990"/>
<polygon points="127.50,158.05 132.50,160.55 132.50,155.55 127.50,153.05" fill="#b77378"/>
<polygon points="142.50,150.55 147.50,153.05 142.50,155.55 137.50,153.05" fill="#ffb3bc"/>
<polygon points="97.50,153.05 102.50,155.55 102.50,150.55 97.50,148.05" fill="#b77378"/>
<polygon points="127.50,153.05 122.50,155.55 122.50,150.55 127.50,148.05" fill="#db8990"/>
<polygon points="132.50,145.55 137.50,148.05 132.50,150.55 127.50,148.05" fill="#ff8fa1"/>
<polygon points="137.50,153.05 132.50,155.55 132.50,150.55 137.50,148.05" fill="#ce6e7b"/>
<polygon points="127.50,153.05 132.50,155.55 132.50,150.55 127.50,148.05" fill="#ac5c67"/>
<polygon points="97.50,148.05 102.50,150.55 102.50,145.55 97.50,143.05" fill="#b77378"/>
<polygon points="127.50,148.05 122.50,150.55 122.50,145.55 127.50,143.05" fill="#db8990"/>
<polygon points="97.50,143.05 102.50,145.55 102.50,140.55 97.50,138.05" fill="#b7737e"/>
<polygon points="122.50,135.55 127.50,138.05 122.50,140.55 117.50,138.05" fill="#ffb3bc"/>
<polygon points="127.50,143.05 122.50,145.55 122.50,140.55 127.50,138.05" fill="#db8990"/>
<polygon points="142.50,135.55 147.50,138.05 142.50,140.55 137.50,138.05" fill="#ff8fa1"/>
<polygon points="102.50,130.55 107.50,133.05 102.50,135.55 97.50,133.05" fill="#ffb3bc"/>
<polygon points="97.50,138.05 102.50,140.55 102.50,135.55 97.50,133.05" fill="#b77378"/>
<polygon points="112.50,130.55 117.50,133.05 112.50,135.55 107.50,133.05" fill="#ffb3bc"/>
<polygon points="117.50,138.05 112.50,140.55 112.50,135.55 117.50,133.05" fill="#db8990"/>
<polygon points="112.50,195.55 107.50,198.05 107.50,193.05 112.50,190.55" fill="#222222"/>
<polygon points="102.50,195.55 107.50,198.05 107.50,193.05 102.50,190.55" fill="#1c1c1c"/>
<polygon points="112.50,190.55 107.50,193.05 107.50,188.05 112.50,185.55" fill="#222222"/>
<polygon points="102.50,190.55 107.50,193.05 107.50,188.05 102.50,185.55" fill="#1c1c1c"/>
<polygon points="112.50,185.55 107.50,188.05 107.50,183.05 112.50,180.55" fill="#db8990"/>
<polygon points="102.50,185.55 107.50,188.05 107.50,183.05 102.50,180.55" fill="#b77378"/>
<polygon points="112.50,180.55 107.50,183.05 107.50,178.05 112.50,175.55" fill="#db8997"/>
<polygon points="102.50,180.55 107.50,183.05 107.50,178.05 102.50,175.55" fill="#b7737e"/>
<polygon points="102.50,175.55 107.50,178.05 107.50,173.05 102.50,170.55" fill="#b77378"/>
<polygon points="122.50,175.55 117.50,178.05 117.50,173.05 122.50,170.55" fill="#db8990"/>
<polygon points="102.50,170.55 107.50,173.05 107.50,168.05 102.50,165.55" fill="#b7737e"/>
<polygon points="122.50,170.55 117.50,173.05 117.50,168.05 122.50,165.55" fill="#db8990"/>
<polygon points="102.50,165.55 107.50,168.05 107.50,163.05 102.50,160.55" fill="#b77378"/>
<polygon points="122.50,165.55 117.50,168.05 117.50,163.05 122.50,160.55" fill="#db8990"/>
<polygon points="102.50,160.55 107.50,163.05 107.50,158.05 102.50,155.55" fill="#b7737e"/>
<polygon points="122.50,160.55 117.50,163.05 117.50,158.05 122.50,155.55" fill="#db8990"/>
<polygon points="137.50,153.05 142.50,155.55 137.50,158.05 132.50,155.55" fill="#ffb3bc"/>
<polygon points="132.50,160.55 137.50,163.05 137.50,158.05 132.50,155.55" fill="#b77378"/>
<polygon points="152.50,160.55 147.50,163.05 147.50,158.05 152.50,155.55" fill="#db8990"/>
<polygon points="102.50,155.55 107.50,158.05 107.50,153.05 102.50,150.55" fill="#b7737e"/>
<polygon points="122.50,155.55 117.50,158.05 117.50,153.05 122.50,150.55" fill="#db8990"/>
<polygon points="102.50,150.55 107.50,153.05 107.50,148.05 102.50,145.55" fill="#b77378"/>
<polygon points="122.50,150.55 117.50,153.05 117.50,148.05 122.50,145.55" fill="#db8990"/>
<polygon points="132.50,150.55 137.50,153.05 137.50,148.05 132.50,145.55" fill="#ac5c67"/>
<polygon points="102.50,145.55 107.50,148.05 107.50,143.05 102.50,140.55" fill="#b77378"/>
<polygon points="117.50,138.05 122.50,140.55 117.50,143.05 112.50,140.55" fill="#ffb3bc"/>
<polygon points="122.50,145.55 117.50,148.05 117.50,143.05 122.50,140.55" fill="#db8990"/>
<polygon points="137.50,138.05 142.50,140.55 137.50,143.05 132.50,140.55" fill="#ff8fa1"/>
<polygon points="132.50,145.55 137.50,148.05 137.50,143.05 132.50,140.55" fill="#ac5c67"/>
<polygon points="147.50,138.05 152.50,140.55 147.50,143.05 142.50,140.55" fill="#ff8fa1"/>
<polygon points="152.50,145.55 147.50,148.05 147.50,143.05 152.50,140.55" fill="#ce6e7b"/>
<polygon points="107.50,133.05 112.50,135.55 107.50,138.05 102.50,135.55" fill="#ffb3bc"/>
<polygon points="112.50,140.55 107.50,143.05 107.50,138.05 112.50,135.55" fill="#db8990"/>
<polygon points="102.50,140.55 107.50,143.05 107.50,138.05 102.50,135.55" fill="#b77378"/>
<polygon points="117.50,178.05 112.50,180.55 112.50,175.55 117.50,173.05" fill="#db8997"/>
<polygon points="107.50,178.05 112.50,180.55 112.50,175.55 107.50,173.05" fill="#b7737e"/>
<polygon points="117.50,173.05 112.50,175.55 112.50,170.55 117.50,168.05" fill="#db8990"/>
<polygon points="107.50,173.05 112.50,175.55 112.50,170.55 107.50,168.05" fill="#b77378"/>
<polygon points="117.50,168.05 112.50,170.55 112.50,165.55 117.50,163.05" fill="#db8990"/>
<polygon points="107.50,168.05 112.50,170.55 112.50,165.55 107.50,163.05" fill="#b77378"/>
<polygon points="117.50,163.05 112.50,165.55 112.50,160.55 117.50,158.05" fill="#db8990"/>
<polygon points="107.50,163.05 112.50,165.55 112.50,160.55 107.50,158.05" fill="#b77378"/>
<polygon points="147.50,163.05 142.50,165.55 142.50,160.55 147.50,158.05" fill="#ce6e7b"/>
<polygon points="137.50,163.05 142.50,165.55 142.50,160.55 137.50,158.05" fill="#ac5c67"/>
<polygon points="117.50,158.05 112.50,160.55 112.50,155.55 117.50,153.05" fill="#db8990"/>
<polygon points="107.50,158.05 112.50,160.55 112.50,155.55 107.50,153.05" fill="#b77378"/>
<polygon points="137.50,158.05 142.50,160.55 142.50,155.55 137.50,153.05" fill="#ac5c67"/>
<polygon points="157.50,158.05 152.50,160.55 152.50,155.55 157.50,153.05" fill="#db8990"/>
<polygon points="117.50,153.05 112.50,155.55 112.50,150.55 117.50,148.05" fill="#db8997"/>
<polygon points="107.50,153.05 112.50,155.55 112.50,150.55 107.50,148.05" fill="#b7737e"/>
<polygon points="137.50,153.05 142.50,155.55 142.50,150.55 137.50,148.05" fill="#ac5c67"/>
<polygon points="152.50,145.55 157.50,148.05 152.50,150.55 147.50,148.05" fill="#ff8fa1"/>
<polygon points="157.50,153.05 152.50,155.55 152.50,150.55 157.50,148.05" fill="#ce6e7b"/>
<polygon points="112.50,140.55 117.50,143.05 112.50,145.55 107.50,143.05" fill="#2c2c2c"/>
<polygon points="117.50,148.05 112.50,150.55 112.50,145.55 117.50,143.05" fill="#222222"/>
<polygon points="107.50,148.05 112.50,150.55 112.50,145.55 107.50,143.05" fill="#1c1c1c"/>
<polygon points="142.50,140.55 147.50,143.05 142.50,145.55 137.50,143.05" fill="#ff8fa1"/>
<polygon points="147.50,148.05 142.50,150.55 142.50,145.55 147.50,143.05" fill="#ce6e7b"/>
<polygon points="137.50,148.05 142.50,150.55 142.50,145.55 137.50,143.05" fill="#ac5c67"/>
<polygon points="152.50,160.55 147.50,163.05 147.50,158.05 152.50,155.55" fill="#ce6e7b"/>
<polygon points="142.50,160.55 147.50,163.05 147.50,158.05 142.50,155.55" fill="#ac5c67"/>
<polygon points="147.50,148.05 152.50,150.55 147.50,153.05 142.50,150.55" fill="#ff8fa1"/>
<polygon points="152.50,155.55 147.50,158.05 147.50,153.05 152.50,150.55" fill="#ce6e7b"/>
<polygon points="142.50,155.55 147.50,158.05 147.50,153.05 142.50,150.55" fill="#ac5c67"/>
<text x="12" y="174">voxel_pig</text>
</svg>